<svg width="118" height="117" viewBox="0 0 118 117" fill="none" xmlns="http://www.w3.org/2000/svg">
<path d="M45.5586 108.301C45.9117 105.732 46.8808 104.042 48.4659 103.231C49.9286 102.479 51.8258 102.264 54.1574 102.584L59.4504 103.312L59.4016 103.667L58.1672 103.497L56.4654 115.879L57.6998 116.049L57.6509 116.404L51.8717 115.61C49.4777 115.281 47.7499 114.541 46.6883 113.392C45.625 112.255 45.2484 110.558 45.5586 108.301ZM54.5201 102.996L53.8094 102.898C52.55 102.725 51.5914 103.045 50.9336 103.856C50.2616 104.679 49.7816 106.137 49.4937 108.232L49.3446 109.317C48.959 112.122 49.2629 113.885 50.2564 114.606C50.7299 114.951 51.4343 115.187 52.3694 115.316L52.8183 115.378L54.5201 102.996Z" fill="#EEEEEE"/>
<path d="M40.7985 113.344L31.7942 109.433L33.1103 105.929L33.422 106.065C33.4004 107.441 33.5624 108.459 33.9078 109.116C34.2483 109.786 34.9323 110.343 35.9597 110.79L36.5657 111.053L38.8898 105.702L38.3011 105.447C37.7585 105.211 37.2148 105.215 36.6699 105.458C36.12 105.714 35.6196 106.155 35.1686 106.782L34.9089 106.669L37.1352 101.544L37.4296 101.672C37.2613 102.628 37.2759 103.368 37.4733 103.893C37.6591 104.413 38.058 104.806 38.6698 105.072L39.0854 105.252L41.4998 99.6937L40.8418 99.4079C39.7797 98.9466 38.7414 98.8729 37.7268 99.1869C36.7007 99.4959 35.8334 100.087 35.1252 100.959L34.7788 100.809L36.557 97.0939L46.0635 101.223L45.898 101.604L44.8764 101.16L39.9423 112.52L40.964 112.963L40.7985 113.344Z" fill="#EEEEEE"/>
<path d="M30.2835 92.6308C29.7954 92.2337 29.2586 92.016 28.6731 91.9778C28.0779 91.9316 27.5658 92.1721 27.1369 92.6993C26.7001 93.2363 26.5715 93.8131 26.7512 94.4299C26.9211 95.0387 27.2986 95.7514 27.8835 96.568C28.4508 97.3864 28.8417 98.0127 29.0563 98.447C29.2612 98.8732 29.4117 99.3364 29.5078 99.8364C29.7001 100.837 29.3634 101.869 28.4976 102.933C27.7907 103.802 26.8755 104.298 25.7521 104.423C24.6189 104.539 23.5154 104.161 22.4415 103.287C21.924 102.866 21.4506 102.351 21.0212 101.742C20.5741 101.135 20.2822 100.776 20.1455 100.665C20.0088 100.554 19.8073 100.552 19.5411 100.66L19.38 100.529L21.6842 97.4871L21.9185 97.6777C21.6961 98.9084 21.6371 99.988 21.7415 100.917C21.8282 101.847 22.1742 102.559 22.7795 103.051C23.3751 103.536 23.954 103.771 24.5163 103.758C25.0706 103.755 25.5384 103.519 25.9197 103.05C26.293 102.591 26.3876 102.076 26.2036 101.505C26.0019 100.935 25.6766 100.338 25.2276 99.7128C24.7787 99.088 24.4902 98.6748 24.3621 98.4733C24.2243 98.2638 24.0673 97.9981 23.891 97.6762C23.6971 97.3562 23.5648 97.0701 23.4941 96.8179C23.4058 96.5676 23.3403 96.2791 23.2978 95.9524C23.2376 95.6276 23.2371 95.319 23.2966 95.0266C23.4142 94.3435 23.7351 93.6798 24.2594 93.0354C25.1172 91.981 26.1402 91.4017 27.3283 91.2974C28.4987 91.195 29.6209 91.5806 30.6948 92.4543C31.2513 92.9071 31.8312 93.5006 32.4345 94.2348C33.0281 94.9611 33.3639 95.356 33.442 95.4195C33.5787 95.5307 33.8296 95.4915 34.1948 95.3018L34.3999 95.4686L31.7107 99.0732L31.4618 98.8707C31.7232 97.6718 31.7801 96.485 31.6325 95.3103C31.4752 94.1276 31.0255 93.2345 30.2835 92.6308Z" fill="#EEEEEE"/>
<path d="M13.1657 93.6164L9.84515 88.9123L10.1382 88.7054L10.737 89.5537L20.9473 82.3465L20.3485 81.4982L20.6416 81.2913L23.9621 85.9955L23.6691 86.2023L23.0703 85.354L12.86 92.5613L13.4588 93.4096L13.1657 93.6164Z" fill="#EEEEEE"/>
<path d="M16.445 72.5196C16.2385 71.9385 16.0011 71.6088 15.7328 71.5305C15.4604 71.4404 15.0691 71.4859 14.5592 71.6671L11.1082 72.8936L11.5128 74.0321L11.1214 74.1712L9.30065 69.048L9.69201 68.9089L9.93857 69.6027L14.955 67.8199L15.0499 68.0867C14.8292 68.4055 14.7885 68.7606 14.9276 69.152C14.9866 69.318 15.2703 69.7782 15.7788 70.5324C16.2831 71.2749 16.6385 71.9366 16.845 72.5177C17.532 74.4508 17.5434 76.1364 16.8791 77.5746C16.2106 79.001 14.8328 80.0851 12.7455 80.8269C10.6465 81.5729 8.83169 81.5968 7.30123 80.8985C5.76656 80.1883 4.66626 78.8964 4.00032 77.0226C3.74322 76.2992 3.58099 75.5421 3.51364 74.7512C3.43021 73.9527 3.36743 73.4942 3.32528 73.3756C3.28313 73.257 3.2278 73.1765 3.15929 73.1341C3.07892 73.0958 2.96087 73.0643 2.80513 73.0395L2.73558 72.8439L6.54518 71.3297L6.65898 71.6498C5.71516 72.6398 5.02249 73.5471 4.58097 74.3719C4.12338 75.189 4.02313 75.9593 4.28023 76.6827C4.92509 78.4972 7.02047 78.7743 10.5664 77.5141L11.9717 77.0146C13.7506 76.3824 15.0186 75.6847 15.7758 74.9213C16.517 74.1504 16.74 73.3498 16.445 72.5196Z" fill="#EEEEEE"/>
<path d="M1.1466 56.8312L13.9731 55.9538L14.1535 58.5907L2.40925 65.8846L14.2376 65.0755L14.1667 64.0396L14.5246 64.0151L14.7011 66.5955L14.3432 66.62L14.2723 65.5841L1.80365 66.437L1.87451 67.4729L1.51665 67.4974L1.16107 62.2989L10.2786 56.7175L1.18138 57.3397L1.25224 58.3756L0.894381 58.4001L0.717878 55.8197L1.07574 55.7953L1.1466 56.8312Z" fill="#EEEEEE"/>
<path d="M15.1742 36.378C16.2022 36.9107 17.0798 37.1457 17.8069 37.083C18.5397 37.0092 19.1436 36.5141 19.6184 35.5977C20.0932 34.6814 20.173 33.8297 19.8579 33.0427C19.5427 32.2557 18.8041 31.5611 17.6419 30.9589L10.0653 27.0331L9.50078 28.1226L9.1823 27.9576L10.4504 25.5103L10.7689 25.6753L10.2912 26.5973L17.7504 30.4623C19.1361 31.1803 20.0105 32.0232 20.3737 32.9911C20.7369 33.9589 20.5132 35.225 19.7025 36.7895C18.8977 38.3428 17.9569 39.365 16.8803 39.8561C15.8095 40.336 14.4862 40.1678 12.9106 39.3513L5.63573 35.5818L5.15803 36.5038L4.83954 36.3387L7.57548 31.0586L7.89396 31.2236L7.3294 32.3132L15.1742 36.378Z" fill="#EEEEEE"/>
<path d="M14.8349 20.1784L18.765 15.9702L19.0272 16.215L18.3185 16.9739L27.4523 25.5043L28.161 24.7455L28.4232 24.9903L24.493 29.1985L24.2309 28.9536L24.9396 28.1948L15.8057 19.6644L15.097 20.4232L14.8349 20.1784Z" fill="#EEEEEE"/>
<path d="M43.5343 10.1905L43.3815 9.6451L47.9626 8.36155L48.1154 8.90692L43.5343 10.1905Z" fill="#EEEEEE"/>
<path d="M79.4376 9.86187C78.7381 12.3584 77.5479 13.9006 75.867 14.4883C74.3156 15.034 72.4067 14.9893 70.1404 14.3543L64.9958 12.9128L65.0926 12.5674L66.2924 12.9036L69.6643 0.869236L68.4645 0.533068L68.5612 0.187671L74.1785 1.76155C76.5054 2.41351 78.1164 3.38119 79.0116 4.66459C79.9102 5.93587 80.0522 7.6683 79.4376 9.86187ZM69.8373 13.8968L70.5281 14.0904C71.7521 14.4333 72.7452 14.2476 73.5074 13.5331C74.2852 12.81 74.9593 11.4304 75.5297 9.39434L75.8252 8.33997C76.5892 5.61315 76.5282 3.82499 75.6421 2.97548C75.2199 2.56964 74.5544 2.23938 73.6454 1.9847L73.2091 1.86246L69.8373 13.8968Z" fill="#EEEEEE"/>
<path d="M84.843 5.51444L93.2308 10.6152L91.4499 13.9071L91.1596 13.7306C91.3684 12.3698 91.3465 11.3401 91.0938 10.6414C90.8476 9.9319 90.246 9.28617 89.2889 8.70416L88.7243 8.36084L85.6933 13.3452L86.2417 13.6787C86.7472 13.986 87.2864 14.0561 87.8594 13.889C88.4389 13.7112 88.9948 13.3421 89.5269 12.7819L89.7689 12.929L86.8654 17.7037L86.5911 17.5369C86.888 16.6127 86.9744 15.8771 86.8503 15.3303C86.737 14.79 86.3953 14.3466 85.8254 14L85.4383 13.7645L82.2895 18.9424L82.9025 19.3152C83.8918 19.9168 84.9104 20.1312 85.9583 19.9582C87.017 19.7918 87.9566 19.3247 88.777 18.5569L89.0997 18.753L86.8322 22.191L77.9766 16.8058L78.1924 16.4509L79.1441 17.0296L85.5789 6.44805L84.6272 5.86931L84.843 5.51444Z" fill="#EEEEEE"/>
<path d="M92.4393 27.4668C92.8688 27.9267 93.371 28.2155 93.9458 28.3331C94.5292 28.4599 95.0692 28.2913 95.5659 27.8274C96.0718 27.3549 96.2777 26.801 96.1837 26.1655C96.0982 25.5393 95.8213 24.7818 95.353 23.8931C94.9025 23.0051 94.6005 22.3314 94.447 21.872C94.3021 21.4218 94.2161 20.9424 94.1889 20.4339C94.1346 19.4169 94.6088 18.4403 95.6114 17.5039C96.43 16.7393 97.4043 16.3719 98.5342 16.4016C99.6727 16.4405 100.714 16.9658 101.659 17.9776C102.115 18.4651 102.514 19.0398 102.856 19.7015C103.216 20.3639 103.457 20.7594 103.577 20.8882C103.697 21.017 103.896 21.0461 104.175 20.9754L104.317 21.1272L101.62 23.8267L101.414 23.606C101.802 22.4171 102.007 21.3555 102.03 20.4213C102.071 19.4877 101.825 18.7357 101.292 18.1655C100.768 17.6044 100.227 17.292 99.668 17.2284C99.1184 17.1562 98.6228 17.3263 98.1813 17.7386C97.749 18.1424 97.585 18.6399 97.6895 19.2312C97.8118 19.8231 98.0527 20.4591 98.4124 21.1392C98.7721 21.8194 99.0016 22.268 99.1011 22.4851C99.2091 22.7114 99.3285 22.996 99.4593 23.3388C99.6078 23.6823 99.6999 23.9838 99.7356 24.2432C99.789 24.5033 99.8146 24.798 99.8122 25.1274C99.8277 25.4574 99.7861 25.7632 99.6874 26.0448C99.4778 26.7055 99.0695 27.3193 98.4624 27.8863C97.469 28.8141 96.3767 29.2487 95.1854 29.1902C94.012 29.1323 92.9528 28.5975 92.0078 27.5857C91.5182 27.0614 91.0245 26.3944 90.5267 25.5849C90.0376 24.7846 89.7587 24.3476 89.6899 24.274C89.5697 24.1453 89.3157 24.15 88.9281 24.2881L88.7477 24.0949L91.9026 20.8901L92.1217 21.1247C91.6994 22.2768 91.4814 23.4448 91.4677 24.6286C91.4625 25.8217 91.7864 26.7678 92.4393 27.4668Z" fill="#EEEEEE"/>
<path d="M109.533 28.8212L112.182 33.9337L111.864 34.0987L111.386 33.1768L100.289 38.9266L100.767 39.8485L100.449 40.0136L97.7995 34.9011L98.118 34.736L98.5957 35.658L109.692 29.9082L109.215 28.9862L109.533 28.8212Z" fill="#EEEEEE"/>
<path d="M103.413 49.2743C103.538 49.8781 103.728 50.2371 103.983 50.3512C104.241 50.4776 104.635 50.4858 105.165 50.3756L108.751 49.6305L108.505 48.4475L108.911 48.363L110.018 53.6864L109.611 53.7709L109.461 53.05L104.249 54.1332L104.191 53.8559C104.453 53.5701 104.542 53.2239 104.457 52.8172C104.421 52.6447 104.203 52.1502 103.802 51.3337C103.403 50.5295 103.141 49.8255 103.016 49.2217C102.599 47.2131 102.817 45.5417 103.671 44.2073C104.527 42.8852 106.04 41.9988 108.209 41.5482C110.39 41.0949 112.191 41.3184 113.612 42.2186C115.036 43.1311 115.95 44.5608 116.354 46.5078C116.511 47.2595 116.568 48.0317 116.527 48.8243C116.501 49.6267 116.501 50.0896 116.527 50.2128C116.552 50.336 116.596 50.4233 116.658 50.4747C116.733 50.5235 116.845 50.5708 116.996 50.6165L117.038 50.8199L113.058 51.8012L112.989 51.4685C114.059 50.6163 114.869 49.8117 115.418 49.0548C115.983 48.3076 116.187 47.5581 116.031 46.8064C115.639 44.9211 113.601 44.3612 109.916 45.1269L108.456 45.4303C106.608 45.8144 105.257 46.333 104.402 46.9861C103.563 47.649 103.233 48.4117 103.413 49.2743Z" fill="#EEEEEE"/>
<path d="M116.433 66.9007L103.606 66.0233L103.786 63.3865L116.414 57.7597L104.586 56.9506L104.515 57.9865L104.157 57.962L104.334 55.3816L104.692 55.4061L104.621 56.442L117.09 57.2949L117.16 56.259L117.518 56.2835L117.163 61.4819L107.37 65.7699L116.467 66.3922L116.538 65.3562L116.896 65.3807L116.72 67.9611L116.362 67.9366L116.433 66.9007Z" fill="#EEEEEE"/>
<path d="M99.7512 85.2527C98.8052 84.585 97.9678 84.2327 97.2389 84.1958C96.5028 84.1692 95.8372 84.5774 95.2421 85.4206C94.6469 86.2637 94.4518 87.0966 94.6569 87.9192C94.8619 88.7418 95.4991 89.5305 96.5685 90.2853L103.54 95.2063L104.248 94.2037L104.541 94.4106L102.951 96.6624L102.658 96.4556L103.257 95.6073L96.3934 90.7625C95.1184 89.8625 94.3669 88.9084 94.1388 87.9001C93.9108 86.8919 94.3049 85.668 95.321 84.2284C96.3299 82.7992 97.401 81.9146 98.5345 81.5747C99.6607 81.245 100.949 81.5919 102.399 82.6153L109.092 87.3403L109.691 86.492L109.984 86.6989L106.555 91.5573L106.262 91.3504L106.969 90.3479L99.7512 85.2527Z" fill="#EEEEEE"/>
<path d="M82.437 96.8748L87.4454 92.8002L87.6718 93.0784L86.7053 93.8647L92.0327 95.9557L91.2158 90.1952L89.6635 91.4581L89.4371 91.1798L92.4685 88.7136L92.6949 88.9918L91.7137 89.7901L92.6537 96.1806L100.087 99.065L100.878 98.4217L101.116 98.7146L96.1808 102.73L95.9425 102.437L96.9384 101.627L92.0781 99.691L92.75 105.034L94.2731 103.795L94.5113 104.088L91.5092 106.53L91.2709 106.237L92.2375 105.451L91.4955 99.4835L83.5128 96.462L82.6634 97.1531L82.437 96.8748Z" fill="#EEEEEE"/>
<path d="M68.0885 107.335L68.1656 107.896L63.4525 108.544L63.3753 107.983L68.0885 107.335Z" fill="#EEEEEE"/>
</svg>
