<svg width="78" height="95" viewBox="0 0 78 95" fill="none" xmlns="http://www.w3.org/2000/svg">
<path d="M55.4107 94.5273L52.6678 94.149L49.2052 93.5096L45.413 92.1454L39.4425 89.0672L35.4539 86.4647L31.3691 83.2624L27.2624 79.5155L23.2133 75.2879L19.2948 70.6572L15.585 65.7083L12.1513 60.5351L9.06228 55.2348L6.37574 49.9081L4.14245 44.6574L2.39948 39.5798L1.17982 34.7699L0.135974 27.8444L0 23.5949L0.442259 19.8768L0.944961 17.0448L1.99293 13.8075L3.34994 11.1539L5.00774 8.52379L7.07072 6.36423L9.26007 4.48016L11.8601 3.01211L14.5123 1.90247L17.3623 1.27708L20.3633 0.942574L23.179 1.20911L26.3943 1.59361L29.9421 2.67818L32.2124 3.70647L35.7547 5.34676L39.4713 7.58698L43.2896 10.3764L47.1491 13.6664L50.988 17.3993L54.7486 21.5151L58.3719 25.9468L61.8056 30.6258L64.9976 35.4796L67.8984 40.4343L70.4641 45.4146L72.6548 50.3445L74.4349 55.1483L75.7754 59.7512L76.6517 64.0813L77.0445 68.0677L77.2464 70.5685L77.1393 74.3497L76.5047 77.6394L75.8578 80.4087L74.6478 83.2626L73.1891 85.808L71.394 88.086L69.2582 90.1377L66.9068 91.7402L64.2944 93.0767L61.4526 93.9331L58.6315 94.4352L55.4107 94.5273ZM5.19865 8.70016L3.5697 11.2883L2.22642 13.9117L1.19081 17.111L0.694985 19.9172L0.254092 23.6068L0.3887 27.8199L0.752669 30.2734L1.4298 34.7158L2.64259 39.5019L4.37868 44.5596L6.6051 49.7934L9.28478 55.1051L12.3655 60.3917L15.7896 65.5523L19.4912 70.4888L23.4001 75.1074L27.4382 79.323L31.5298 83.0579L35.5981 86.2476L39.5675 88.8371L41.4862 89.8345L45.5106 91.9019L49.2698 93.2544L52.7076 93.888L55.4244 94.2642L58.6068 94.1725L61.395 93.6757L64.2024 92.8311L66.7804 91.5112L69.1016 89.93L71.2085 87.9052L72.9803 85.6567L74.4211 83.1415L75.6174 80.3242L76.2547 77.5823L76.8879 74.3198L76.9923 70.5756L76.7904 68.0922L76.4003 64.1218L75.5282 59.8166L74.1945 55.2339L72.42 50.4473L70.2361 45.5322L67.6773 40.5652L64.7834 35.6227L61.5996 30.7803L58.1741 26.1124L54.5577 21.6915L50.8081 17.5869L46.9802 13.8651L43.1358 10.5869L39.334 7.80964L35.6379 5.58212L32.1094 3.94823L29.8473 2.92378L26.3449 1.85189L23.1529 1.47223L20.3647 1.20569L17.4021 1.53791L14.5851 2.15449L11.9686 3.25101L9.4029 4.69813L7.2424 6.55897L5.19865 8.70016Z" fill="#EEEEEE"/>
<path d="M52.6285 67.0186C52.5681 67.0186 52.5145 66.9747 52.5035 66.9112L52.3909 66.3033L51.4652 62.968L50.2098 59.4821L48.6467 55.9032L46.7994 52.2889L44.7007 48.6962L42.3809 45.1824L39.8798 41.8029L37.2331 38.6122L34.4847 35.6612L31.6773 32.9993L28.8575 30.6701L26.0693 28.7145L25.7727 28.5457C25.7109 28.5105 25.6889 28.43 25.7232 28.3662C25.7562 28.3024 25.8345 28.2783 25.8963 28.3144L26.2026 28.4893L29.0072 30.4571L31.8421 32.7982L34.6619 35.4718L37.4212 38.434L40.0762 41.6361L42.5883 45.0272L44.915 48.5531L47.0219 52.1586L48.8761 55.7868L50.446 59.3814L51.7083 62.8851L52.6381 66.2421L52.7535 66.8616C52.7672 66.9331 52.7219 67.0026 52.6532 67.0163C52.645 67.0179 52.6367 67.0186 52.6285 67.0186Z" fill="#EEEEEE"/>
<path d="M57.4954 68.9922C57.494 68.9922 57.494 68.9922 57.4926 68.9922L56.935 68.9844C56.8636 68.9834 56.8072 68.9235 56.8086 68.8504C56.81 68.7781 56.8663 68.7199 56.9364 68.7199H56.9377L57.4967 68.7278C57.5668 68.7288 57.6231 68.7886 57.6217 68.8617C57.6217 68.9341 57.564 68.9922 57.4954 68.9922Z" fill="#EEEEEE"/>
<path d="M58.406 69.311C58.3964 69.311 58.3881 69.3099 58.3785 69.3082L56.207 68.8255L54.5355 68.1668C54.4696 68.141 54.4366 68.0645 54.4613 67.9963C54.4861 67.9281 54.5602 67.8932 54.6261 67.9199L56.2785 68.5726L58.4321 69.0495C58.5008 69.0649 58.5447 69.1351 58.5296 69.2064C58.5172 69.2687 58.465 69.311 58.406 69.311Z" fill="#EEEEEE"/>
<path d="M56.0341 68.9692C56.0149 68.9692 55.9943 68.9644 55.9751 68.954L53.2459 67.4646L50.3849 65.5137L47.458 63.1379L44.5147 60.3791L41.6097 57.2837L38.7954 53.9078L36.1254 50.3119L33.6462 46.5623L31.4075 42.7278L29.4489 38.8794L27.8048 35.0875L26.5055 31.4218L25.5729 27.9481L25.0235 24.7277C25.0111 24.6559 25.0578 24.5872 25.1265 24.5746C25.1965 24.5622 25.2625 24.6096 25.2748 24.6817L25.8215 27.8898L26.7472 31.3408L28.041 34.9875L29.6769 38.7634L31.63 42.5976L33.8605 46.4193L36.3314 50.1568L38.9932 53.7407L41.7979 57.1051L44.6918 60.1888L47.6215 62.9357L50.5333 65.299L53.375 67.237L56.0932 68.7201C56.1563 68.7541 56.1797 68.834 56.1467 68.8986C56.1248 68.9437 56.0808 68.9692 56.0341 68.9692Z" fill="#EEEEEE"/>
<path d="M25.402 26.3198C25.3347 26.3198 25.2797 26.2653 25.2756 26.195L25.1836 24.5156L25.3937 22.1574C25.4006 22.0847 25.4638 22.0332 25.5325 22.038C25.6025 22.045 25.6547 22.1094 25.6478 22.1822L25.4377 24.5204L25.5297 26.1801C25.5338 26.2529 25.4803 26.3154 25.4102 26.3195C25.4075 26.3198 25.4047 26.3198 25.402 26.3198Z" fill="#EEEEEE"/>
<path d="M25.4051 23.6157C25.3928 23.6157 25.3804 23.6139 25.3681 23.6103C25.3008 23.5897 25.2623 23.516 25.2829 23.446L25.3832 23.0939C25.4024 23.0238 25.4738 22.9846 25.5411 23.0046C25.6084 23.0251 25.6469 23.0987 25.6277 23.1687L25.5274 23.521C25.5109 23.5786 25.4601 23.6157 25.4051 23.6157Z" fill="#EEEEEE"/>
<path d="M51.7823 46.8745C51.741 46.8745 51.6998 46.8538 51.6751 46.8154C51.6367 46.7547 51.6531 46.6726 51.7108 46.6323L54.2161 44.9063L56.9397 43.2662L59.688 41.8341L62.2688 40.7059L64.5008 39.9627L66.2616 39.6459L67.4373 39.7994L67.8905 40.4228C67.9331 40.481 67.9221 40.5639 67.8658 40.6081C67.8095 40.6514 67.7298 40.6403 67.6872 40.582L67.2986 40.0479L66.2671 39.9134L64.5612 40.2191L62.3567 40.9538L59.7952 42.074L57.0619 43.4987L54.3507 45.1308L51.8523 46.8523C51.8303 46.8674 51.8056 46.8745 51.7823 46.8745Z" fill="#EEEEEE"/>
<path d="M51.7804 46.8745C51.7364 46.8745 51.6952 46.8519 51.6705 46.8108L49.9509 43.8677L48.0555 40.9941C48.0157 40.9339 48.0308 40.8515 48.0885 40.8102C48.1475 40.7696 48.2272 40.7848 48.2656 40.8448L50.1652 43.7247L51.8889 46.6739C51.926 46.7362 51.9067 46.8175 51.8463 46.8554C51.8257 46.8684 51.8024 46.8745 51.7804 46.8745Z" fill="#EEEEEE"/>
<path d="M46.9132 52.3594C46.9022 52.3594 46.8912 52.3582 46.8802 52.3552C46.8129 52.3367 46.7717 52.2646 46.7896 52.194L47.0135 51.2973L45.0975 48.0189L42.8848 44.6643L45.9215 42.4234L48.0875 40.8123C48.1452 40.7694 48.2235 40.7834 48.2647 40.8428C48.3059 40.9019 48.2936 40.9845 48.2359 41.0271L43.2364 44.73L45.3117 47.8757L47.2882 51.256L47.0354 52.2605C47.0203 52.3199 46.9695 52.3594 46.9132 52.3594Z" fill="#EEEEEE"/>
<path d="M42.4872 45.2402C42.4474 45.2402 42.4076 45.2204 42.3829 45.1833C42.3416 45.123 42.3568 45.0407 42.4144 44.9993L42.8787 44.6675L40.644 41.6491L38.0742 38.5497L39.754 37.9952L41.6659 36.9516L43.9788 35.358L46.2135 38.0632L48.1886 40.7375L57.7852 33.5452L61.6035 30.624C61.6474 30.5664 61.7271 30.5569 61.7834 30.6015C61.8383 30.6468 61.8479 30.7298 61.804 30.7873L61.7463 30.8562L61.0623 31.3873L57.9349 33.759L48.1364 41.1022L46.0157 38.2296L43.9322 35.7076L41.795 37.1788L39.8529 38.2383L38.5192 38.6802L40.8418 41.4823L43.244 44.727L42.56 45.2167C42.5381 45.2328 42.512 45.2402 42.4872 45.2402Z" fill="#EEEEEE"/>
<path d="M38.297 38.7471C38.264 38.7471 38.2297 38.7337 38.205 38.7068L35.6627 35.9752L32.8594 33.3143L34.9567 33.1233L37.0787 32.2787L39.4439 30.764L41.8008 33.015L43.9682 35.3552L46.255 33.51L48.6051 31.3523L50.7683 29.0992L52.5964 26.9104L53.9562 24.9421L54.75 23.3494L54.9368 22.2611L54.5509 21.6806C54.5111 21.6205 54.5248 21.5382 54.5839 21.4966C54.6415 21.4549 54.7198 21.4702 54.761 21.5303L55.206 22.2007L54.9849 23.4531L54.1732 25.08L52.7969 27.0739L50.9551 29.2789L48.7795 31.5444L46.4171 33.7133L43.9434 35.7099L41.6222 33.204L39.4123 31.094L37.1914 32.5148L34.9965 33.3851L33.4582 33.525L35.8412 35.7856L38.389 38.5228C38.4371 38.5755 38.4357 38.6593 38.3863 38.7099C38.3602 38.7347 38.3286 38.7471 38.297 38.7471Z" fill="#EEEEEE"/>
<path d="M38.297 38.7471C38.2929 38.7471 38.2902 38.7468 38.286 38.7465L37.3191 38.6578C37.2491 38.6512 37.1969 38.5869 37.2037 38.5144C37.2092 38.4418 37.2724 38.3906 37.3411 38.3943L38.308 38.4831C38.3781 38.4896 38.4303 38.5539 38.4248 38.6264C38.4179 38.6952 38.363 38.7471 38.297 38.7471Z" fill="#EEEEEE"/>
<path d="M39.4318 31.1001L37.0556 29.1214L34.8663 27.5705L32.5272 28.9692L30.1552 29.673L27.97 29.5867C27.8999 29.584 27.845 29.5225 27.8478 29.4497C27.8505 29.3766 27.9068 29.3265 27.9796 29.3223L30.1236 29.4071L32.4421 28.7194L34.8773 27.2581L37.2081 28.9092L39.4276 30.7582L41.6554 28.826L43.7953 26.4507L45.6289 23.8548L47.0299 21.2234L47.8897 18.7572L48.1699 16.6126L47.8554 14.9574L46.9708 13.8526C46.9269 13.7963 46.9338 13.713 46.9887 13.6664C47.0423 13.6196 47.1233 13.6275 47.1672 13.6838L48.093 14.8401L48.4295 16.6043L48.1342 18.8342L47.2606 21.3327L45.8432 23.9971L43.9917 26.6194L41.8299 29.0179L39.4318 31.1001Z" fill="#EEEEEE"/>
<path d="M33.1606 33.5522C33.1332 33.5522 33.1043 33.543 33.081 33.5233L30.4727 31.3676L27.9029 29.5643C27.8452 29.5236 27.8301 29.4411 27.8699 29.3807C27.9084 29.3203 27.9881 29.3043 28.0457 29.3454L30.6238 31.1548L33.2403 33.3168C33.2952 33.3622 33.3035 33.4453 33.2609 33.5024C33.2348 33.5352 33.1977 33.5522 33.1606 33.5522Z" fill="#EEEEEE"/>
<path d="M33.157 33.5522C33.1433 33.5522 33.1282 33.5497 33.1145 33.5444L31.719 33.0267C31.6531 33.0022 31.6187 32.9266 31.6421 32.8576C31.6668 32.7887 31.7396 32.7532 31.8055 32.7778L33.1996 33.2955C33.2669 33.32 33.3013 33.3957 33.2765 33.4646C33.2587 33.5186 33.2092 33.5522 33.157 33.5522Z" fill="#EEEEEE"/>
<path d="M44.9641 13.9038C44.9106 13.9038 44.8597 13.8679 44.8433 13.8116L44.2568 11.8961L43.1209 10.5718C43.0728 10.5174 43.0783 10.4339 43.1305 10.3853C43.1827 10.3368 43.2637 10.3411 43.3104 10.3963L44.4916 11.7891L45.0864 13.7316C45.107 13.8012 45.0699 13.8755 45.0026 13.8975C44.9902 13.9017 44.9779 13.9038 44.9641 13.9038Z" fill="#EEEEEE"/>
<path d="M44.9643 13.9038C44.9396 13.9038 44.9135 13.8961 44.8915 13.8797L41.5992 11.4808C41.5416 11.4387 41.5278 11.3563 41.5677 11.2966C41.6089 11.2371 41.6885 11.2223 41.7462 11.2644L45.0385 13.6633C45.0962 13.7055 45.1099 13.7878 45.0687 13.8475C45.044 13.8841 45.0041 13.9038 44.9643 13.9038Z" fill="#EEEEEE"/>
<path d="M34.888 27.5757L32.6121 26.2593L30.5327 25.3534L28.6455 24.8359L26.165 26.2229L25.4412 26.3817C25.3711 26.3958 25.3038 26.3512 25.2901 26.2797C25.275 26.2082 25.3189 26.1381 25.3876 26.1229L26.0949 25.968L28.6125 24.5534L30.6151 25.1037L32.7234 26.022L34.8537 27.2531L37.0265 25.246L38.9577 22.6998L40.4603 19.8352L41.4313 16.8562L41.7967 13.9883L41.5481 11.3861C41.5412 11.3131 41.592 11.2485 41.6621 11.2412C41.7335 11.2375 41.7953 11.2871 41.8022 11.3597L42.0535 13.9927L41.6785 16.9161L40.6924 19.9407L39.1706 22.845L37.212 25.4265L34.888 27.5757Z" fill="#EEEEEE"/>
<path d="M41.6744 11.5049C41.625 11.5049 41.5783 11.4744 41.5577 11.4235L40.7047 9.30372L39.3161 7.79207C39.2681 7.73907 39.2695 7.65543 39.3216 7.60516C39.3725 7.5553 39.4521 7.55658 39.5016 7.60971L40.9314 9.17935L41.7925 11.3218C41.82 11.3892 41.7884 11.4667 41.7239 11.4949C41.7074 11.5016 41.6909 11.5049 41.6744 11.5049Z" fill="#EEEEEE"/>
<path d="M27.7946 28.332C27.7781 28.332 27.7616 28.3289 27.7451 28.3219L25.4651 27.3394L25.4335 27.1442L25.5489 27.1064L28.0761 26.5102L30.5017 25.1242L32.6581 23.0279L34.3969 20.3713L35.5891 17.3323L36.1577 14.1261L36.0561 10.9769L35.3158 8.15551L32.5331 7.31911L29.9674 7.03377L27.6064 7.32596L25.5393 4.75068L23.1013 2.91591L20.8845 3.86356L19.0482 5.48606L17.6761 7.75134L16.7627 10.759L13.4251 10.0615L9.99414 10.146L11.0682 6.73773L12.656 4.18638L14.7752 2.35817L17.3656 1.2722L20.3516 1.53817L23.1164 2.62358L23.1357 2.61532L23.1535 2.62844L25.8112 2.32329L25.8263 2.32485L28.8576 2.68356L32.2227 3.70943L34.1552 5.5543L35.5108 7.94865L38.5229 9.3328L41.7341 11.2589C41.7945 11.2954 41.8151 11.3764 41.7808 11.4394C41.7451 11.5025 41.6668 11.5242 41.6063 11.4877L38.4075 9.56802L35.6138 8.28401L36.3102 10.9526L36.4132 14.1457L35.8295 17.4193L34.6153 20.5083L32.8421 23.211L30.639 25.3476L28.1503 26.7638L25.9815 27.2757L27.8426 28.0778C27.9085 28.1058 27.9388 28.183 27.9113 28.2504C27.8921 28.3013 27.844 28.332 27.7946 28.332ZM13.4485 9.79651L13.4622 9.79937L16.5883 10.4527L17.4522 7.62512L18.8682 5.29786L20.7678 3.62737L22.7717 2.77074L20.2775 1.79205L17.4041 1.54074L14.8892 2.59565L12.8345 4.37642L11.2921 6.86637L10.3485 9.87274L13.4485 9.79651ZM29.966 6.76764L32.5825 7.06055L35.1482 7.83141L33.945 5.70532L32.0936 3.94605L28.8068 2.9417L25.8112 2.58925L23.4598 2.85936L25.7247 4.56862L27.7135 7.04658L29.966 6.76764Z" fill="#EEEEEE"/>
<path d="M27.7998 28.332C27.797 28.332 27.7929 28.332 27.7901 28.3318L25.6338 28.1678L25.5802 27.9646L24.4951 26.0041L22.6148 24.3511L21.9707 20.5437L19.4819 19.1045L16.4905 18.2124L13.2298 17.9624L9.95126 18.3714L6.89114 19.4117L4.2348 21.0054L2.18693 23.0422L0.864258 25.3888C0.82992 25.4518 0.751637 25.474 0.68983 25.4362C0.629397 25.3993 0.608792 25.3184 0.644503 25.2554L1.99739 22.8639L4.09334 20.7847L6.79911 19.1645L9.89771 18.1146L13.2243 17.6993L16.5495 17.9544L19.5932 18.8662L22.2014 20.3739L22.8497 24.2112L24.7053 25.8522L25.8315 27.9179L27.8094 28.0679C27.8794 28.0733 27.9316 28.1366 27.9261 28.2094C27.922 28.279 27.8657 28.332 27.7998 28.332Z" fill="#EEEEEE"/>
<path d="M0.75162 25.4541C0.682946 25.4541 0.626635 25.3978 0.625262 25.3263L0.482422 20.9187L0.956269 17.0061L2.30641 14.4138L4.3639 12.2894C4.41335 12.2379 4.49438 12.2377 4.54382 12.2898C4.59327 12.3415 4.59327 12.4252 4.54382 12.4767L2.50007 14.5873L1.19251 17.1096L0.736514 20.9307L0.879354 25.3175C0.882101 25.3906 0.827166 25.4515 0.755745 25.4541C0.754371 25.4541 0.752994 25.4541 0.75162 25.4541Z" fill="#EEEEEE"/>
<path d="M60.7049 92.6948L60.6912 92.6925L56.9979 91.9946L52.9378 90.5117L48.6058 88.261L44.0747 85.2753L39.4254 81.5996L34.7446 77.2967L30.1173 72.4404L25.6356 67.1201L21.3847 61.4352L17.4469 55.494L13.8991 49.4111L10.8102 43.3039L8.239 37.29L6.23096 31.4837L4.82176 25.9941L4.02925 20.9203L3.86719 16.3532L4.3273 12.3677C4.33554 12.2951 4.4001 12.2412 4.46878 12.2523C4.53882 12.2608 4.58826 12.3266 4.58002 12.3991L4.12128 16.3641L4.28334 20.8943L5.07037 25.9388L6.47407 31.4049L8.47661 37.1917L11.0395 43.1886L14.1216 49.2811L17.6598 55.3507L21.5893 61.2792L25.832 66.952L30.3041 72.2603L34.919 77.1048L39.5875 81.3956L44.2203 85.0586L48.7308 88.0312L53.0381 90.2688L57.0624 91.7396L60.7241 92.43L63.9834 92.3471L66.7716 91.5117L68.8881 89.4846L70.2699 87.1414L67.8237 87.8523L64.471 87.9111L65.6247 84.6194L66.0217 81.315L65.6934 78.0321L64.6743 74.9968L63.0275 72.4238L60.8629 70.4687C60.8107 70.4207 60.8052 70.3372 60.8505 70.2822C60.8972 70.2269 60.9782 70.2215 61.0304 70.2694L63.2307 72.2627L64.9091 74.8943L65.9461 77.9895L66.2772 81.3179L66.2758 81.3328L65.8692 84.6959L64.8363 87.64L67.8031 87.588L70.4457 86.8149L71.2766 83.8418L71.3728 80.615L70.6998 77.41L69.3126 74.4471L67.2976 71.9365L64.6358 69.9177L66.2881 68.8824L67.5174 67.4159L70.3784 69.1739L72.6735 71.4846L74.3313 74.2498L75.246 77.2758L75.3518 80.3369L75.3477 80.355L74.6293 83.2934L72.8644 85.5165L70.6586 87.0062L70.6517 87.0298L70.6311 87.0354L69.0736 89.6664L66.9007 91.7482L64.0054 92.6109L60.7049 92.6948ZM65.0959 69.9389L67.4844 71.755L69.5351 74.3169L70.9456 77.3382L71.6283 80.5907L71.5266 83.8994L70.7671 86.6174L72.7078 85.3061L74.4137 83.1485L75.0963 80.3089L74.9919 77.3031L74.0937 74.3454L72.4661 71.6383L70.2108 69.3749L67.571 67.7557L66.4378 69.0981L65.0959 69.9389Z" fill="#EEEEEE"/>
<path d="M63.0633 70.5254L60.9453 70.5005C60.8753 70.4998 60.819 70.4398 60.8203 70.3668C60.8203 70.2938 60.8739 70.243 60.9481 70.2361L63.033 70.2604L64.8351 69.7991C64.9037 69.7823 64.9724 69.825 64.9902 69.8957C65.0067 69.9668 64.9642 70.0383 64.8969 70.0559L63.0633 70.5254Z" fill="#EEEEEE"/>
<path d="M64.8639 70.0596C64.8488 70.0596 64.8337 70.0567 64.8186 70.0506L61.9974 68.9096L59.0829 68.5983L57.5226 68.9884C57.4553 69.0042 57.3866 68.9621 57.3688 68.8908C57.3523 68.8199 57.3949 68.7485 57.4636 68.7312L59.0651 68.3306L62.0744 68.6569L64.9106 69.8043C64.9765 69.8308 65.0095 69.9076 64.9834 69.9754C64.9642 70.0275 64.9161 70.0596 64.8639 70.0596Z" fill="#EEEEEE"/>
<path d="M60.345 69.3369C60.3395 69.3369 60.3354 69.3366 60.3299 69.3361L57.4785 68.9913C57.4085 68.9829 57.359 68.9172 57.3659 68.8447C57.3741 68.7723 57.4359 68.7218 57.5073 68.7285L60.3601 69.0732C60.4301 69.0818 60.4796 69.1473 60.4713 69.2199C60.4645 69.2873 60.4082 69.3369 60.345 69.3369Z" fill="#EEEEEE"/>
<path d="M60.3472 69.3369H60.3458L58.4023 69.3106C58.3323 69.3094 58.276 69.2496 58.2774 69.1765C58.2774 69.1034 58.3296 69.0414 58.4065 69.0461L60.3486 69.0724C60.4186 69.0735 60.475 69.1333 60.475 69.2064C60.4736 69.2788 60.4173 69.3369 60.3472 69.3369Z" fill="#EEEEEE"/>
<path d="M60.9476 70.501C60.9311 70.501 60.9133 70.4974 60.8954 70.4894L58.3517 69.2995C58.2886 69.2693 58.2597 69.1911 58.2886 69.1244C58.3174 69.0583 58.3929 69.0283 58.4575 69.0583L61.0012 70.2482C61.0644 70.2784 61.0932 70.3567 61.0644 70.4233C61.0438 70.4722 60.9971 70.501 60.9476 70.501Z" fill="#EEEEEE"/>
<path d="M60.9463 70.501C60.9381 70.501 60.9298 70.5 60.9202 70.4983L58.5688 69.9776L55.988 68.9613C55.9221 68.9352 55.8891 68.8587 55.9152 68.7904C55.9399 68.7224 56.0127 68.6887 56.0787 68.7138L58.6402 69.7246L60.9738 70.2394C61.0424 70.2547 61.0864 70.3249 61.0713 70.3964C61.0589 70.4584 61.0054 70.501 60.9463 70.501Z" fill="#EEEEEE"/>
<path d="M57.2568 85.7964L52.9756 83.5374L48.498 80.5538L50.3165 77.55L51.5513 74.5592L52.1817 71.6812L52.1859 69.0943L51.5623 66.9947L50.3564 65.4871C50.3111 65.4308 50.3179 65.3478 50.3729 65.3009C50.4264 65.2542 50.5075 65.262 50.5528 65.3183L51.7985 66.8916L52.4413 69.0748L52.4331 71.7256L51.7917 74.6408L50.5418 77.6724L48.8469 80.4727L53.102 83.3084L57.1387 85.4375L58.4833 82.49L59.2621 79.2765L59.3802 76.0985L58.8363 73.189L57.6633 70.7528L55.9423 68.9291C55.8929 68.877 55.8943 68.7933 55.9437 68.7422C55.9945 68.6916 56.0756 68.692 56.125 68.7442L57.8831 70.616L59.0822 73.1207L59.637 76.0784L59.5121 79.3276L58.7223 82.5789L57.2568 85.7964Z" fill="#EEEEEE"/>
<path d="M27.972 29.5869C27.9514 29.5869 27.9308 29.5818 27.9116 29.5704L25.7099 28.3123C25.6495 28.2773 25.6261 28.1966 25.6605 28.1328C25.6948 28.0691 25.7717 28.0448 25.8335 28.0809L28.0338 29.339C28.0957 29.3742 28.1176 29.4547 28.0847 29.5185C28.0613 29.5621 28.0174 29.5869 27.972 29.5869Z" fill="#EEEEEE"/>
<path d="M27.9725 29.5869C27.956 29.5869 27.9381 29.5833 27.9217 29.5754L26.0894 28.726C26.0249 28.6964 25.996 28.618 26.0249 28.5515C26.0537 28.4848 26.1292 28.4541 26.1938 28.4848L28.0247 29.3342C28.0892 29.3638 28.1181 29.442 28.0892 29.5087C28.0686 29.5579 28.0219 29.5869 27.9725 29.5869Z" fill="#EEEEEE"/>
<path d="M51.817 93.8647L51.7964 93.862L49.2087 93.5104C49.1387 93.5007 49.0892 93.4345 49.0989 93.3619C49.1085 93.2899 49.1717 93.2369 49.2417 93.248L51.8101 93.5972L54.4307 93.0853L56.9456 91.7539L59.1803 89.6792L60.9795 87.0096L62.2088 83.9226L62.7912 80.6382L62.6758 77.3845L61.8215 74.1618L64.8006 74.805L67.2577 74.8151L69.3674 74.2512L71.1063 73.1323L72.455 71.4825L73.3986 69.326L73.9096 66.772L71.6035 64.9559L68.7754 63.6571C68.7109 63.6276 68.6821 63.5492 68.7109 63.4827C68.7397 63.4163 68.8139 63.3855 68.8785 63.4153L71.7463 64.7359L74.1911 66.6626L73.6362 69.4221L72.6611 71.6395L71.2573 73.3462L69.4498 74.5022L67.2728 75.0795L64.7621 75.0665L62.1786 74.5088L62.9299 77.3594L63.0466 80.6573L62.4505 84.011L61.1965 87.1491L59.3616 89.8658L57.0761 91.9817L54.4953 93.3417L51.817 93.8647Z" fill="#EEEEEE"/>
<path d="M57.0313 68.9858C56.9709 68.9858 56.9173 68.9412 56.9063 68.8774C56.894 68.8056 56.9393 68.7367 57.008 68.7236L59.0311 68.3391L60.3085 67.5542L61.3619 66.3216L64.5539 66.5027L67.4767 67.4253L68.2459 65.7151L68.706 63.5082C68.7211 63.437 68.7884 63.3918 68.8571 63.407C68.9257 63.4223 68.9697 63.4928 68.9546 63.564L68.4835 65.8132L67.6141 67.7451L64.4949 66.7604L61.4718 66.5923L60.4554 67.7712L59.0998 68.5949L57.0547 68.9838C57.0464 68.9851 57.0396 68.9858 57.0313 68.9858Z" fill="#EEEEEE"/>
<path d="M56.5887 68.9077C56.5447 68.9077 56.5021 68.8845 56.4788 68.8426C56.4431 68.7799 56.4623 68.6989 56.5241 68.6617L57.4018 68.124C57.4622 68.0866 57.5405 68.1075 57.5762 68.1707C57.6119 68.2334 57.5927 68.3145 57.5323 68.3518L56.6532 68.8895C56.6326 68.9019 56.6107 68.9077 56.5887 68.9077Z" fill="#EEEEEE"/>
<path d="M56.4871 68.8843C56.4404 68.8843 56.3951 68.8576 56.3731 68.8118C56.3415 68.7467 56.3662 68.667 56.4294 68.634L57.4115 68.1194C57.4733 68.0866 57.5502 68.1127 57.5818 68.1777C57.6134 68.2428 57.5886 68.3224 57.5254 68.3555L56.5448 68.87C56.5255 68.8796 56.5063 68.8843 56.4871 68.8843Z" fill="#EEEEEE"/>
<path d="M55.202 68.4224C55.1677 68.4224 55.1333 68.4084 55.1086 68.3805C55.0605 68.3272 55.0633 68.2436 55.1141 68.1937L56.4794 66.8721L59.0986 65.4691C59.1604 65.4354 59.2373 65.4609 59.2703 65.526C59.3019 65.5908 59.2785 65.6706 59.2154 65.7042L56.6126 67.0986L55.2885 68.3865C55.2638 68.4104 55.2336 68.4224 55.202 68.4224Z" fill="#EEEEEE"/>
<path d="M57.4669 68.3701C57.4367 68.3701 57.4065 68.359 57.3832 68.3366C57.3296 68.2878 57.3255 68.2044 57.3722 68.1499L58.3501 67.0149L59.0437 65.5289C59.0739 65.4632 59.1495 65.4353 59.214 65.4673C59.2772 65.4991 59.3033 65.5784 59.2731 65.644L58.552 67.1774L57.5631 68.3259C57.537 68.3552 57.5026 68.3701 57.4669 68.3701Z" fill="#EEEEEE"/>
<path d="M57.4669 68.3701C57.4078 68.3701 57.3542 68.3262 57.3419 68.2627C57.3295 68.1912 57.3748 68.1218 57.4435 68.108L60.38 67.5245L60.3979 67.526L63.436 67.7834C63.5061 67.7894 63.5583 67.8531 63.5528 67.9259C63.5459 67.9986 63.4855 68.0535 63.4154 68.0469L60.3938 67.7908L57.4916 68.3678C57.4833 68.3694 57.4751 68.3701 57.4669 68.3701Z" fill="#EEEEEE"/>
<path d="M58.137 94.0288L58.1232 94.0264L54.4505 93.3424L50.4179 91.8805L46.1148 89.658L41.618 86.7079L37.0045 83.0732L32.3607 78.8172L27.7732 74.0123L23.33 68.7477L19.1175 63.1205L15.2168 57.239L11.7062 51.2154L8.65015 45.1665L6.10782 39.2084L4.12314 33.4541L2.73454 28.012L1.95714 22.9804L1.80469 18.4489L2.27579 14.4657L3.35124 11.1447L5.45816 8.95412L8.06504 7.46881L9.68852 4.88071L11.8627 3.00594L11.8943 2.99908L14.8171 2.34747L17.8429 2.56158L20.296 1.53046L23.1858 1.20577L25.8943 2.35246L28.2361 4.27626L30.0876 6.84982L31.3127 9.9022L31.8374 13.2044L31.6149 16.577L30.6603 19.7946L28.9338 20.0494L27.5741 20.6884L26.136 23.3548C26.1017 23.4186 26.0234 23.441 25.963 23.4057C25.9012 23.3701 25.8792 23.2894 25.9135 23.2258L27.3928 20.4832L28.8803 19.7902L30.4639 19.5565L31.3663 16.5137L31.5805 13.2173L31.0627 9.96018L29.8582 6.96679L28.0424 4.44849L25.7501 2.5717L23.1487 1.47604L20.3413 1.79129L17.8841 2.82956L14.8364 2.61401L11.9781 3.25082L9.86569 5.07133L8.2436 7.66869L5.59689 9.17678L3.57374 11.2873L2.52164 14.5372L2.05878 18.4603L2.21123 22.9548L2.98313 27.9573L4.36762 33.3759L6.34406 39.1105L8.87953 45.0516L11.9273 51.0855L15.4311 57.0957L19.3235 62.9645L23.5264 68.5795L27.9587 73.8323L32.5351 78.6252L37.1652 82.8687L41.7622 86.4906L46.2398 89.4279L50.5168 91.6376L54.5151 93.0876L58.1562 93.7638L61.3853 93.6748L63.9303 92.3683L66.0881 90.3151L67.706 87.6633L68.662 84.5875L68.8969 81.3033L68.3818 78.0367L67.1635 75.0138L65.3189 72.4475L62.9826 70.508L59.9431 69.1711L61.9814 68.657L63.3603 67.8018C63.4208 67.7643 63.4991 67.785 63.5361 67.8475C63.5718 67.9102 63.5526 67.9913 63.4922 68.029L62.0596 68.9093L60.7507 69.2394L63.1282 70.2902L65.5126 72.2757L67.3929 74.8968L68.6318 77.9788L69.1523 81.2913L68.9092 84.6536L67.9299 87.7906L66.2721 90.4979L64.0594 92.5971L61.421 93.9383L58.137 94.0288Z" fill="#EEEEEE"/>
<path d="M62.923 90.6045L62.9106 90.6019L59.2544 89.8977L55.2355 88.4149L50.9461 86.1704L46.4589 83.1975L41.8536 79.5409L37.214 75.2631L32.6279 70.4367L28.1833 65.1525L23.9681 59.507L20.0605 53.6091L16.5389 47.5716L13.4705 41.5114L10.9144 35.5452L8.91325 29.786L7.50543 24.342L6.71017 19.3115L6.53711 14.7843L6.98762 10.8084L8.05482 7.45731L11.1644 6.67677L14.3207 6.72207L15.7931 4.33143L17.8354 2.54596L20.8901 3.63907L23.5849 5.49063L25.8085 7.98927L27.4004 10.9693L28.2616 14.2209L28.3275 17.4895C28.3289 17.5625 28.2726 17.623 28.2025 17.6245C28.1366 17.6318 28.0734 17.5682 28.072 17.4951L28.0061 14.2429L27.1587 11.0547L25.5929 8.13187L23.4077 5.68195L20.7623 3.86884L17.889 2.84483L15.9716 4.52061L14.4594 6.98861L11.1932 6.9416L8.2526 7.67999L7.23348 10.8787L6.7912 14.7945L6.96426 19.2849L7.75539 24.2861L9.15636 29.7068L11.1507 35.4466L13.6999 41.3962L16.7614 47.4417L20.2747 53.4658L24.1727 59.351L28.3811 64.9844L32.8147 70.257L37.3898 75.0715L42.0157 79.3369L46.6045 82.9811L51.0725 85.941L55.3358 88.1724L59.3203 89.6433L62.9436 90.3395L66.1671 90.2687L68.9333 89.4473L71.1996 87.9083L72.6761 85.3535L73.4315 82.403L73.4137 79.2698L72.6115 76.1687L71.087 73.3121L68.9361 70.9035L66.3141 69.1039L63.2045 67.9752L64.4077 66.5561L65.0835 65.0757L62.1538 65.0187L58.9893 65.7619L59.4384 63.7286L59.5373 61.6288L59.3395 59.2685L58.8464 56.688L58.0677 53.9322L57.017 51.0469L55.7108 48.0796L54.1725 45.079L52.4267 42.093L50.5011 39.1705L48.4258 36.3576L46.2351 33.7008L43.9633 31.2427L41.649 29.025L39.3264 27.0839L37.0368 25.4539L34.8186 24.1632L32.7076 23.2359L30.7449 22.69L28.9785 22.538L27.4169 22.7758L26.0777 23.4104C26.0132 23.4399 25.9376 23.4113 25.9088 23.3452C25.8786 23.2788 25.9074 23.2003 25.972 23.1698L27.3619 22.5168L28.9703 22.2719L30.7888 22.4307L32.7914 22.9867L34.9299 23.9261L37.1714 25.2295L39.4789 26.8718L41.8152 28.825L44.1419 31.0542L46.4246 33.5235L48.6236 36.1912L50.7071 39.0155L52.641 41.9499L54.395 44.9482L55.9401 47.9628L57.2518 50.9452L58.3094 53.8483L59.0937 56.6253L59.5922 59.2316L59.7928 61.6241L59.6911 63.7646L59.3285 65.4112L62.1277 64.7537L65.4818 64.8191L64.611 66.7169L63.6468 67.8554L66.4418 68.8744L69.1133 70.7122L71.3026 73.1701L72.8546 76.0845L73.6691 79.2512L73.6856 82.4365L72.9041 85.4733L71.3891 88.0963L69.0226 89.696L66.1891 90.5327L62.923 90.6045Z" fill="#EEEEEE"/>
<path d="M65.7372 84.7827L62.309 84.0905L58.5552 82.6714L54.5474 80.5414L50.3569 77.7319L46.0551 74.2856L41.7218 70.2612L37.4379 65.7285L33.2844 60.7707L29.3411 55.4787L25.6849 49.954L22.3872 44.301L19.507 38.6284L17.1034 33.0451L15.2148 27.6555L13.8784 22.5606L13.1106 17.8522L12.9238 13.6135L13.318 9.88847L14.3056 6.69649L17.6212 7.57803L20.4299 9.1045L21.6771 7.02784L23.442 5.45849L25.6149 4.52165L28.1338 4.22235L28.1476 4.22392L30.9715 4.55059L34.0838 5.4941L37.4021 7.02655L40.8757 9.11619L44.444 11.7215L48.0522 14.7968L51.6439 18.2886L55.1627 22.1404L58.5566 26.2889L61.772 30.6705L64.7607 35.2158L67.4761 39.8555L69.8783 44.5187L71.9289 49.1333L73.595 53.6287L74.8476 57.9337L75.6648 61.9812L76.0288 65.7047L75.9299 69.0437L75.3695 71.9039L76.3406 74.7184L76.5081 77.6374L75.3228 80.4067L73.6279 82.5307L71.4372 83.9895L68.7891 84.7451L65.7372 84.7827ZM13.5653 9.95642L13.1779 13.6221L13.3634 17.8243L14.127 22.504L15.4579 27.5758L17.3396 32.946L19.7363 38.513L22.6083 44.1711L25.8992 49.8107L29.5472 55.323L33.4808 60.603L37.6246 65.5493L41.8976 70.0704L46.2172 74.0826L50.5039 77.5163L54.6751 80.3124L58.6569 82.4295L62.3777 83.8364L65.7606 84.5177L68.7699 84.4808L71.3507 83.74L73.4727 82.3197L75.114 80.2526L76.2499 77.5891L76.0878 74.753L75.2239 72.2668L74.3078 74.3742L72.7983 76.2306L70.8535 77.4938L68.5048 78.1319L65.8059 78.135L65.7935 78.1325L62.7774 77.4941L59.4645 76.2131L55.9319 74.3075L52.2399 71.8075L48.4546 68.7503L44.6418 65.1893L40.8743 61.1857L37.2222 56.8118L33.7555 52.1482L30.5374 47.2823L27.6325 42.3051L25.0929 37.3116L22.9668 32.3954L21.2925 27.6483L20.0989 23.1579L19.4026 19.0041L19.2158 15.2598L19.5344 11.9875L20.3214 9.34498L17.5168 7.81936L14.4745 7.01417L13.5653 9.95642ZM20.592 9.33414L19.783 12.0401L19.4699 15.2665L19.6553 18.9748L20.3462 23.1001L21.5342 27.5678L23.203 32.2959L25.3223 37.1959L27.8537 42.1749L30.7517 47.139L33.9616 51.9925L37.42 56.6446L41.0625 61.0066L44.819 64.9987L48.6181 68.5478L52.3883 71.5925L56.0596 74.0794L59.5675 75.9718L62.8488 77.2405L65.832 77.8706L68.4883 77.8675L70.7697 77.2434L72.6459 76.0181L74.1004 74.2183L75.0907 71.9278L73.426 69.4569L71.1034 67.3791L68.3208 65.8821L65.1315 65.0438L65.593 62.8734L65.6878 60.5227L65.4515 57.8813L64.887 54.995L64.0053 51.9134L62.8213 48.6874L61.3558 45.3701L59.6321 42.0148L57.6776 38.6754L55.5253 35.4052L53.2069 32.2556L50.7621 29.2785L48.2266 26.5214L45.6431 24.0302L43.0513 21.8458L40.4966 20.0074L38.0202 18.5463L35.6647 17.4906L33.4712 16.8601L31.4948 16.6708L29.7477 16.9186L28.252 17.6129C28.1874 17.6432 28.1119 17.6126 28.083 17.5462C28.0542 17.4795 28.083 17.4013 28.1476 17.3717L29.6955 16.6594L31.4893 16.4048L31.5044 16.4061L33.5166 16.601L35.7485 17.2419L38.1328 18.3101L40.6326 19.7838L43.2051 21.6346L45.8093 23.8307L48.4052 26.3334L50.9502 29.1017L53.406 32.0897L55.7314 35.2502L57.8919 38.5321L59.8532 41.8839L61.5838 45.2528L63.0562 48.5854L64.247 51.8288L65.1343 54.9309L65.7043 57.8428L65.9432 60.5163L65.8444 62.9075L65.4337 64.8505L68.4251 65.6402L71.2586 67.1686L73.6265 69.2919L75.1717 71.5855L75.6785 69.0132L75.7747 65.714L75.4134 62.0218L74.6004 57.999L73.3546 53.7145L71.694 49.236L69.6503 44.6362L67.2549 39.9864L64.5464 35.3589L61.5646 30.8249L58.3575 26.4544L54.9732 22.3168L51.4639 18.476L47.8846 14.9956L44.2888 11.9319L40.7384 9.33871L37.2868 7.26177L33.9959 5.74184L30.9207 4.80887L28.1338 4.48833L25.6616 4.78223L23.5588 5.69426L21.8584 7.21503L20.592 9.33414Z" fill="#EEEEEE"/>
<path d="M24.7534 14.3052C24.7135 14.3052 24.6737 14.2855 24.649 14.2491L22.8332 11.576L20.3898 9.378C20.3362 9.33029 20.3307 9.24652 20.3774 9.19152C20.4227 9.13609 20.5038 9.13069 20.5573 9.17813L23.0337 11.4105L24.8577 14.0968C24.8976 14.1563 24.8838 14.2391 24.8262 14.2811C24.8042 14.2973 24.7781 14.3052 24.7534 14.3052Z" fill="#EEEEEE"/>
<path d="M65.4283 72.4868L65.4119 72.4865L63.1264 72.4674L60.5387 71.9031L57.7272 70.7992L54.7344 69.1697L51.6111 67.0416L48.4122 64.4474L45.1941 61.4321L42.0172 58.0468L38.9379 54.3533L36.0151 50.4181L33.3024 46.3139L30.8521 42.1172L28.7081 37.9056L26.9102 33.7577L25.49 29.7491L24.4723 25.9531L23.8735 22.4367L23.7031 19.2612L23.9586 16.479L24.6481 14.105L25.7455 12.2359L27.2303 10.8828L29.0625 10.0658L31.1873 9.79026L33.5868 10.0477L36.2239 10.8295L39.0409 12.1139L41.9898 13.8758L45.0238 16.0795L48.0963 18.6868L51.155 21.6524L54.1548 24.9281L57.0473 28.46L59.7888 32.1922L62.3366 36.0654L64.6509 40.0203L66.6961 43.9945L68.4404 47.9259L69.8537 51.7534L70.9127 55.4162L71.5994 58.8558L71.8975 62.0162L71.8013 64.8459L71.2945 67.3239L70.388 69.3546L69.0887 70.9146L67.4199 71.9673L65.4283 72.4868ZM24.8747 14.2276L24.2072 16.5298L23.9572 19.2666L24.1262 22.4065L24.7209 25.8947L25.7331 29.668L27.1465 33.6577L28.9361 37.7898L31.0733 41.987L33.5167 46.1709L36.2211 50.2628L39.1357 54.1862L42.204 57.8681L45.3713 61.2418L48.5756 64.2453L51.7594 66.8271L54.8635 68.9422L57.8316 70.5586L60.6102 71.6501L63.1539 72.2059L65.3981 72.2221L67.3389 71.7157L68.939 70.6998L70.1834 69.1964L71.0569 67.2268L71.5486 64.8138L71.6434 62.0244L71.3481 58.8957L70.6655 55.481L69.6134 51.8386L68.2055 48.0285L66.4681 44.1121L64.4298 40.1512L62.1224 36.2087L59.5814 32.3469L56.8482 28.6255L53.9652 25.1047L50.9751 21.8402L47.9273 18.8857L44.87 16.2899L41.8538 14.0986L38.9255 12.3497L36.1373 11.0777L33.5387 10.3061L31.19 10.0561L29.1119 10.3258L27.3497 11.117L25.9296 12.4205L24.8747 14.2276Z" fill="#EEEEEE"/>
<path d="M25.5197 22.3013C25.4551 22.3013 25.4002 22.2508 25.3933 22.1832L25.0898 19.2626L25.6969 17.15L24.6352 14.2196C24.6104 14.1511 24.6434 14.075 24.7093 14.0493C24.7739 14.0228 24.8481 14.0582 24.8741 14.1265L25.9661 17.1402L25.3494 19.2874L25.646 22.1548C25.6543 22.2273 25.6035 22.2927 25.5334 22.3004C25.5279 22.301 25.5238 22.3013 25.5197 22.3013Z" fill="#EEEEEE"/>
<path d="M25.5184 22.3013C25.5061 22.3013 25.4937 22.2994 25.4813 22.2958C25.414 22.2752 25.3756 22.2015 25.3962 22.1316L25.9703 20.1332L26.8933 18.5354L28.1129 17.3935C28.1651 17.3448 28.2448 17.3489 28.2929 17.403C28.3396 17.4573 28.3354 17.5406 28.2832 17.5898L27.0787 18.7182L26.1983 20.2542L25.6407 22.2064C25.6242 22.2641 25.5734 22.3013 25.5184 22.3013Z" fill="#EEEEEE"/>
<path d="M25.4299 23.5166C25.4093 23.5166 25.3887 23.5115 25.3694 23.5004C25.3076 23.4653 25.2843 23.3847 25.3186 23.3209L26.2581 21.5626L27.3679 20.5149L28.0766 17.461C28.0931 17.3903 28.1617 17.3474 28.2304 17.3634C28.2977 17.3805 28.3403 17.452 28.3238 17.523L27.5972 20.656L26.4449 21.7434L25.5425 23.4479C25.5191 23.4918 25.4752 23.5166 25.4299 23.5166Z" fill="#EEEEEE"/>
<path d="M25.3594 24.0493C25.3251 24.0493 25.2908 24.0348 25.266 24.0062C25.218 23.9522 25.2221 23.8688 25.2743 23.8195L25.9349 23.1926C25.9871 23.1434 26.0682 23.1471 26.1162 23.201C26.1629 23.255 26.1602 23.3384 26.108 23.3877L25.446 24.0147C25.4213 24.0379 25.391 24.0493 25.3594 24.0493Z" fill="#EEEEEE"/>
<path d="M25.3569 24.1055C25.324 24.1055 25.291 24.0924 25.2649 24.0663C25.2155 24.0143 25.2168 23.9304 25.2663 23.8793L25.9338 23.196C25.9833 23.1446 26.0643 23.1451 26.1137 23.197C26.1632 23.249 26.1632 23.3329 26.1124 23.384L25.4462 24.0673C25.4215 24.0928 25.3885 24.1055 25.3569 24.1055Z" fill="#EEEEEE"/>
<path d="M54.6799 68.2148C54.6702 68.2148 54.6606 68.2138 54.651 68.2113C54.5824 68.1948 54.5398 68.1234 54.5562 68.0524L54.7623 67.1414L54.8722 65.0388L54.684 62.6771L54.2005 60.0962L53.4314 57.3413L52.3875 54.4588L51.0896 51.4957L49.5568 48.5002L47.8152 45.521L45.8923 42.6061L43.8197 39.8022L41.629 37.1547L39.3572 34.7069L37.0402 32.5L34.7148 30.5703L32.4197 28.9518L30.1947 27.6725L28.0781 26.757L26.1072 26.2216L25.3847 26.1654C25.3147 26.1597 25.2625 26.0961 25.268 26.0233C25.2735 25.9505 25.3353 25.8901 25.4053 25.9019L26.1484 25.9621L28.1592 26.507L30.3059 27.4346L32.5543 28.7268L34.8659 30.3577L37.2063 32.2995L39.5358 34.5179L41.8185 36.977L44.0175 39.6356L46.0997 42.4508L48.0294 45.378L49.7793 48.3698L51.3189 51.379L52.6238 54.3575L53.6731 57.2583L54.4478 60.0343L54.9367 62.6409L55.1262 65.0352L55.0136 67.1789L54.8049 68.1128C54.7911 68.1738 54.7376 68.2148 54.6799 68.2148Z" fill="#EEEEEE"/>
<path d="M54.5805 52.7612C54.538 52.7612 54.4967 52.7387 54.472 52.6983C54.4349 52.636 54.4542 52.5547 54.5146 52.5165L57.0693 50.8876L59.9358 49.5174L62.9011 48.5146L65.7607 47.9442L68.3305 47.8486L68.3443 47.8512L70.4416 48.2455L71.9043 49.0897L72.646 50.33C72.6831 50.392 72.6653 50.4736 72.6048 50.5121C72.5458 50.5508 72.4675 50.5312 72.4304 50.4695L71.723 49.2875L70.3358 48.4872L68.3127 48.1142L65.7896 48.2063L62.9643 48.7703L60.0278 49.7631L57.1888 51.1202L54.6478 52.7416C54.6272 52.7551 54.6039 52.7612 54.5805 52.7612Z" fill="#EEEEEE"/>
<path d="M54.5811 52.7612C54.533 52.7612 54.4863 52.7326 54.4657 52.6837L53.1801 49.7564L51.6693 46.8048C51.6363 46.7403 51.6596 46.6602 51.7214 46.6261C51.7833 46.5911 51.8602 46.6163 51.8945 46.6808L53.4095 49.6398L54.6978 52.5743C54.7266 52.6407 54.6978 52.7192 54.6346 52.7494C54.6168 52.7574 54.5989 52.7612 54.5811 52.7612Z" fill="#EEEEEE"/>
<path d="M50.3293 59.5684C50.2607 59.5684 50.203 59.5105 50.2016 59.4379L50.181 57.9657L48.7443 54.6777L47 51.2643L47.9848 49.9059L49.5794 48.3418L51.7028 46.638C51.7578 46.5934 51.8388 46.6037 51.8814 46.6618C51.924 46.7193 51.9143 46.8025 51.858 46.8471L49.7456 48.5426L48.1743 50.0816L47.3008 51.2888L48.9737 54.5611L50.4365 57.9345L50.4571 59.4343C50.4585 59.5071 50.4021 59.5672 50.3321 59.5684C50.3307 59.5684 50.3307 59.5684 50.3293 59.5684Z" fill="#EEEEEE"/>
<path d="M41.4553 24.6313C41.432 24.6313 41.4086 24.6249 41.3866 24.611C41.3276 24.5719 41.3097 24.4904 41.3468 24.4286L43.0238 21.6723L44.168 18.9528L41.4773 17.0068L38.7248 15.3722L38.8581 12.2445L38.3526 9.49611L37.2469 7.22598L35.6125 5.56131C35.5617 5.51018 35.5617 5.42654 35.6111 5.3744C35.6592 5.32226 35.7402 5.32141 35.7911 5.37283L37.464 7.08722L38.5998 9.42815L39.1135 12.2254L38.9858 15.2229L41.6133 16.7837L44.4852 18.8599L43.2491 21.7958L41.5625 24.5696C41.5391 24.6097 41.4979 24.6313 41.4553 24.6313Z" fill="#EEEEEE"/>
<path d="M28.6733 24.8315L26.5568 24.6549L28.8738 22.3219L30.4932 19.5364L32.357 19.7073L33.3789 16.7023L33.7497 13.5523L31.7101 13.3437L29.6773 13.6203L28.9535 10.2411L27.6006 7.35708L25.7642 8.16682L24.2067 9.57919L23.0475 11.5423L22.3113 14.0461C22.2907 14.116 22.2193 14.1556 22.152 14.1341C22.0847 14.1127 22.0476 14.0388 22.0682 13.9691L22.8222 11.4185L24.024 9.39327L25.6461 7.93192L27.7242 7.01517L29.1993 10.1684L29.8751 13.3264L31.706 13.0778L31.7211 13.079L34.034 13.3158L33.6247 16.7766L32.6097 19.7598L34.545 20.3061L36.7783 21.2962L39.1187 22.6667L41.5278 24.3909C41.5855 24.4322 41.5992 24.5146 41.5594 24.5748C41.5195 24.6349 41.4399 24.6502 41.3822 24.6083L38.9827 22.8906L36.6656 21.533L34.4612 20.5554L32.5012 20.0012L30.8654 22.6579L28.6733 24.8315ZM27.1377 24.4379L28.5799 24.5583L30.6786 22.4779L32.2251 19.9589L30.6292 19.8142L29.0634 22.4996L27.1377 24.4379Z" fill="#EEEEEE"/>
<path d="M22.1925 14.1396C22.1664 14.1396 22.1389 14.1308 22.1156 14.1126L19.5993 12.1148L16.6285 10.7261C16.5639 10.6961 16.5351 10.6176 16.5639 10.5512C16.5941 10.4847 16.6683 10.4548 16.7329 10.485L19.7422 11.8956L22.2708 13.9023C22.3257 13.9468 22.3367 14.03 22.2941 14.0878C22.2694 14.1218 22.2309 14.1396 22.1925 14.1396Z" fill="#EEEEEE"/>
<path d="M25.3083 24.6396C25.2451 24.6396 25.1901 24.5906 25.1819 24.5235L24.866 21.8464L23.7191 19.3273L21.8196 17.115L19.2841 15.3711L16.1855 14.1747L16.5509 10.5912C16.5578 10.5184 16.621 10.465 16.691 10.4737C16.761 10.4816 16.8119 10.5466 16.8036 10.6192L16.4602 13.9986L19.4132 15.1423L21.9995 16.9265L23.9416 19.1972L25.116 21.7931L25.436 24.4915C25.4442 24.5637 25.3948 24.63 25.3247 24.6387C25.3193 24.6395 25.3138 24.6396 25.3083 24.6396Z" fill="#EEEEEE"/>
<path d="M27.9214 35.1655C27.8802 35.1655 27.8417 35.146 27.817 35.109L26.9366 33.8049L25.276 32.8745L23.7144 28.4587L22.6238 24.3764L20.1831 23.2494L17.134 22.6328L16.3854 18.1034L16.2014 14.2026L13.0465 13.7402L9.77756 13.9713L6.71607 14.9015L4.0721 16.4542L2.03521 18.5251L0.733141 20.9596L0.25242 23.6145C0.240059 23.6863 0.172764 23.7341 0.104089 23.7202C0.0340415 23.7066 -0.0112823 23.6377 0.0024526 23.5661L0.499655 20.8502L1.84292 18.3494L3.932 16.2327L6.62954 14.652L9.74598 13.7084L13.0561 13.4748L13.0698 13.4765L16.4459 13.9713L16.6395 18.0746L17.3565 22.4081L20.2738 23.0018L22.8367 24.1855L23.9561 28.378L25.482 32.6897L27.111 33.602L28.0258 34.9574C28.0656 35.0174 28.0518 35.0997 27.9941 35.1417C27.9722 35.1578 27.9461 35.1655 27.9214 35.1655Z" fill="#EEEEEE"/>
<path d="M2.51984 39.667C2.45804 39.667 2.4031 39.619 2.39348 39.5526L2.13527 37.5919L2.71626 35.5105L1.37985 30.2509L0.628554 25.3421C0.617566 25.27 0.664259 25.2023 0.734307 25.1908C0.804355 25.1801 0.868908 25.2287 0.879896 25.3008L1.62845 30.1963L2.98133 35.5137L2.39623 37.6116L2.64621 39.517C2.65582 39.5894 2.60775 39.6559 2.5377 39.6657C2.5322 39.6668 2.52534 39.667 2.51984 39.667Z" fill="#EEEEEE"/>
<path d="M0.97729 32.6553C0.908615 32.6553 0.852305 32.5989 0.850931 32.5272L0.627052 25.3261C0.624305 25.2533 0.679246 25.192 0.749294 25.1897C0.809728 25.183 0.878397 25.2444 0.881144 25.3178L1.10502 32.5189C1.10777 32.5917 1.05146 32.6529 0.981414 32.6553C0.980041 32.6553 0.978663 32.6553 0.97729 32.6553Z" fill="#EEEEEE"/>
<path d="M31.5177 42.7915C31.4833 42.7915 31.4504 42.7776 31.4243 42.7502L30.8982 42.1745L29.5948 42.0248L27.2241 37.3676L25.2903 32.8993L23.0735 32.4735L20.2139 32.5437L18.3953 27.3705L17.1482 22.6526L14.0029 22.6577L10.7423 23.2631L7.6739 24.4314L5.02169 26.0657L2.95735 28.0626L1.62094 30.2687L1.10176 32.5531C1.08528 32.6238 1.01523 32.6688 0.947925 32.6511C0.879251 32.6343 0.836672 32.5634 0.853154 32.4921L1.39431 30.1468L2.77056 27.8808L4.88023 25.8456L7.56539 24.1935L10.6763 23.0088L13.9796 22.3955L17.3433 22.3876L18.6385 27.2904L20.391 32.2746L23.0941 32.2085L23.1078 32.211L25.4675 32.6644L27.4535 37.2516L29.7569 41.7773L31.0191 41.9225L31.6097 42.5684C31.6578 42.6213 31.6564 42.7049 31.6056 42.7553C31.5808 42.7793 31.5493 42.7915 31.5177 42.7915Z" fill="#EEEEEE"/>
<path d="M1.30305 34.8682C1.24124 34.8682 1.18631 34.8214 1.17669 34.7558L0.851175 32.5425C0.840187 32.4704 0.888254 32.403 0.956928 32.3919C1.02835 32.3807 1.09153 32.4304 1.10252 32.5027L1.42941 34.716C1.43902 34.7881 1.39233 34.8555 1.32228 34.8666C1.31541 34.8676 1.30854 34.8682 1.30305 34.8682Z" fill="#EEEEEE"/>
<path d="M4.10677 43.1011C4.05458 43.1011 4.00513 43.0673 3.98728 43.0133L2.14405 37.6461L0.85434 32.5561C0.835111 32.4856 0.87632 32.4133 0.944995 32.3947C1.0123 32.3759 1.08234 32.4182 1.1002 32.489L2.38853 37.5682L4.22764 42.9244C4.25099 42.9934 4.21664 43.0687 4.14934 43.0934C4.1356 43.0988 4.12188 43.1011 4.10677 43.1011Z" fill="#EEEEEE"/>
<path d="M35.309 51.0928C35.2691 51.0928 35.2293 51.0725 35.2046 51.0354L32.2433 46.5565L29.6103 42.0465L27.763 42.367L25.2303 43.1887L22.4613 37.7389L20.2253 32.5582L17.2421 33.1211L14.094 34.1668L11.0834 35.6114L8.42428 37.3477L6.31598 39.2457L4.8848 41.176L4.22554 43.0152C4.20081 43.0839 4.12801 43.1185 4.06208 43.0931C3.99616 43.0676 3.96183 42.9917 3.98655 42.9232L4.67055 41.0306L6.14017 39.0546L8.27183 37.136L10.9625 35.3794L14.0006 33.9208L17.1803 32.865L20.3764 32.2608L22.6907 37.6232L25.3567 42.8706L27.7039 42.1103L29.7395 41.7563L32.4576 46.4132L35.4147 50.8856C35.4545 50.946 35.4394 51.0281 35.3818 51.0694C35.3598 51.0852 35.3337 51.0928 35.309 51.0928Z" fill="#EEEEEE"/>
<path d="M35.3087 51.0928C35.2702 51.0928 35.2318 51.0744 35.2071 51.0395C35.1645 50.9811 35.1769 50.8983 35.2332 50.8546L36.0367 50.2317L36.1397 50.1336C36.1919 50.0849 36.2715 50.0884 36.3196 50.1427C36.3663 50.1967 36.3635 50.2803 36.3114 50.3293L36.1987 50.4355L35.3856 51.0664C35.3623 51.0842 35.3362 51.0928 35.3087 51.0928Z" fill="#EEEEEE"/>
<path d="M4.25854 44.7358C4.19398 44.7358 4.13904 44.6847 4.13217 44.6163L3.98109 42.9817C3.97422 42.9089 4.02504 42.8442 4.09508 42.8374C4.16513 42.8334 4.22831 42.8836 4.23518 42.9563L4.38626 44.591C4.39313 44.6638 4.34094 44.7284 4.27089 44.7354C4.26677 44.7355 4.26266 44.7358 4.25854 44.7358Z" fill="#EEEEEE"/>
<path d="M9.31584 54.293C9.27052 54.293 9.2252 54.2672 9.20322 54.2219L6.35873 48.5852L3.99084 43.0226C3.96337 42.9558 3.99221 42.8777 4.05676 42.8483C4.12132 42.8188 4.19686 42.8491 4.22433 42.9157L6.5881 48.4706L9.42848 54.0995C9.46144 54.1641 9.43672 54.2441 9.37491 54.278C9.35568 54.288 9.33644 54.293 9.31584 54.293Z" fill="#EEEEEE"/>
<path d="M9.31314 54.293C9.28842 54.293 9.26371 54.2854 9.24173 54.2702C9.18405 54.2291 9.16757 54.1468 9.2074 54.0864L10.1043 52.7169L11.7236 51.0527L13.9281 49.2386L16.5762 47.3931L19.4797 45.6437L22.4382 44.1141L25.3445 42.864L28.5159 48.2958L31.9606 53.5046C32.0004 53.565 31.9853 53.647 31.9276 53.6884C31.87 53.73 31.7903 53.7146 31.7505 53.6543L28.3016 48.4391L25.2401 43.1951L22.5426 44.3546L19.6006 45.8764L16.7108 47.6174L14.0778 49.4518L11.8926 51.2501L10.2993 52.8853L9.4189 54.2351C9.39418 54.2726 9.35435 54.293 9.31314 54.293Z" fill="#EEEEEE"/>
<path d="M41.8606 59.4146C41.8249 59.4146 41.7891 59.399 41.7644 59.3688L38.4049 55.3407L35.2857 51.1436L31.933 53.6865C31.8767 53.7294 31.797 53.7161 31.7558 53.6575C31.7132 53.5984 31.7256 53.5158 31.7833 53.4726L35.3351 50.7774L38.6013 55.1733L41.9567 59.1959C42.0034 59.2512 41.9965 59.3345 41.9444 59.3823C41.9196 59.404 41.8894 59.4146 41.8606 59.4146Z" fill="#EEEEEE"/>
<path d="M41.8607 59.4146C41.8524 59.4146 41.8442 59.4138 41.8359 59.4123C41.7673 59.3983 41.7219 59.3291 41.7357 59.2573L41.9733 57.9767L41.5901 57.2555C41.5558 57.1915 41.5791 57.1111 41.6409 57.0758C41.7027 57.0409 41.7796 57.0639 41.814 57.1279L42.2411 57.9328L41.9856 59.3074C41.9733 59.3707 41.9211 59.4146 41.8607 59.4146Z" fill="#EEEEEE"/>
<path d="M9.17056 55.2983C9.16507 55.2983 9.1582 55.2979 9.15133 55.2971C9.08265 55.2862 9.03458 55.2191 9.04419 55.1469L9.18704 54.1416C9.19803 54.0695 9.2612 54.0209 9.33262 54.03C9.4013 54.0408 9.44937 54.1079 9.43976 54.1803L9.29691 55.1855C9.2873 55.2512 9.23237 55.2983 9.17056 55.2983Z" fill="#EEEEEE"/>
<path d="M16.2161 65.3813C16.1763 65.3813 16.1364 65.3614 16.1117 65.3239L12.4775 59.8468L9.20444 54.2292C9.16736 54.1666 9.18658 54.0853 9.24701 54.0477C9.30745 54.0097 9.38574 54.0299 9.42145 54.0923L12.6917 59.7035L16.3219 65.1742C16.3617 65.2343 16.3466 65.3165 16.2889 65.358C16.2669 65.3738 16.2422 65.3813 16.2161 65.3813Z" fill="#EEEEEE"/>
<path d="M16.2166 65.3813C16.1768 65.3813 16.1384 65.362 16.1136 65.3252C16.0724 65.2657 16.0862 65.1832 16.1439 65.1412L19.1422 62.9314L26.7087 57.2857L31.8813 53.3972L35.6749 58.4955L39.5866 63.1733C39.6333 63.2283 39.6278 63.3121 39.5742 63.3598C39.5206 63.4075 39.441 63.4019 39.3943 63.3464L35.4784 58.6628L31.8305 53.7617L24.1417 59.5327L17.4926 64.477L16.2908 65.357C16.2688 65.3735 16.2427 65.3813 16.2166 65.3813Z" fill="#EEEEEE"/>
<path d="M39.4924 63.3921C39.4663 63.3921 39.4415 63.3843 39.4196 63.3677C39.3619 63.3257 39.3481 63.2434 39.388 63.1837L40.8631 61.0168L41.7462 59.2221C41.7792 59.1573 41.8561 59.1315 41.9179 59.1646C41.9811 59.1978 42.0058 59.2774 41.9742 59.3425L41.0801 61.1532L39.5967 63.336C39.572 63.3727 39.5322 63.3921 39.4924 63.3921Z" fill="#EEEEEE"/>
<path d="M48.832 66.3867C48.8018 66.3867 48.7716 66.3753 48.7468 66.3527L45.2403 63.0695L41.7681 59.3744C41.7201 59.3222 41.7201 59.2386 41.7709 59.1874C41.8217 59.1369 41.9027 59.1379 41.9508 59.19L45.4175 62.8792L48.9172 66.1564C48.9693 66.2052 48.9735 66.2888 48.9268 66.3431C48.902 66.372 48.8677 66.3867 48.832 66.3867Z" fill="#EEEEEE"/>
<path d="M48.831 66.3867C48.7705 66.3867 48.717 66.3423 48.706 66.2787L48.3681 64.3981L47.4341 63.1134C47.3915 63.055 47.4025 62.9721 47.4589 62.9282C47.5152 62.8849 47.5948 62.8961 47.6374 62.9543L48.6071 64.2885L48.9573 66.2303C48.9697 66.302 48.9244 66.3709 48.8543 66.3845C48.8461 66.386 48.8392 66.3867 48.831 66.3867Z" fill="#EEEEEE"/>
<path d="M24.2489 75.5381L20.0515 70.5753L16.1934 65.4279L15.758 65.7358C15.7003 65.7768 15.6206 65.7615 15.5808 65.7011C15.541 65.6407 15.5561 65.5587 15.6151 65.5174L16.247 65.0695L20.2479 70.4069L24.3354 75.2401L25.8119 74.8302L27.8076 73.8002L30.1412 72.2356L32.6437 70.2385L35.1352 67.9544L37.4399 65.5426L39.3971 63.1736C39.4424 63.118 39.5235 63.1116 39.5757 63.159C39.6292 63.2066 39.6361 63.29 39.5908 63.3455L37.6267 65.7216L35.311 68.1466L32.8057 70.4427L30.2881 72.4514L27.934 74.0297L25.9012 75.0767L24.2489 75.5381Z" fill="#EEEEEE"/>
<path d="M47.6151 71.4819C47.5849 71.4819 47.5547 71.4708 47.53 71.448L43.4452 67.6422L39.4016 63.3524C39.3522 63.3002 39.3536 63.2166 39.403 63.1655C39.4538 63.1149 39.5349 63.1152 39.5829 63.1676L43.6224 67.4514L47.7003 71.2513C47.7538 71.3002 47.7579 71.3838 47.7099 71.4381C47.6851 71.4671 47.6508 71.4819 47.6151 71.4819Z" fill="#EEEEEE"/>
<path d="M47.6131 71.4819C47.5994 71.4819 47.5857 71.4795 47.5719 71.4744C47.5046 71.4502 47.4703 71.3747 47.4936 71.3059L48.407 68.6153L48.7037 66.2376C48.7133 66.1651 48.7765 66.1134 48.8465 66.1235C48.9166 66.1331 48.966 66.1992 48.9564 66.2718L48.6515 68.6898L47.734 71.3936C47.7161 71.448 47.6667 71.4819 47.6131 71.4819Z" fill="#EEEEEE"/>
<path d="M55.7084 71.5166C55.685 71.5166 55.6603 71.5096 55.6397 71.4948L52.243 69.1858L48.7516 66.3591C48.6967 66.3142 48.6871 66.231 48.7297 66.1734C48.7736 66.1162 48.8533 66.1052 48.9082 66.1505L52.3914 68.971L55.7784 71.2738C55.8375 71.3139 55.8539 71.3956 55.8155 71.4569C55.7908 71.4957 55.7509 71.5166 55.7084 71.5166Z" fill="#EEEEEE"/>
<path d="M55.708 71.5166C55.6585 71.5166 55.6105 71.4855 55.5912 71.4344L54.6792 69.1245L53.2082 67.4365C53.1615 67.3825 53.1657 67.2989 53.2178 67.2497C53.2687 67.2009 53.3497 67.2051 53.3978 67.2593L54.9072 69.0029L55.8261 71.3342C55.8536 71.4019 55.822 71.4791 55.7574 71.5068C55.7409 71.5135 55.7245 71.5166 55.708 71.5166Z" fill="#EEEEEE"/>
<path d="M32.8641 83.958L28.4881 79.9615L24.2276 75.5116L23.2785 75.3244C23.2098 75.3108 23.1645 75.2415 23.1782 75.1697C23.1906 75.0982 23.2565 75.0504 23.3266 75.0647L24.3526 75.2674L24.38 75.2963L28.6626 79.7692L32.9561 83.6905L34.8076 83.6329L37.0271 82.8468L39.439 81.38L41.8494 79.3336L44.102 76.8509L46.029 74.1032L47.5027 71.2866C47.5357 71.2227 47.614 71.1989 47.6758 71.2335C47.7376 71.2684 47.7596 71.3486 47.7266 71.4127L46.2446 74.244L44.297 77.0193L42.0239 79.5265L39.5832 81.5964L37.1219 83.0928L34.835 83.8964L32.8641 83.958Z" fill="#EEEEEE"/>
<path d="M55.6164 77.4062C55.5917 77.4062 55.5684 77.3993 55.5464 77.3847L51.5976 74.7227L47.5348 71.4542C47.4799 71.4092 47.4703 71.3264 47.5129 71.2684C47.5568 71.2109 47.6365 71.2006 47.6914 71.2451L51.746 74.5073L55.6851 77.1632C55.7442 77.2029 55.762 77.2849 55.7236 77.346C55.6989 77.385 55.6577 77.4062 55.6164 77.4062Z" fill="#EEEEEE"/>
<path d="M55.6158 77.4062C55.6103 77.4062 55.6048 77.406 55.5993 77.4052C55.5293 77.3961 55.4799 77.33 55.4895 77.2575L55.8603 74.1886L55.5815 71.3979C55.5746 71.3253 55.6255 71.2603 55.6955 71.2528C55.7655 71.2432 55.8287 71.2979 55.8356 71.3706L56.1172 74.1918L55.7422 77.2906C55.734 77.3574 55.679 77.4062 55.6158 77.4062Z" fill="#EEEEEE"/>
<path d="M62.0013 74.4673C61.9862 74.4673 61.971 74.4646 61.9559 74.4587L58.9136 73.27L55.6502 71.5011C55.5884 71.4673 55.5637 71.3873 55.5967 71.3227C55.6296 71.2582 55.7066 71.2331 55.7697 71.2668L59.0167 73.0291L62.0466 74.2113C62.1125 74.2369 62.1455 74.3133 62.1208 74.3815C62.1015 74.4347 62.0535 74.4673 62.0013 74.4673Z" fill="#EEEEEE"/>
<path d="M62.0023 74.4673C61.9584 74.4673 61.9158 74.4438 61.8924 74.4016L60.4626 71.8568L58.5246 69.9585L56.1787 68.8153C56.1156 68.7844 56.0881 68.7056 56.1169 68.6395C56.1471 68.5735 56.2241 68.5455 56.2872 68.5762L58.684 69.7517L60.6742 71.707L62.1122 74.2684C62.1479 74.3317 62.1273 74.4124 62.0669 74.4492C62.0463 74.4616 62.0243 74.4673 62.0023 74.4673Z" fill="#EEEEEE"/>
<path d="M43.7123 90.292L41.3856 90.081L37.1539 87.3184L32.8439 83.9387L31.3921 83.2776C31.3276 83.2482 31.2988 83.1702 31.3276 83.1033C31.3551 83.0364 31.4306 83.0067 31.4952 83.0354L32.9868 83.7184L37.2981 87.1013L41.4694 89.8233L43.6931 90.025L46.1242 89.4146L48.5896 88.0324L50.9204 85.9516L52.9326 83.3373L54.4929 80.3599L55.4955 77.2319C55.5175 77.1629 55.5889 77.125 55.6562 77.1482C55.7235 77.1714 55.7592 77.2461 55.7372 77.3155L54.7263 80.4649L53.1441 83.4832L51.1031 86.1344L48.7228 88.2582L46.2011 89.6676L43.7123 90.292Z" fill="#EEEEEE"/>
<path d="M66.136 81.4482L62.8945 80.7774L59.3441 79.4199L55.5574 77.3914C55.4956 77.3579 55.4708 77.2781 55.5024 77.2133C55.5354 77.1485 55.6123 77.1225 55.6741 77.1564L59.4471 79.1784L62.9632 80.5238L66.1607 81.1838L69.0052 81.1647L71.4472 80.4799L73.4553 79.1513L75.0087 77.2093L76.091 74.6854L76.6885 71.615L76.7874 68.1071L75.793 65.7903L74.0637 63.7518L71.7096 62.1481L68.8953 61.0896L65.8105 60.661L62.6761 60.8866L59.7122 61.7585L57.1245 63.2063L55.0959 65.1307L53.7457 67.4074C53.7086 67.4694 53.6304 67.4891 53.5699 67.4507C53.5109 67.4125 53.4916 67.3312 53.5287 67.2689L54.9105 64.9482L56.9899 62.9812L59.6298 61.5079L62.6459 60.6238L65.8187 60.3956L68.9681 60.8363L71.8373 61.9186L74.245 63.5638L76.0182 65.6642L77.0442 68.0544L77.0428 68.0846L76.9412 71.6449L76.3286 74.7796L75.2161 77.3643L73.6091 79.3633L71.5324 80.7298L69.0244 81.4291L66.136 81.4482Z" fill="#EEEEEE"/>
<path d="M53.6386 67.4702C53.5727 67.4702 53.5163 67.4178 53.5109 67.3486L53.3145 64.8143L54.725 62.5674L56.7221 60.7076L56.2537 58.2267C56.24 58.1552 56.2853 58.0857 56.354 58.0717C56.424 58.0564 56.4913 58.1041 56.5037 58.1762L57.0009 60.8042L54.9077 62.7524L53.5754 64.8824L53.7663 67.3275C53.7718 67.4002 53.7196 67.4639 53.6482 67.4696C53.6455 67.4699 53.6413 67.4702 53.6386 67.4702Z" fill="#EEEEEE"/>
<path d="M52.8881 67.1953C52.8648 67.1953 52.84 67.1883 52.8181 67.1737L52.7288 67.1121L52.1973 64.2455L52.8359 62.0593L54.2396 59.9704L56.2944 58.1013C56.3466 58.0533 56.4276 58.0587 56.4743 58.1136C56.521 58.1685 56.5155 58.2522 56.4633 58.3002L54.4196 60.1587L53.0571 62.1928L52.4596 64.2595L52.9582 66.9526C53.0172 66.9926 53.0337 67.0745 52.9953 67.1356C52.9705 67.1744 52.9293 67.1953 52.8881 67.1953Z" fill="#EEEEEE"/>
<path d="M52.8866 67.1953C52.8756 67.1953 52.866 67.194 52.855 67.1909C52.7864 67.1725 52.7452 67.1006 52.763 67.0298L53.3124 64.8433L52.8138 62.1597L51.9938 59.2169L53.4676 57.2032L55.5292 55.3764L58.1237 53.7803L61.0451 52.5406L64.0957 51.7465L66.8962 51.464L65.6642 48.1203L64.119 44.6299L61.5066 45.4409L58.5578 46.6931L56.889 43.4424L55.0622 40.3194L53.0487 37.2616L50.8799 34.3181C50.8374 34.2599 50.847 34.177 50.9033 34.1326C50.9596 34.0884 51.0393 34.0995 51.0818 34.1574L53.2547 37.1066L55.2765 40.1761L57.1101 43.3115L58.6745 46.3579L61.4215 45.1917L64.2577 44.3106L65.899 48.0179L67.2533 51.6938L64.1382 52.0065L61.1248 52.7913L58.2364 54.0164L55.6776 55.5905L53.6434 57.3948L52.2754 59.2706L53.0611 62.0981L53.5734 64.8521L53.0102 67.0964C52.9951 67.1559 52.9429 67.1953 52.8866 67.1953Z" fill="#EEEEEE"/>
<path d="M39.981 41.8545C39.9219 41.8545 39.8683 41.8106 39.856 41.7476C39.8422 41.6758 39.8876 41.6063 39.9562 41.5924L40.7048 41.4416L42.0302 40.7699L43.8528 39.6084L46.0449 38.0402L48.4513 36.1709L50.9029 34.1349C50.9579 34.0898 51.0389 34.0988 51.0829 34.1556C51.1268 34.2126 51.1172 34.2958 51.0623 34.3415L48.6079 36.38L46.1932 38.2548L43.9916 39.8297L42.1525 41.0013L40.7693 41.6981L40.0057 41.8522C39.9975 41.8538 39.9892 41.8545 39.981 41.8545Z" fill="#EEEEEE"/>
<path d="M44.811 48.7603C44.789 48.7603 44.7657 48.754 44.7451 48.7409C44.6846 48.7029 44.6654 48.6215 44.7025 48.5593L45.12 47.8562L46.1776 46.7749L47.8437 45.3503L49.9863 43.6935L52.4654 41.9154L55.1053 40.1404L57.7218 38.4934L60.0141 37.1578L57.7561 33.7266L55.1781 30.2206L56.8579 28.4527L57.9141 27.1437L58.3151 26.3752L58.1654 26.0966C58.1311 26.0328 58.1531 25.9522 58.2135 25.9166C58.2753 25.8812 58.3536 25.9038 58.3879 25.9674L58.6063 26.3734L58.1242 27.2919L57.046 28.6303L55.516 30.2428L57.9622 33.5719L60.3809 37.2471L57.8509 38.7216L55.2413 40.3646L52.6069 42.1352L50.1346 43.9083L48.0002 45.5585L46.3479 46.9712L45.3096 48.033L44.9209 48.6967C44.8962 48.7378 44.8549 48.7603 44.811 48.7603Z" fill="#EEEEEE"/>
<path d="M51.6171 19.9648C51.5498 19.9648 51.4935 19.9093 51.4907 19.8383L51.4317 18.432L50.7999 17.5756C50.7573 17.5178 50.7669 17.4346 50.8232 17.3904C50.8795 17.3458 50.9592 17.357 51.0018 17.4151L51.683 18.3375L51.7448 19.827C51.7476 19.8998 51.694 19.9614 51.6226 19.9648C51.6212 19.9648 51.6198 19.9648 51.6171 19.9648Z" fill="#EEEEEE"/>
<path d="M51.6169 19.9648C51.5867 19.9648 51.5551 19.953 51.5303 19.9292L48.2106 16.7049L44.884 13.8739C44.8305 13.8273 44.8222 13.7443 44.8662 13.6877C44.9115 13.6314 44.9912 13.6229 45.0461 13.6693L48.3782 16.506L51.7048 19.7361C51.7556 19.7861 51.7583 19.8698 51.7103 19.923C51.6856 19.9509 51.6512 19.9648 51.6169 19.9648Z" fill="#EEEEEE"/>
<path d="M50.9804 34.3706C50.9447 34.3706 50.909 34.3548 50.8843 34.3242L48.5906 31.537L46.1375 28.8764L48.2197 26.3442L49.7731 24.0178L47.0509 21.384L44.1816 18.9566L44.8189 16.1716L44.8354 13.7708C44.8368 13.6982 44.8931 13.6396 44.9632 13.6396H44.9645C45.0346 13.6401 45.0909 13.6997 45.0909 13.7728L45.0703 16.218L44.4673 18.8564L47.2184 21.1849L50.1082 23.9803L48.4216 26.5053L46.4809 28.8661L48.7801 31.3598L51.0779 34.1527C51.1233 34.2082 51.1178 34.2916 51.0642 34.3388C51.0395 34.3604 51.0106 34.3706 50.9804 34.3706Z" fill="#EEEEEE"/>
<path d="M50.982 34.3706C50.9463 34.3706 50.9106 34.3548 50.8859 34.3243C50.8406 34.2689 50.8461 34.1854 50.8996 34.138L53.2263 32.0747L55.1684 30.2206L52.5959 27.0827L49.7871 24.0219L50.9518 21.6883L51.4944 19.7948C51.515 19.7249 51.5864 19.6861 51.6537 19.7061C51.721 19.727 51.7594 19.8008 51.7388 19.8708L51.1867 21.7869L50.0975 23.9759L52.7854 26.9058L55.5214 30.2428L53.3953 32.2724L51.0658 34.3388C51.0411 34.3604 51.0123 34.3706 50.982 34.3706Z" fill="#EEEEEE"/>
<path d="M64.1196 44.6167L62.2036 40.8899L60.0142 37.1484L62.1692 36.0217L63.5565 35.4266L60.8795 31.3554L57.9073 27.3083L54.773 23.4776L51.5233 19.9234C51.4753 19.8704 51.4766 19.7868 51.5275 19.7364C51.5796 19.6868 51.6607 19.6889 51.7087 19.7416L54.9625 23.301L58.1065 27.1428L61.0856 31.201L63.8202 35.3583L64.8984 35.4212C64.9684 35.4254 65.022 35.4876 65.0179 35.5607C65.0137 35.6337 64.9561 35.6881 64.8833 35.6852L63.9836 35.6328L66.3707 39.7109L68.6988 44.2293L66.5781 44.1886L64.1196 44.6167ZM60.3755 37.2558L62.4247 40.759L64.2583 44.3245L66.5589 43.9259L68.2689 43.957L66.1496 39.8418L63.6979 35.6522L62.2764 36.2619L60.3755 37.2558Z" fill="#EEEEEE"/>
<path d="M48.7651 55.981C48.7609 55.981 48.7568 55.9807 48.7541 55.9804C48.684 55.9746 48.6318 55.9107 48.6373 55.8379L48.7513 54.5574L49.5452 53.1176L47.9753 50.0473L46.1582 46.9374L44.1501 43.8951L41.9855 40.9694L39.6973 38.2072L37.3706 35.7044L35.7513 36.0184L34.5453 35.6975C34.478 35.6794 34.4368 35.6073 34.4547 35.5366C34.4712 35.4655 34.5412 35.4238 34.6099 35.4413L35.7595 35.7479L37.1399 35.4801L34.8997 33.3508L32.2832 31.1851L34.7404 30.3453L37.0698 28.9046L39.3251 26.8804L41.4402 24.3155L43.9688 26.4382L46.4974 28.8687L44.146 31.2455L41.7946 33.2151L39.5174 34.726L37.6439 35.5996L37.6893 35.6427L37.67 35.6463L39.8855 38.0293L42.1833 40.8026L44.3562 43.74L46.3724 46.7944L48.1964 49.9168L49.8364 53.1223L48.9876 54.6629L48.8914 55.8596C48.8859 55.9288 48.8296 55.981 48.7651 55.981ZM32.8106 31.2833L35.0659 33.15L37.4393 35.4051L39.3965 34.4941L41.6463 33.001L43.9771 31.048L46.128 28.8734L43.8013 26.6382L41.4732 24.6828L39.505 27.0663L37.2181 29.1182L34.8338 30.5919L32.8106 31.2833Z" fill="#EEEEEE"/>
<path d="M54.4324 68.0957C54.4104 68.0957 54.3871 68.0899 54.3679 68.0772C54.3061 68.04 54.2868 67.9589 54.3225 67.8961L54.7978 67.075L56.8855 65.0714L59.5322 63.6301L62.5525 62.8427L65.7294 62.7696L68.7071 63.3771L68.7991 60.9558L68.5176 57.8982L71.5337 58.7673L73.9099 60.1303L75.6556 61.9509L76.6417 64.0508C76.672 64.1165 76.6459 64.1954 76.5827 64.2275C76.5195 64.2598 76.4426 64.2321 76.4124 64.1665L75.4358 62.0864L73.7437 60.3304L71.4239 59.0065L68.806 58.2555L69.0532 60.9484L68.9502 63.6962L65.7074 63.0346L62.5731 63.107L59.6091 63.8827L57.0187 65.297L54.9859 67.2558L54.5423 68.031C54.5176 68.0726 54.4764 68.0957 54.4324 68.0957Z" fill="#EEEEEE"/>
<path d="M70.351 45.6089C70.3097 45.6089 70.2699 45.5885 70.2452 45.5508L69.6834 44.6903L68.4418 44.2177C68.3745 44.1925 68.3415 44.1166 68.3649 44.0481C68.3896 43.9794 68.4638 43.9448 68.5283 43.9693L69.8496 44.4713L70.4567 45.4026C70.4965 45.463 70.4801 45.5453 70.4224 45.5861C70.4004 45.6016 70.3757 45.6089 70.351 45.6089Z" fill="#EEEEEE"/>
<path d="M74.316 55.3271C74.2721 55.3271 74.2282 55.3033 74.2048 55.2608L73.3793 53.7662L71.8108 52.5991L70.2601 48.4075L68.3688 44.1482C68.34 44.0818 68.3675 44.0033 68.432 43.9728C68.4952 43.9423 68.5707 43.9714 68.601 44.0376L70.495 48.3051L72.0223 52.4303L73.5867 53.6096L74.4259 55.1291C74.4616 55.1927 74.4397 55.2734 74.3792 55.3096C74.3586 55.3214 74.338 55.3271 74.316 55.3271Z" fill="#EEEEEE"/>
<path d="M77.0135 74.4775C76.9476 74.4775 76.8927 74.4247 76.8872 74.3554L76.6907 71.6713L75.6936 69.106L73.9259 66.7607L74.0248 63.6465L73.6952 60.2362L72.948 56.5171L71.8162 52.6201L69.7093 51.9312L67.2535 51.7267L68.1655 54.8939L68.822 58.2191L65.5737 58.0007L62.4587 58.4005L59.5084 59.3827L56.9977 60.8299L57.1803 63.0863L57.0746 65.1946L56.657 67.0469L55.9607 68.5283C55.9305 68.5942 55.8535 68.6217 55.7904 68.5893C55.7272 68.5573 55.7011 68.4783 55.7313 68.4127L56.4222 66.9446L56.8232 65.1576L56.9262 63.0905L56.7298 60.6817L59.4081 59.141L62.4051 58.1432L65.5655 57.7376L68.5061 57.9331L67.9183 54.9582L66.9033 51.4323L69.7725 51.6744L72.0223 52.41L73.1952 56.452L73.9479 60.1962L74.2789 63.6377L74.1828 66.6735L75.9243 68.9898L76.9435 71.6307L77.1413 74.3352C77.1467 74.4082 77.0946 74.4717 77.0245 74.4772C77.0204 74.4775 77.0176 74.4775 77.0135 74.4775Z" fill="#EEEEEE"/>
<path d="M55.8428 68.6025C55.7961 68.6025 55.7522 68.5762 55.7288 68.5303C55.6972 68.4655 55.7219 68.3857 55.7851 68.3527L58.4304 66.9594L61.3258 66.3404L62.018 64.842L62.4301 62.9451L62.5262 60.7492L62.3133 58.2809L61.7914 55.5824L60.9714 52.7009L59.8685 49.6838L58.5554 46.7072L55.8854 48.1417L53.3637 49.8124L51.2828 51.5436L49.8393 53.1458L51.1606 56.1681L52.2704 59.2431L51.5987 61.1821L51.7141 62.9222C51.7196 62.995 51.666 63.0581 51.596 63.0632C51.5232 63.0718 51.4655 63.0131 51.46 62.9403L51.3419 61.1451L51.9998 59.2452L50.9257 56.2691L49.5371 53.0941L51.1098 51.35L53.2153 49.5979L55.7576 47.9129L58.6763 46.3447L60.1034 49.5818L61.2131 52.6164L62.0386 55.5189L62.5647 58.243L62.7803 60.7435L62.6814 62.9803L62.2543 64.9426L61.5016 66.5729L58.4991 67.2148L55.9005 68.5882C55.8813 68.598 55.862 68.6025 55.8428 68.6025Z" fill="#EEEEEE"/>
<path d="M47.8952 92.4473C47.876 92.4473 47.8568 92.4428 47.8389 92.4336L43.6498 90.2776L39.2876 87.4254L37.171 87.3262L35.4693 86.472C35.4061 86.4403 35.3786 86.361 35.4102 86.2954C35.4405 86.2298 35.516 86.2022 35.5805 86.234L37.2576 87.0762L38.9277 87.1457L34.7578 83.8698L30.0742 79.587L32.3995 78.5956L34.7661 77.0849L37.2232 75.0607L39.6804 72.5839L44.283 76.8429L48.8608 80.4946L46.6275 83.1728L44.2294 85.2648L41.7242 86.723L39.6351 87.3409L43.7748 90.0472L47.9516 92.1965C48.0147 92.229 48.0408 92.3084 48.0092 92.3739C47.9873 92.4205 47.9419 92.4473 47.8952 92.4473ZM30.5495 79.6699L34.9185 83.6652L39.3535 87.1496L41.639 86.473L44.0852 85.0484L46.449 82.9851L48.4913 80.5334L44.1209 77.0465L39.6886 72.9449L37.3908 75.259L34.9117 77.3011L32.5149 78.8307L30.5495 79.6699Z" fill="#EEEEEE"/>
<path d="M47.8914 92.4473C47.8872 92.4473 47.8817 92.447 47.8763 92.4464L45.4383 92.1518C45.3683 92.1434 45.3188 92.0777 45.3271 92.0052C45.3353 91.9329 45.3957 91.8841 45.4685 91.889L47.9065 92.1836C47.9765 92.1921 48.026 92.2578 48.0177 92.3303C48.0109 92.3977 47.9559 92.4473 47.8914 92.4473Z" fill="#EEEEEE"/>
<path d="M28.558 79.9971L27.304 79.5405C27.238 79.5163 27.2023 79.4408 27.2257 79.372C27.249 79.3031 27.3218 79.2665 27.3891 79.291L28.5854 79.727L30.0358 79.5315L25.7519 75.0514L21.4831 70.0005L20.1577 70.6196L19.4037 70.7009C19.3309 70.7084 19.2704 70.6557 19.2636 70.5831C19.2567 70.5106 19.3075 70.4454 19.3776 70.4381L20.111 70.3587L21.3183 69.7891L17.3187 64.4501L13.4551 58.6259L15.2392 57.0625L17.4739 55.3128L20.0918 53.4253L23.0118 51.4615L26.8892 57.3176L31.0687 62.9204L28.3588 65.1682L25.8069 67.1386L23.4967 68.7694L21.7139 69.8725L25.9373 74.8712L30.5797 79.7247L28.558 79.9971ZM13.7957 58.6734L17.5234 64.2941L21.5491 69.6675L23.3593 68.5465L25.6585 66.9232L28.2036 64.9588L30.713 62.8765L26.6832 57.4733L22.9418 51.8235L20.2346 53.6448L17.6236 55.5269L15.3986 57.269L13.7957 58.6734Z" fill="#EEEEEE"/>
<path d="M12.2583 60.5918C12.239 60.5918 12.2198 60.5874 12.202 60.5781C12.1388 60.5458 12.1127 60.4663 12.1443 60.4011L12.4945 59.6799L13.4683 58.631L10.1046 52.8596L7.24642 47.1987L6.59951 48.5537L6.61737 49.8447C6.61874 49.9177 6.56242 49.9776 6.49237 49.9787C6.43057 49.9784 6.36326 49.9213 6.36326 49.8482L6.34403 48.4938L7.1022 46.9035L4.6574 41.1643L2.70703 35.4928L4.16019 33.311L6.26712 31.3401L8.96878 29.6278L12.1759 28.257L14.177 33.9955L16.718 39.9124L13.6441 41.5667L10.9947 43.3524L8.84516 45.2063L7.39612 46.9264L10.3258 52.7296L13.787 58.6682L12.6909 59.8486L12.3723 60.5182C12.3503 60.5647 12.305 60.5918 12.2583 60.5918ZM2.99135 35.5316L4.89363 41.0665L7.27801 46.6639L8.66798 45.0175L10.8436 43.1399L13.5164 41.3387L16.3884 39.7926L13.9408 34.0941L12.0262 28.6066L9.08415 29.8627L6.41958 31.5511L4.34149 33.4969L2.99135 35.5316Z" fill="#EEEEEE"/>
<path d="M75.6512 59.9214C75.6059 59.9214 75.562 59.8957 75.5386 59.8509L74.6225 58.0556L73.0004 56.6035L70.7493 55.5814L68.016 55.0619L65.0122 55.1006L61.9383 55.6867L59.0142 56.7864L56.4403 58.3161C56.3798 58.3526 56.3015 58.3308 56.2672 58.2671C56.2315 58.2039 56.2535 58.1229 56.3139 58.0868L58.9071 56.5475L61.8724 55.4324L64.9875 54.8382L68.038 54.7995L70.8386 55.333L73.1515 56.3902L74.8368 57.91L75.7639 59.7274C75.7968 59.7917 75.7735 59.8717 75.7117 59.9061C75.6925 59.9164 75.6718 59.9214 75.6512 59.9214Z" fill="#EEEEEE"/>
<path d="M56.3787 58.334C56.3238 58.334 56.273 58.2965 56.2565 58.2388L55.4928 55.515L54.4613 52.6756C54.4366 52.6075 54.4696 52.531 54.5355 52.5055C54.6014 52.4788 54.6756 52.514 54.7003 52.5827L55.7346 55.4315L56.501 58.1649C56.5216 58.2348 56.4817 58.3085 56.4144 58.3289C56.4034 58.3323 56.3911 58.334 56.3787 58.334Z" fill="#EEEEEE"/>
<path d="M52.5164 66.4106C52.4519 66.4106 52.3969 66.3595 52.39 66.2911L52.2019 64.2656L51.3489 61.2003L50.1719 57.9316L50.9493 56.1382L52.4079 54.3269L54.4997 52.5268C54.5533 52.4801 54.6343 52.4878 54.6797 52.544C54.7236 52.6003 54.7167 52.6838 54.6618 52.7302L52.5865 54.5134L51.1553 56.2933L50.4466 57.9405L51.5907 61.1175L52.4519 64.2162L52.6442 66.2659C52.651 66.3384 52.5988 66.4032 52.5288 66.4102C52.5246 66.4105 52.5205 66.4106 52.5164 66.4106Z" fill="#EEEEEE"/>
<path d="M39.6803 72.8965C39.6514 72.8965 39.6212 72.8862 39.5978 72.8653C39.5443 72.818 39.5374 72.7346 39.5827 72.6789L41.7089 70.0774L43.4244 67.4693L44.6124 65.0315L45.1962 62.9548L45.1495 61.3759L44.4929 60.3546C44.4545 60.2939 44.4696 60.2118 44.5287 60.1713C44.5863 60.1308 44.666 60.147 44.7045 60.208L45.4022 61.2923L45.4516 62.9886L44.8487 65.1283L43.6428 67.6035L41.9108 70.2376L39.7778 72.8497C39.753 72.8808 39.716 72.8965 39.6803 72.8965Z" fill="#EEEEEE"/>
<path d="M39.6812 72.8965C39.6482 72.8965 39.6153 72.8834 39.5905 72.857L35.1281 68.1468L30.7109 62.8851L33.2972 60.5834L35.4893 58.4794L37.2282 56.6329L38.4011 55.1696L38.8928 54.2531L38.7706 53.8623C38.7486 53.7931 38.7857 53.7186 38.853 53.6958C38.9189 53.6733 38.9917 53.711 39.0137 53.7809L39.1702 54.281L38.6112 55.3189L37.4177 56.8102L35.6665 58.6688L33.4675 60.781L31.0722 62.9125L35.3149 67.9674L39.7718 72.6717C39.8213 72.7238 39.8213 72.8074 39.7705 72.8586C39.7457 72.8839 39.7142 72.8965 39.6812 72.8965Z" fill="#EEEEEE"/>
<path d="M22.9342 51.8247L19.4359 45.8269L16.373 39.7853L19.5733 38.4446L22.54 37.5505L25.1867 37.1196L27.3788 37.1818L28.8952 37.7324L29.6616 38.7361C29.7041 38.7935 29.6959 38.8765 29.6396 38.922C29.5846 38.9676 29.505 38.9574 29.461 38.9003L28.7413 37.9565L27.3143 37.4382L25.2032 37.3824L22.595 37.8082L19.6557 38.6943L16.7302 39.9212L19.6584 45.697L23.0207 51.4616L25.7251 49.7663L28.3458 48.2492L30.5859 47.0894L32.3014 46.3596L33.4318 46.0983L33.8246 46.3796C33.8823 46.4209 33.8974 46.5032 33.8562 46.5635C33.8164 46.6233 33.7367 46.6388 33.679 46.5969L33.3782 46.3814L32.3769 46.6112L30.6917 47.3302L28.4652 48.4828L25.8529 49.9948L22.9342 51.8247Z" fill="#EEEEEE"/>
<path d="M26.6225 31.5083C26.58 31.5083 26.5387 31.4866 26.514 31.4466L25.5114 29.7963L23.7739 28.533L21.384 27.7329L18.5011 27.4571L15.3448 27.7418L12.0072 28.5911L10.5939 23.1676L9.80692 18.2615L9.62561 13.8459L10.0239 10.186L7.1547 10.9733L4.51348 12.4982C4.45168 12.5341 4.37476 12.5106 4.34042 12.4471C4.30609 12.3833 4.32806 12.3028 4.38987 12.2673L7.07504 10.7219L10.3192 9.83137L9.8797 13.8552L10.0596 18.2342L10.8425 23.1113L12.1885 28.273L15.3036 27.4818L18.5011 27.1939L21.45 27.4768L23.9044 28.3049L25.7133 29.6328L26.7297 31.3057C26.7681 31.3674 26.7503 31.449 26.6898 31.4879C26.6692 31.5019 26.6459 31.5083 26.6225 31.5083Z" fill="#EEEEEE"/>
<path d="M25.5003 23.2642C25.492 23.2642 25.4824 23.2633 25.4742 23.2614C25.4055 23.2468 25.3602 23.1768 25.3753 23.1053L25.9508 20.1934L25.6994 17.1142L26.6677 15.4365L25.709 12.3914L24.0059 9.57646L21.6806 7.23341L18.8993 5.52001L15.8515 4.56382L12.7502 4.42049L9.81227 5.10716L7.24798 6.55713L5.63276 9.12756L4.57241 12.4247C4.55043 12.4936 4.47902 12.5314 4.41172 12.5085C4.34442 12.4851 4.30872 12.4103 4.33069 12.3411L5.41025 8.9975L7.06942 6.35669L9.73947 4.8533L12.7282 4.15452L12.7447 4.15551L15.9092 4.30582L19.016 5.28453L21.8468 7.03311L24.2133 9.42246L25.9466 12.2938L26.9465 15.4691L25.9604 17.1768L26.209 20.2089L25.6252 23.1584C25.6129 23.221 25.5593 23.2642 25.5003 23.2642Z" fill="#EEEEEE"/>
<path d="M25.503 23.2642C25.4893 23.2642 25.4755 23.2617 25.4618 23.2572C25.3945 23.2334 25.3588 23.1582 25.3822 23.0892L26.8532 18.6156L26.6801 15.3967L28.0824 14.1025L29.7265 13.352C29.791 13.3229 29.8666 13.3531 29.8941 13.4199C29.9229 13.4866 29.894 13.5648 29.8295 13.5943L28.2047 14.3362L26.9411 15.5088L27.11 18.6522L27.1017 18.6766L25.6225 23.1745C25.6047 23.2295 25.5552 23.2642 25.503 23.2642Z" fill="#EEEEEE"/>
<path d="M25.2051 24.9351L25.1914 24.69L27.2777 22.5658L28.7776 19.8696L29.5852 16.7713L29.6497 13.4705C29.6511 13.3975 29.7074 13.352 29.7788 13.341C29.8489 13.3424 29.9052 13.403 29.9038 13.4757L29.8352 16.8247L29.0069 19.9868L27.4686 22.7417L25.6446 24.5997L26.8286 24.4155C26.9 24.4041 26.9632 24.4545 26.9742 24.5266C26.9838 24.5989 26.9357 24.666 26.8671 24.6769L25.2051 24.9351Z" fill="#EEEEEE"/>
<path d="M25.3561 25.5059C25.3108 25.5059 25.2668 25.4805 25.2435 25.4361C25.2105 25.3715 25.2338 25.2915 25.2956 25.2571L26.7873 24.4293C26.8491 24.3941 26.9274 24.4189 26.9603 24.4833C26.9933 24.5478 26.9699 24.6279 26.9081 24.6622L25.4165 25.4901C25.3973 25.5009 25.3767 25.5059 25.3561 25.5059Z" fill="#EEEEEE"/>
<path d="M32.5452 31.3667C32.5205 31.3667 32.4958 31.3593 32.4738 31.344L30.0647 29.6498L27.4523 28.1533L30.2075 27.4325L32.5974 26.0362L34.7936 23.95L36.6259 21.3398L37.9678 18.3749L38.7053 15.3741L36.2372 14.2567L33.7731 13.5366L33.4449 10.2079L32.4559 7.2511L30.8599 4.77043L28.7778 2.92826L26.3302 1.84641C26.2643 1.81775 26.234 1.74013 26.2629 1.67288C26.2904 1.60607 26.3645 1.57459 26.4291 1.60324L28.9288 2.71385L31.0632 4.60859L32.6922 7.14826L33.6976 10.1657L34.0094 13.3312L36.3223 14.0082L39.0061 15.2217L38.2067 18.4641L36.8442 21.474L34.9832 24.1257L32.7348 26.2592L30.2858 27.6846L28.1405 28.2456L30.1979 29.4245L32.6166 31.1251C32.6757 31.1661 32.6908 31.2482 32.651 31.3086C32.6263 31.3463 32.5864 31.3667 32.5452 31.3667Z" fill="#EEEEEE"/>
<path d="M30.5266 31.397L28.8894 30.6895C28.8234 30.6613 28.7932 30.5838 28.8207 30.5164C28.8481 30.4487 28.9223 30.4181 28.9869 30.4452L30.576 31.1321L32.5456 31.1026C32.6184 31.1036 32.6733 31.1601 32.6747 31.233C32.6761 31.3059 32.6197 31.3661 32.5497 31.3671L30.5266 31.397Z" fill="#EEEEEE"/>
<path d="M25.1498 24.8369C25.1045 24.8369 25.0592 24.8111 25.0372 24.766L23.8945 22.4933L21.9606 20.5168L21.7793 17.0218L22.065 13.9945C22.0719 13.922 22.1323 13.8718 22.2037 13.8758C22.2738 13.8829 22.326 13.9477 22.3191 14.0204L22.0334 17.0275L22.2106 20.4L24.1115 22.3525L25.2625 24.6436C25.2954 24.7084 25.2721 24.7882 25.2089 24.822C25.1897 24.8321 25.1704 24.8369 25.1498 24.8369Z" fill="#EEEEEE"/>
<path d="M25.1482 24.8369C25.0809 24.8369 25.0246 24.7825 25.0219 24.7123L24.8625 21.8169L25.0905 19.2963L23.9725 16.5596L22.0895 14.0894C22.0469 14.0322 22.0551 13.949 22.1114 13.9036C22.1664 13.8584 22.2474 13.8683 22.29 13.9255L24.2005 16.44L25.3501 19.2544L25.118 21.8219L25.276 24.6973C25.2801 24.7701 25.2265 24.8326 25.1551 24.8368C25.1537 24.8369 25.151 24.8369 25.1482 24.8369Z" fill="#EEEEEE"/>
<path d="M55.4089 94.5293L51.7938 93.8613L47.8519 92.44C47.7846 92.416 47.7503 92.3405 47.7722 92.2716C47.7956 92.2025 47.8684 92.1667 47.9357 92.1901L51.8584 93.6061L55.4089 94.2608L58.1064 93.7694L60.6432 92.4521L62.838 90.3853L64.4436 87.868L61.0717 87.2035L57.1573 85.7421C57.09 85.7173 57.0557 85.6414 57.0804 85.5728C57.1037 85.5044 57.1765 85.4692 57.2425 85.4933L61.1377 86.9492L64.8667 87.6826L63.0207 90.5699L60.7723 92.6804L58.1696 94.0263L55.4089 94.5293Z" fill="#EEEEEE"/>
<path d="M47.8931 92.4473C47.8341 92.4473 47.7805 92.4044 47.7681 92.3421C47.7544 92.2706 47.7983 92.2007 47.867 92.1857L50.4176 91.6303L52.9091 90.277L55.1864 88.2004L57.0982 85.5388C57.1394 85.4803 57.2191 85.4682 57.2754 85.5117C57.3317 85.5553 57.3441 85.6382 57.3015 85.6967L55.3649 88.3897L53.041 90.5041L50.4876 91.8851L47.9192 92.4444C47.911 92.4464 47.9014 92.4473 47.8931 92.4473Z" fill="#EEEEEE"/>
</svg>
