<svg width="210" height="134" viewBox="0 0 210 134" fill="none" xmlns="http://www.w3.org/2000/svg">
<path d="M104.922 133.197L92.5455 132.763L80.4061 131.476L68.7288 129.36L57.7275 126.46L47.6019 122.832L44.1763 121.528L34.584 116.997L26.281 111.859L19.4013 106.215L15.6619 102.667L10.1199 96.3871L6.24938 89.7925L3.59959 84.7705L1.42615 77.8459L0.370812 72.1311L0 65.1232L0.687412 59.3331L2.11927 52.4256L4.43533 47.2327L7.51864 40.7063L12.1878 34.5123L15.7076 30.6634L21.6575 25.069L28.9679 19.9135L37.4905 15.2897L40.9732 13.553L50.052 9.74319L60.0008 6.54769L70.6513 4.01759L81.8351 2.18538L93.3755 1.07761L105.096 0.708008L116.81 1.0836L128.345 2.19736L139.517 4.03525L150.153 6.5705L160.082 9.76913L169.149 13.5841L172.649 15.3259L181.129 19.9421L188.411 25.0944L194.347 30.701L197.875 34.5449L202.555 40.8078L205.576 47.2835L207.924 52.5363L209.301 59.3668L210 65.1312L209.601 72.1496L208.56 77.865L206.363 84.7751L203.716 89.8276L199.837 96.3903L194.253 102.691L190.527 106.239L183.636 111.872L175.308 117.012L165.69 121.545L162.27 122.854L152.147 126.472L141.131 129.37L129.443 131.483L117.298 132.766L104.922 133.197ZM2.61271 52.6153L1.20937 59.4184L0.527667 65.1409L0.892769 72.0689L1.93957 77.7187L4.08732 84.5677L6.71145 89.5349L10.5478 96.078L16.0441 102.3L19.7521 105.818L26.5891 111.429L34.8379 116.533L44.3845 121.041L47.7845 122.336L57.8844 125.955L68.8429 128.844L80.4831 130.952L92.5825 132.235L104.922 132.667L117.261 132.238L129.369 130.959L141.017 128.854L151.99 125.967L162.084 122.357L165.484 121.058L175.057 116.548L183.331 111.442L190.177 105.842L193.873 102.323L199.409 96.0797L203.254 89.5698L205.878 84.572L208.046 77.7372L209.076 72.0872L209.472 65.148L208.779 59.4503L207.41 52.6694L205.097 47.5031L202.088 41.0565L197.467 34.8825L193.97 31.0724L188.077 25.5028L180.85 20.3907L172.404 15.7954L168.927 14.065L159.9 10.2651L150.011 7.07989L139.411 4.55376L128.276 2.72214L116.779 1.61211L105.096 1.23735L93.4097 1.60583L81.9036 2.71016L70.7568 4.53607L60.1434 7.05764L50.2346 10.2392L41.1928 14.0339L37.7358 15.7592L29.2474 20.3627L21.9912 25.4786L16.0841 31.035L12.5957 34.8503L7.9579 41.0032L4.91735 47.4535L2.61271 52.6153Z" fill="black"/>
<path d="M159.321 64.5679C159.293 64.5679 159.261 64.563 159.233 64.5522C159.096 64.5037 159.022 64.3522 159.073 64.2148L159.518 62.9621C159.566 62.8249 159.72 62.7516 159.854 62.8018C159.994 62.8503 160.066 63.0017 160.014 63.1392L159.569 64.3922C159.532 64.5 159.43 64.5679 159.321 64.5679Z" fill="black"/>
<path d="M158.857 65.5337L157.562 65.3189C157.419 65.2953 157.322 65.1589 157.345 65.0146C157.368 64.8709 157.505 64.7716 157.65 64.797L158.597 64.9536L160.811 61.454C160.891 61.3305 161.056 61.2952 161.179 61.3719C161.301 61.4503 161.338 61.6137 161.259 61.7373L158.857 65.5337Z" fill="black"/>
<path d="M145.763 73.6006C145.664 73.6006 145.567 73.5424 145.524 73.4449C145.464 73.312 145.521 73.1548 145.655 73.0949L149.26 71.4626L154.548 68.3333L158.952 64.8934C159.069 64.8033 159.235 64.8241 159.323 64.9393C159.414 65.0545 159.394 65.2211 159.277 65.3109L154.848 68.7702L149.503 71.9315L145.875 73.5766C145.837 73.5926 145.8 73.6006 145.763 73.6006Z" fill="black"/>
<path d="M104.916 80.5576L95.9171 80.2533L87.0807 79.3495L78.5751 77.8638L70.5459 75.8251L63.1442 73.2725C63.0073 73.2249 62.9332 73.074 62.9817 72.9356C63.0273 72.7979 63.1785 72.7243 63.3182 72.7719L70.7 75.3186L78.6835 77.3467L87.1549 78.8258L95.9513 79.7254L104.916 80.0282L113.884 79.7279L122.686 78.8321L131.163 77.3556L139.161 75.3294L146.531 72.7925C146.671 72.744 146.819 72.8184 146.868 72.9565C146.916 73.0951 146.842 73.2454 146.702 73.293L139.312 75.8359L131.274 77.8723L122.757 79.3557L113.918 80.2559L104.916 80.5576Z" fill="black"/>
<path d="M64.1843 73.6157C64.1472 73.6157 64.1101 73.608 64.073 73.592L60.3993 71.923L55.074 68.7637L50.6302 65.2835C50.5132 65.1929 50.4933 65.0269 50.5845 64.9116C50.673 64.7964 50.8413 64.7768 50.9553 64.8666L55.3707 68.3279L60.6446 71.4547L64.2927 73.11C64.4267 73.1705 64.4838 73.3274 64.4239 73.4605C64.3811 73.5584 64.2841 73.6157 64.1843 73.6157Z" fill="black"/>
<path d="M51.8606 66.1743C51.8064 66.1743 51.7551 66.1584 51.7066 66.1256C51.5868 66.0408 51.5612 65.876 51.6439 65.7565L52.2657 64.8786C52.3512 64.7588 52.5167 64.7317 52.6365 64.8156C52.7563 64.9003 52.7819 65.0651 52.6992 65.1846L52.0774 66.0625C52.0232 66.1355 51.9433 66.1743 51.8606 66.1743Z" fill="black"/>
<path d="M51.8614 66.1743C51.7901 66.1743 51.7188 66.1458 51.6675 66.0899L51.0229 65.3971L48.6982 61.7085C48.6212 61.585 48.6583 61.4216 48.7838 61.3434C48.9065 61.2656 49.0691 61.3032 49.1489 61.4273L51.4393 65.0763L52.0554 65.7291C52.1552 65.836 52.1495 66.0038 52.0411 66.1033C51.9898 66.1509 51.927 66.1743 51.8614 66.1743Z" fill="black"/>
<path d="M50.7059 64.6694C50.5975 64.6694 50.4948 64.6012 50.4577 64.4926L49.97 63.1102C49.9215 62.9721 49.9956 62.8212 50.1326 62.7725C50.2723 62.7234 50.4235 62.7973 50.472 62.9345L50.9569 64.3169C51.0054 64.4549 50.9312 64.6058 50.7943 64.6543C50.7657 64.6648 50.7344 64.6694 50.7059 64.6694Z" fill="black"/>
<path d="M51.4613 65.7451C51.427 65.7451 51.39 65.7383 51.3557 65.7234C51.2217 65.6655 51.1618 65.5092 51.2188 65.3755L52.0117 63.5364C52.0716 63.4027 52.2257 63.3399 52.3597 63.3984C52.4938 63.4563 52.5566 63.6126 52.4995 63.7463L51.7037 65.5854C51.6609 65.6852 51.564 65.7451 51.4613 65.7451Z" fill="black"/>
<path d="M51.9357 66.0679C51.8672 66.0679 51.7988 66.0416 51.7475 65.9894C51.6448 65.8853 51.6476 65.7179 51.7503 65.615L52.3921 64.9812L56.9472 61.6203L62.2867 58.5996C62.415 58.5274 62.5748 58.572 62.6489 58.6997C62.7202 58.8269 62.6746 58.9887 62.5462 59.0605L57.2353 62.0638L52.7344 65.3825L52.124 65.9914C52.0726 66.0425 52.0042 66.0679 51.9357 66.0679Z" fill="black"/>
<path d="M61.7151 59.4907C61.6125 59.4907 61.5155 59.4314 61.4727 59.3321C61.4157 59.1984 61.4756 59.0421 61.6096 58.9836L65.3062 57.3702L72.4797 54.9756L80.1723 53.078L88.2586 51.7019L96.6101 50.8699L105.098 50.5918L113.581 50.8731L121.93 51.709L130.008 53.0869L137.689 54.9873L144.848 57.3822L148.462 58.9631C148.596 59.0216 148.656 59.1775 148.599 59.3116C148.539 59.4465 148.382 59.5058 148.248 59.4479L144.657 57.8759L137.543 55.4955L129.899 53.6048L121.859 52.2333L113.547 51.401L105.098 51.1212L96.6472 51.3979L88.3299 52.2261L80.2807 53.5963L72.6252 55.4838L65.4973 57.8639L61.8207 59.4688C61.7865 59.4836 61.7522 59.4907 61.7151 59.4907Z" fill="black"/>
<path d="M158.081 65.9966C158.012 65.9966 157.947 65.9706 157.895 65.9196L157.356 65.3839L152.872 62.0712L147.601 59.0825C147.476 59.0103 147.43 58.8486 147.504 58.7214C147.576 58.5942 147.738 58.5494 147.864 58.6221L153.161 61.628L157.699 64.9832L158.266 65.5442C158.372 65.6472 158.372 65.8146 158.269 65.9184C158.218 65.9706 158.149 65.9966 158.081 65.9966Z" fill="black"/>
<path d="M158.553 65.6904C158.45 65.6904 158.353 65.6305 158.31 65.5295L157.56 63.7724C157.503 63.6381 157.566 63.4823 157.7 63.425C157.834 63.3677 157.988 63.4296 158.048 63.5645L158.798 65.3216C158.855 65.4563 158.792 65.6117 158.658 65.669C158.624 65.6836 158.59 65.6904 158.553 65.6904Z" fill="black"/>
<path d="M202.316 41.1841C202.245 41.1841 202.174 41.1547 202.122 41.0974L198.443 37.0446L193.574 34.1913C193.448 34.1174 193.406 33.9551 193.48 33.8291C193.554 33.7024 193.717 33.6614 193.842 33.7344L198.805 36.6589L202.513 40.7417C202.61 40.8496 202.604 41.0172 202.496 41.1154C202.445 41.1616 202.382 41.1841 202.316 41.1841Z" fill="black"/>
<path d="M206.672 54.3105C206.598 54.3105 206.524 54.2783 206.47 54.2164L202.585 49.6197L197.359 46.0155L196.17 39.9165L193.469 34.074C193.406 33.9411 193.463 33.7839 193.597 33.7223C193.731 33.6613 193.885 33.7189 193.948 33.8515L196.683 39.7836L197.839 45.702L202.967 49.2512L206.875 53.875C206.969 53.9868 206.954 54.1537 206.843 54.2478C206.795 54.2897 206.732 54.3105 206.672 54.3105Z" fill="black"/>
<path d="M159.281 64.6323C159.267 64.6323 159.25 64.6315 159.236 64.6289C159.093 64.605 158.996 64.4686 159.019 64.3243L159.838 59.4061L159.227 55.7432L161.874 50.0817L165.981 45.161L171.284 41.2345L177.431 38.5886L183.962 37.3907L190.523 37.7469L196.566 39.6108L201.698 42.8719L205.583 47.2735L206.932 53.994C206.96 54.1372 206.869 54.2766 206.726 54.3054C206.584 54.3345 206.441 54.2421 206.413 54.0984L205.092 47.5174L201.327 43.2509L196.313 40.0771L190.397 38.2623L183.996 37.922L177.556 39.104L171.521 41.7085L166.321 45.5674L162.305 50.394L159.775 55.8179L160.374 59.4061L159.541 64.4113C159.518 64.5411 159.407 64.6323 159.281 64.6323Z" fill="black"/>
<path d="M155.392 60.5103C155.323 60.5103 155.255 60.4849 155.204 60.4332L151.952 57.2061L147.85 54.1843L147.229 48.6152L147.234 48.5844L147.973 42.6187L150.007 36.4775L153.21 30.6421L157.348 25.5112L162.192 21.4164L167.329 18.694L172.403 17.5147L177.183 17.9599L181.119 19.9384C181.251 20.004 181.305 20.1629 181.239 20.2935C181.174 20.4244 181.011 20.4772 180.883 20.411L176.992 18.4553L172.44 18.0495L167.483 19.2023L162.466 21.8704L157.728 25.8796L153.649 30.9364L150.492 36.6883L148.486 42.7345L147.762 48.6184L148.35 53.8959L152.294 56.8056L155.577 60.0579C155.68 60.1609 155.683 60.3283 155.577 60.4321C155.526 60.484 155.46 60.5103 155.392 60.5103Z" fill="black"/>
<path d="M155.39 60.5103C155.261 60.5103 155.147 60.413 155.13 60.2792L154.414 54.7096L154.42 54.6734L155.29 48.7886C155.31 48.6438 155.444 48.5488 155.589 48.5653C155.735 48.587 155.834 48.7213 155.815 48.8662L154.947 54.7147L155.655 60.2119C155.672 60.3568 155.569 60.4897 155.424 60.5082C155.412 60.5097 155.401 60.5103 155.39 60.5103Z" fill="black"/>
<path d="M158.999 65.0771C158.868 65.0771 158.754 64.981 158.736 64.8481L158.291 61.5688L158.297 61.53L159.227 55.8138L157.741 52.3644L155.337 48.9807C155.251 48.8612 155.279 48.6958 155.399 48.6116C155.516 48.5269 155.682 48.5546 155.767 48.6735L158.217 52.1292L159.775 55.7465L158.825 61.5762L159.261 64.7768C159.281 64.9214 159.179 65.0549 159.033 65.0746C159.022 65.0766 159.01 65.0771 158.999 65.0771Z" fill="black"/>
<path d="M158.999 65.0771C158.882 65.0771 158.777 65.0016 158.745 64.8858L156.817 58.1899L154.467 54.8652L151.195 51.6374L152.04 45.5237L154.281 39.5106L157.773 33.9238L162.111 29.2786L157.402 25.8923L151.315 22.5357L155.825 17.9449L160.388 14.9151L164.892 13.43L169.116 13.5652L177.194 17.9634L184.085 22.8417L188.383 25.0754C188.512 25.1427 188.563 25.3031 188.495 25.4323C188.429 25.5632 188.267 25.6122 188.138 25.5449L183.811 23.2926L176.914 18.4121L168.974 14.0905L164.969 13.9625L160.588 15.4068L156.141 18.3696L152.179 22.4084L157.684 25.4457L162.907 29.2002L158.192 34.245L154.746 39.7678L152.547 45.6802L151.757 51.4472L154.869 54.5238L157.313 58.0002L159.253 64.7392C159.293 64.8798 159.213 65.0264 159.07 65.0669C159.048 65.074 159.022 65.0771 158.999 65.0771Z" fill="black"/>
<path d="M153.031 62.123C152.96 62.123 152.889 62.0945 152.834 62.0378L149.743 58.6611L147.891 54.2258L143.225 51.5876L137.874 49.2552L131.981 47.2935L125.461 45.6878L125.139 39.8635L131.75 41.4857L137.284 43.3222L137.817 37.6234L139.363 31.2835L141.799 25.1158L144.945 19.5433L148.59 14.9586L152.546 11.6239L156.468 9.86868L159.994 9.75661C160.148 9.7606 160.262 9.86725 160.267 10.013C160.27 10.1587 160.156 10.2814 160.011 10.2859L156.537 10.396L152.797 12.0908L148.97 15.3256L145.384 19.8385L142.275 25.3434L139.868 31.4438L138.336 37.7113L137.749 44.0347L131.605 41.994L125.706 40.548L125.966 45.2671L132.13 46.7855L138.062 48.7615L143.462 51.1147L148.311 53.8548L150.213 58.4142L153.225 61.679C153.325 61.7865 153.316 61.9539 153.208 62.0526C153.16 62.0997 153.094 62.123 153.031 62.123Z" fill="black"/>
<path d="M144.766 57.8979C144.726 57.8979 144.689 57.89 144.652 57.8731L141.626 56.4673L135.062 54.2732L127.892 52.5003L126.357 49.6534L125.493 45.7083L118.981 44.6026L111.85 43.8927L111.736 38.12L118.853 38.8262L125.176 39.8952L125.507 34.1153L126.474 27.6422L127.994 21.2475L129.96 15.3733L132.236 10.4331L134.766 6.59447L144.036 8.80973L147.179 6.88083L150.063 6.56481C150.208 6.54741 150.339 6.65381 150.356 6.79898C150.373 6.94444 150.268 7.07507 150.122 7.09133L147.296 7.40022L144.127 9.37643L135.002 7.19511L132.695 10.6895L130.45 15.5678L128.505 21.3926L126.993 27.7429L126.035 34.1695L125.67 40.5158L118.784 39.3504L112.278 38.7053L112.37 43.4129L119.052 44.0783L125.935 45.246L126.868 49.5031L128.245 52.0426L135.211 53.765L141.822 55.9762L144.877 57.3931C145.008 57.4547 145.065 57.6119 145.005 57.7448C144.96 57.8409 144.863 57.8979 144.766 57.8979Z" fill="black"/>
<path d="M129.966 53.6128C129.92 53.6128 129.874 53.6017 129.834 53.578L127.98 52.525L120.579 51.2618L112.701 50.474L112.164 47.7386L111.865 43.9099L105.074 43.6849L97.7832 43.9228L97.8831 38.1526L105.068 37.9194L111.748 38.1393L111.859 32.309L112.187 25.7759L112.704 19.2731L113.371 13.2535L114.147 8.14246L115.022 4.04739L125.245 5.03682L134.803 6.61317L137.148 4.52969L139.418 4.03799C139.561 4.00804 139.703 4.09761 139.735 4.24079C139.763 4.3834 139.675 4.52399 139.532 4.55507L137.396 5.01771L134.966 7.17674L125.177 5.5616L115.442 4.62011L114.669 8.23744L113.896 13.3222L113.231 19.3233L112.715 25.8104L112.39 32.3278L112.267 38.6863L105.068 38.449L98.4022 38.6655L98.3194 43.3757L105.074 43.1555L112.356 43.396L112.686 47.6673L113.146 49.9861L120.647 50.7376L128.2 52.0416L130.097 53.118C130.222 53.1899 130.268 53.3515 130.194 53.4788C130.145 53.5646 130.057 53.6128 129.966 53.6128Z" fill="black"/>
<path d="M113.572 51.4023C113.489 51.4023 113.409 51.3641 113.358 51.2917L112.782 50.49L105.086 50.235L96.9488 50.5014L97.4936 47.6336L97.7617 43.9432L91.1558 44.5978L84.1562 45.7823L84.4643 39.9682L91.2756 38.8205L97.8701 38.1697L97.7531 32.3152L97.4223 25.7987L96.9088 19.3104L96.2471 13.3061L95.4855 8.21572L94.6127 4.07302L105.078 3.74216L115.047 4.06275L115.822 1.85919L116.627 1.15017C116.738 1.05291 116.903 1.06375 117 1.17384C117.097 1.28336 117.086 1.45048 116.978 1.54717L116.276 2.16553L115.417 4.60466L105.078 4.2715L95.2602 4.58182L96.0046 8.12213L96.7719 13.2377L97.4336 19.2608L97.9499 25.7644L98.2808 32.2966L98.412 38.6483L91.344 39.3454L84.9691 40.42L84.7181 45.1505L91.0873 44.073L98.3378 43.3551L98.0184 47.7029L97.5905 49.9504L105.086 49.7056L113.061 49.97L113.789 50.9836C113.871 51.1026 113.846 51.268 113.726 51.3527C113.68 51.3864 113.626 51.4023 113.572 51.4023Z" fill="black"/>
<path d="M72.1547 49.2588C72.1462 49.2588 72.1376 49.2582 72.1319 49.2576C71.9865 49.2454 71.8781 49.1176 71.8895 48.9719L72.3544 43.4633L78.3613 41.476L84.4396 39.9892L84.0944 34.1338L83.1304 27.7077L81.6187 21.3557L79.6734 15.5258L77.4286 10.6375L74.8273 6.68106L84.9045 5.02686L94.5795 4.0962L93.9092 2.15651L93.2246 1.53758C93.1162 1.44004 93.1077 1.27235 93.2047 1.16394C93.3016 1.05585 93.4699 1.04758 93.5783 1.14458L94.3655 1.85444L95.2982 4.55827L84.973 5.55164L75.7172 7.07183L77.8907 10.3817L80.164 15.3315L82.1264 21.2112L83.6495 27.6073L84.6221 34.079L84.9958 40.3987L78.5068 41.9842L72.8536 43.8563L72.4172 49.0164C72.4058 49.1544 72.2888 49.2588 72.1547 49.2588Z" fill="black"/>
<path d="M72.1542 49.2588C72.043 49.2588 71.9375 49.1886 71.9032 49.0774C71.8547 48.9388 71.9318 48.7888 72.0687 48.7429L77.9929 46.7758L84.3735 45.2094C84.5189 45.1746 84.6615 45.2616 84.6958 45.403C84.73 45.5454 84.6444 45.6885 84.5018 45.723L78.1383 47.284L72.237 49.2454C72.2084 49.2548 72.1799 49.2588 72.1542 49.2588Z" fill="black"/>
<path d="M82.1116 52.5239C82.0717 52.5239 82.0289 52.5137 81.9889 52.4926C81.8577 52.4233 81.8092 52.263 81.8805 52.134L83.2982 49.4924L84.1795 45.4107C84.2109 45.2679 84.3535 45.1812 84.4933 45.2074C84.6359 45.2385 84.7271 45.3791 84.6958 45.5223L83.783 49.71L82.3455 52.3845C82.2998 52.4732 82.2086 52.5239 82.1116 52.5239Z" fill="black"/>
<path d="M82.1113 52.5239C81.9858 52.5239 81.8746 52.433 81.8518 52.3038C81.8261 52.1594 81.9231 52.0231 82.0686 51.9983L89.5216 50.7316L97.2428 49.9627C97.3996 49.9462 97.5194 50.0542 97.5337 50.1994C97.5479 50.3454 97.4424 50.4747 97.2969 50.4889L89.5929 51.2559L82.157 52.5205C82.1427 52.5228 82.1285 52.5239 82.1113 52.5239Z" fill="black"/>
<path d="M96.6383 51.3979C96.5841 51.3979 96.5327 51.3826 96.4871 51.3503C96.3673 51.2668 96.3359 51.1019 96.4215 50.9818L97.0519 50.0746C97.1374 49.9539 97.3029 49.9265 97.4227 50.009C97.5425 50.0925 97.571 50.2574 97.4883 50.3775L96.855 51.2847C96.8037 51.3586 96.721 51.3979 96.6383 51.3979Z" fill="black"/>
<path d="M62.0051 54.2822C61.9966 54.2822 61.9852 54.2817 61.9766 54.2808C61.8311 54.2645 61.7256 54.1339 61.7427 53.9885L62.3502 48.4294L67.1621 45.7296L72.3219 43.4935L71.7685 37.6541L70.2283 31.39L67.8152 25.2888L64.7034 19.7799L61.1124 15.2619L56.9395 11.7299L65.9812 8.8176L74.7178 6.7367L72.7725 4.99747L70.6561 4.53373C70.5135 4.50293 70.4222 4.36175 70.4536 4.21857C70.485 4.07568 70.6247 3.98526 70.7702 4.01692L73.0235 4.51061L75.8245 7.01703L66.1238 9.32668L58.0091 11.9418L61.4888 14.8957L65.1426 19.4851L68.2916 25.0615L70.7331 31.2297L72.2905 37.5663L72.8866 43.8267L67.396 46.2036L62.8465 48.7582L62.2675 54.0463C62.2533 54.1818 62.1392 54.2822 62.0051 54.2822Z" fill="black"/>
<path d="M62.007 54.2822C61.9157 54.2822 61.8244 54.2337 61.7759 54.1473C61.7046 54.0201 61.7503 53.8587 61.8758 53.7868L66.6362 51.1058L72.0499 48.7514C72.1839 48.6947 72.338 48.7545 72.3979 48.8889C72.4549 49.0229 72.395 49.1789 72.261 49.2374L66.873 51.5793L62.1353 54.248C62.0954 54.2714 62.0498 54.2822 62.007 54.2822Z" fill="black"/>
<path d="M68.4235 56.4727C68.3664 56.4727 68.3094 56.4541 68.2609 56.4159C68.1468 56.3258 68.1269 56.1595 68.2153 56.0446L70.4914 53.1505L71.9033 48.9106C71.9489 48.7728 72.1001 48.6961 72.237 48.7432C72.3768 48.7891 72.4509 48.9391 72.4053 49.0783L70.9363 53.4411L68.6317 56.3714C68.5804 56.4382 68.5034 56.4727 68.4235 56.4727Z" fill="black"/>
<path d="M68.4246 56.4727C68.3162 56.4727 68.2107 56.4028 68.1736 56.2919C68.128 56.1532 68.2021 56.0032 68.3419 55.9567L74.9449 53.7549L82.05 52.0023C82.1926 51.9686 82.3352 52.0539 82.3723 52.1956C82.4065 52.338 82.3181 52.4811 82.1783 52.5162L75.0904 54.2631L68.5101 56.4593C68.4816 56.4687 68.4531 56.4727 68.4246 56.4727Z" fill="black"/>
<path d="M80.2342 53.5996C80.1429 53.5996 80.0544 53.5523 80.0031 53.4664C79.9318 53.3395 79.9746 53.1778 80.1029 53.1053L81.9798 52.0295C82.1081 51.9571 82.2678 52.0001 82.342 52.1279C82.4161 52.2546 82.3705 52.4163 82.245 52.4887L80.3653 53.5645C80.3254 53.5882 80.2798 53.5996 80.2342 53.5996Z" fill="black"/>
<path d="M33.0433 18.418C32.952 18.418 32.8608 18.3677 32.8123 18.2793C32.741 18.1513 32.7895 17.9904 32.9178 17.9206L41.0183 13.5272L45.2311 13.394L49.6294 14.8514L56.8143 11.8264L53.6026 10.3647L50.1457 10.2521C49.9973 10.2469 49.8832 10.1249 49.8889 9.97855C49.8946 9.83224 50.0344 9.729 50.1628 9.72272L53.7738 9.86133L58.1349 11.845L49.6522 15.4158L45.1541 13.9265L41.1609 14.0525L33.1717 18.386C33.1317 18.4077 33.0861 18.418 33.0433 18.418Z" fill="black"/>
<path d="M55.8984 61.9175C55.8641 61.9175 55.8271 61.9103 55.7928 61.8952C55.6588 61.8359 55.5989 61.6796 55.6559 61.5458L57.6953 56.9234L58.357 51.3721L62.316 48.4721L61.5887 42.6606L59.5693 36.619L56.4004 30.8697L52.3159 25.8135L47.6153 21.8368L42.6067 19.1649L37.658 18.0095L33.0686 18.4168C32.9288 18.4294 32.792 18.323 32.7806 18.1767C32.7663 18.0312 32.8747 17.9026 33.0201 17.8897L37.6979 17.475L37.7378 17.4842L42.8235 18.6818L47.9348 21.4144L52.6924 25.445L56.8396 30.5756L60.0513 36.4076L62.1021 42.544L62.8808 48.7151L58.8533 51.6636L58.1945 57.1008L56.1408 61.7597C56.098 61.8584 56.001 61.9175 55.8984 61.9175Z" fill="black"/>
<path d="M55.8986 61.9175C55.8188 61.9175 55.7389 61.8804 55.6876 61.8099C55.5991 61.6921 55.6248 61.5262 55.7418 61.4397L59.9746 58.323L64.9746 55.4985C65.1001 55.4267 65.2627 55.4723 65.334 55.5989C65.4053 55.7261 65.3597 55.8878 65.2342 55.9597L60.2627 58.7665L56.0555 61.8658C56.0099 61.9009 55.9557 61.9175 55.8986 61.9175Z" fill="black"/>
<path d="M62.4179 59.0947C62.3551 59.0947 62.2952 59.0736 62.2439 59.03C62.1326 58.9345 62.1212 58.767 62.2182 58.657L64.9051 55.5558C65.0021 55.4449 65.1675 55.4335 65.2787 55.529C65.39 55.6245 65.4014 55.7923 65.3044 55.9024L62.6175 59.0032C62.5633 59.0637 62.492 59.0947 62.4179 59.0947Z" fill="black"/>
<path d="M62.4175 59.0947C62.3149 59.0947 62.2179 59.0354 62.1751 58.9362C62.1152 58.8021 62.1779 58.6461 62.312 58.5876L68.3189 55.9654C68.4559 55.9069 68.6099 55.9686 68.6698 56.102C68.7268 56.2358 68.6669 56.3918 68.5329 56.4503L62.5231 59.0725C62.4888 59.0876 62.4518 59.0947 62.4175 59.0947Z" fill="black"/>
<path d="M65.4136 57.877C65.3137 57.877 65.2168 57.8208 65.174 57.7241C65.1112 57.5917 65.1683 57.4346 65.2995 57.3724L68.3115 55.9678C68.4456 55.9053 68.6024 55.9632 68.6652 56.0961C68.7251 56.2284 68.668 56.3856 68.5368 56.4475L65.5248 57.8521C65.4877 57.8692 65.4506 57.877 65.4136 57.877Z" fill="black"/>
<path d="M80.4352 131.478C80.3924 131.478 80.3497 131.468 80.3097 131.446L78.7523 130.611L77.3633 127.593L91.2425 129.063L104.902 129.54L118.562 129.066L131.768 127.674L132.47 123.773L132.763 118.208L146.369 115.77L158.965 112.484L170.542 108.375L180.725 103.61L180.22 97.6315L178.463 91.2727L175.571 85.1091L171.888 79.7576L162.921 83.8684L152.664 87.4398L141.52 90.2925L129.463 92.4136L127.723 86.751L126.015 82.8008L115.661 83.8575L104.623 84.2286L104.643 80.2901C104.645 80.1435 104.754 80.0178 104.911 80.028C105.056 80.0298 105.173 80.149 105.173 80.2956L105.156 83.6807L115.627 83.3296L126.349 82.235L128.22 86.5685L129.834 91.811L141.409 89.7754L152.51 86.933L162.724 83.3776L172.071 79.0908L176.03 84.847L178.959 91.0902L180.739 97.5391L181.284 103.934L170.742 108.865L159.121 112.989L146.483 116.286L133.268 118.655L132.994 123.834L132.219 128.159L118.599 129.594L104.902 130.07L91.2055 129.59L78.2332 128.218L79.1602 130.229L80.5607 130.98C80.689 131.048 80.7375 131.209 80.6691 131.338C80.6206 131.427 80.5293 131.478 80.4352 131.478Z" fill="black"/>
<path d="M51.216 65.481C51.1476 65.481 51.082 65.455 51.0278 65.4039L47.18 61.5767L42.1314 59.0075L39.4503 54.714C39.3733 54.5899 39.4104 54.427 39.533 54.3494C39.6585 54.2716 39.8211 54.3092 39.8981 54.4339L42.5023 58.6022L47.5251 61.1717L51.4014 65.0286C51.5069 65.1313 51.5069 65.2995 51.4043 65.4028C51.3501 65.455 51.2845 65.481 51.216 65.481Z" fill="black"/>
<path d="M48.9223 61.832C48.8538 61.832 48.7854 61.8058 48.734 61.753L44.7294 57.6719L39.5439 54.8055C39.4184 54.7348 39.37 54.574 39.4413 54.4459C39.5126 54.3176 39.6723 54.2719 39.8007 54.3424L45.0803 57.2732L49.1105 61.3817C49.2132 61.486 49.2132 61.6538 49.1077 61.7559C49.0563 61.8066 48.9879 61.832 48.9223 61.832Z" fill="black"/>
<path d="M48.9236 61.832C48.8152 61.832 48.7125 61.7638 48.6726 61.6546L47.3434 57.8299L47.0125 54.0261C47.0011 53.8803 47.1095 53.752 47.255 53.7397C47.4005 53.7303 47.5288 53.8347 47.5402 53.9804L47.8682 57.7515L49.1746 61.48C49.2202 61.6181 49.1489 61.769 49.012 61.8169C48.9835 61.8274 48.9521 61.832 48.9236 61.832Z" fill="black"/>
<path d="M50.76 64.7549C50.6317 64.7549 50.5205 64.6633 50.4976 64.5341L49.6448 59.4594L47.0378 54.1199C46.9751 53.9882 47.0292 53.8299 47.1604 53.7657C47.2916 53.7021 47.4514 53.7569 47.5141 53.8872L50.1611 59.3336L51.0196 64.4463C51.0453 64.5906 50.9483 64.7269 50.8028 64.7512C50.7886 64.7537 50.7743 64.7549 50.76 64.7549Z" fill="black"/>
<path d="M50.7612 64.7549C50.7413 64.7549 50.7185 64.7523 50.6985 64.7477C50.5559 64.7129 50.4675 64.5698 50.5046 64.4274L51.2176 61.4824L52.7493 57.9409C52.8064 57.8071 52.9632 57.745 53.0973 57.8034C53.2313 57.8619 53.2941 58.0173 53.2342 58.152L51.7196 61.6504L51.0179 64.5527C50.9894 64.6736 50.881 64.7549 50.7612 64.7549Z" fill="black"/>
<path d="M52.2571 63.9062C52.2456 63.9062 52.2342 63.906 52.2228 63.9042C52.0774 63.8852 51.9747 63.7522 51.9947 63.607L52.7277 58.0115C52.7477 57.8669 52.8789 57.7631 53.0243 57.7836C53.1698 57.8027 53.2725 57.9356 53.2525 58.0808L52.5195 63.6764C52.5024 63.8093 52.3883 63.9062 52.2571 63.9062Z" fill="black"/>
<path d="M52.2564 63.9062C52.2022 63.9062 52.148 63.8903 52.1024 63.8578C51.9826 63.773 51.9541 63.6076 52.0396 63.4887L54.4698 60.0667L57.7671 56.8056L61.8487 53.8038C61.9656 53.7171 62.1311 53.7422 62.2195 53.8608C62.3051 53.9786 62.2794 54.144 62.1624 54.231L58.1093 57.2072L54.8691 60.4078L52.4703 63.7947C52.419 63.8675 52.3391 63.9062 52.2564 63.9062Z" fill="black"/>
<path d="M57.1039 62.0981C57.0412 62.0981 56.9756 62.0747 56.9242 62.0283C56.8187 61.9296 56.8101 61.7622 56.91 61.6547L59.9077 58.3913L61.7617 53.9163C61.8188 53.7814 61.9728 53.7161 62.1068 53.7731C62.2437 53.8288 62.3065 53.9839 62.2523 54.1188L60.3299 58.715L57.2979 62.0123C57.2465 62.0691 57.1752 62.0981 57.1039 62.0981Z" fill="black"/>
<path d="M29.1207 20.395C29.0237 20.395 28.9296 20.3417 28.8839 20.249C28.8183 20.1189 28.8697 19.9595 29.0009 19.8939L32.9256 17.9171C33.054 17.8515 33.2137 17.9037 33.2793 18.0343C33.3449 18.1647 33.2936 18.3238 33.1624 18.3894L29.2405 20.3665C29.2006 20.3856 29.1606 20.395 29.1207 20.395Z" fill="black"/>
<path d="M20.544 28.5571C20.4727 28.5571 20.4042 28.5292 20.3529 28.4738C20.2502 28.3675 20.2559 28.1997 20.3643 28.0996L25.9719 22.819L32.8915 17.937C33.0113 17.8517 33.1768 17.8817 33.2595 18.0006C33.3451 18.1201 33.3165 18.285 33.1967 18.3694L26.3056 23.228L20.7265 28.4853C20.6752 28.5335 20.6096 28.5571 20.544 28.5571Z" fill="black"/>
<path d="M47.2776 54.2681C47.2633 54.2681 47.2462 54.2669 47.2319 54.2641C47.0865 54.239 46.9923 54.1021 47.0152 53.9578L47.694 50.114L49.3455 46.3675L51.7956 42.9677L48.1704 37.7783L43.3728 33.28L37.8165 29.9313L31.9009 27.9502L26.0394 27.4876L20.5972 28.552C20.4518 28.5814 20.3149 28.4867 20.2863 28.343C20.2578 28.1998 20.3519 28.0609 20.4946 28.0329L26.0081 26.954L26.0451 26.9571L32.0378 27.4377L38.0647 29.4624L43.7151 32.8741L48.5896 37.4523L52.4459 42.9729L49.7933 46.6538L48.1903 50.2976L47.5372 54.049C47.5143 54.1777 47.4031 54.2681 47.2776 54.2681Z" fill="black"/>
<path d="M47.2768 54.2681C47.2027 54.2681 47.1314 54.2381 47.08 54.1797L42.9756 49.5806L37.6675 46.0355C37.5477 45.9545 37.5134 45.7899 37.5962 45.6684C37.676 45.5463 37.8414 45.5138 37.9641 45.5951L43.3464 49.2028L47.4736 53.8271C47.5706 53.9361 47.562 54.1038 47.4537 54.2008C47.4023 54.2458 47.3396 54.2681 47.2768 54.2681Z" fill="black"/>
<path d="M39.6713 54.8389C39.5629 54.8389 39.4602 54.7701 39.4231 54.6606L37.9029 50.2398L37.552 45.8364C37.5378 45.6907 37.6462 45.5632 37.7945 45.5518C37.9428 45.5424 38.0683 45.6488 38.0797 45.7942L38.4277 50.1637L39.9223 54.4877C39.9708 54.6258 39.8966 54.777 39.7597 54.8243C39.7312 54.8343 39.6998 54.8389 39.6713 54.8389Z" fill="black"/>
<path d="M46.0607 63.1016C45.9894 63.1016 45.9181 63.073 45.8668 63.0169L42.1816 59.0504L36.4713 58.0197L30.105 58.5408L26.668 52.9643L33.6418 52.8679L39.7343 54.3168C39.877 54.3504 39.9654 54.493 39.9311 54.6359C39.8969 54.778 39.7543 54.8681 39.6117 54.8319L33.5848 53.3981L27.6064 53.4803L30.3845 57.9866L36.497 57.4861L42.4497 58.5604L46.2547 62.6569C46.3545 62.7638 46.3459 62.9316 46.2404 63.0308C46.1891 63.0784 46.1234 63.1016 46.0607 63.1016Z" fill="black"/>
<path d="M78.1267 128.234L64.8492 125.833L52.6842 122.632L41.5004 118.629L31.4946 113.907L22.8378 108.556L15.6073 102.596L13.1686 97.8089L12.2188 92.2137L12.852 86.0816L14.9997 79.9362L18.5366 74.1689L23.2058 69.1709L28.6993 65.2997L34.6292 62.8107L40.5534 61.89L46.0926 62.574C46.238 62.5922 46.3407 62.724 46.3236 62.8692C46.3065 63.0147 46.1724 63.1204 46.027 63.0993L40.562 62.4245L34.7433 63.3289L28.9304 65.7763L23.5338 69.5876L18.9416 74.5103L15.4647 80.188L13.3625 86.2262L12.7521 92.196L13.6848 97.6803L16.0551 102.306L23.1459 108.126L31.7456 113.443L41.7029 118.141L52.8411 122.127L64.9633 125.316L77.4678 127.577L76.7832 123.857L76.4923 118.643L63.309 116.273L50.4765 112.917L50.8531 106.439L52.1166 99.7512L54.2045 93.1383L56.84 87.3209L46.8941 83.8496L37.3788 79.4739L42.1935 74.6307L47.1707 71.3416L55.1971 75.0035L63.8595 78.0016L67.3279 75.8209L70.571 75.3069C70.7164 75.2841 70.8505 75.3831 70.8733 75.5271C70.8961 75.6714 70.7963 75.8069 70.6537 75.8303L67.4648 76.3354L64.5526 78.1881L73.5231 80.4738L83.9796 82.3054L82.0343 86.7687L80.457 91.8708L92.3995 93.1044L104.884 93.5305L117.369 93.1084L129.853 91.8249L131.333 98.4125L132.42 105.253L133.082 112.081L133.287 118.67L119.108 120.154L104.884 120.644L90.6653 120.15L77.0257 118.715L77.3081 123.795L78.1267 128.234ZM77.0171 118.182L90.7024 119.622L104.884 120.115L119.071 119.626L132.742 118.194L132.554 112.115L131.892 105.32L130.811 98.5117L129.439 92.3996L117.406 93.6363L104.884 94.0598L92.3624 93.6323L80.3144 92.3882L78.9339 98.5171L77.85 105.324L77.1968 112.12L77.0171 118.182ZM51.0299 112.515L63.4231 115.757L76.4895 118.105L76.6692 112.087L77.3252 105.257L78.4148 98.4176L79.7896 92.3132L68.2663 90.2797L57.3477 87.478L54.698 93.3277L52.63 99.8801L51.3779 106.504L51.0299 112.515ZM57.6187 87.0023L68.3775 89.7626L79.9236 91.7995L81.538 86.5847L83.2237 82.7107L73.4118 80.9909L63.9821 78.5894L60.6193 82.2584L57.6187 87.0023ZM38.2887 79.3096L47.0909 83.3596L57.0939 86.8488L60.2 81.9378L63.4003 78.4408L63.2348 78.3992L63.2891 78.3644L55.0031 75.4946L47.2192 71.9454L42.5073 75.0574L38.2887 79.3096Z" fill="black"/>
<path d="M60.5082 71.9468C60.4739 71.9468 60.4397 71.9399 60.4055 71.9254L56.5007 70.2558C56.3666 70.1982 56.3039 70.0427 56.3609 69.9084C56.418 69.7729 56.5748 69.7119 56.7089 69.7686L60.6137 71.4385C60.7478 71.4959 60.8105 71.6516 60.7535 71.7859C60.7078 71.8869 60.6109 71.9468 60.5082 71.9468Z" fill="black"/>
<path d="M63.2291 73.2866C63.1948 73.2866 63.1578 73.2789 63.1207 73.2629L56.4948 70.2528C56.3607 70.1927 56.3037 70.0358 56.3636 69.9026C56.4235 69.7697 56.5803 69.7113 56.7144 69.7711L63.3403 72.781C63.4715 72.8417 63.5314 72.9983 63.4715 73.1315C63.4259 73.2293 63.3317 73.2866 63.2291 73.2866Z" fill="black"/>
<path d="M41.2849 96.1982L30.9795 91.4084C30.8483 91.3468 30.7884 91.1897 30.8512 91.0568C30.9139 90.925 31.0708 90.8659 31.202 90.9284L40.9968 95.4807L43.4127 89.3341L46.7527 83.469L50.6803 78.5979L54.9787 75.0042L59.2828 73.0308L63.2133 72.7579C63.3587 72.7479 63.4842 72.858 63.4957 73.004C63.5071 73.1498 63.3958 73.2758 63.2504 73.2861L59.3684 73.5556L55.2326 75.47L51.0568 78.9675L47.1891 83.7667L43.889 89.5622L41.2849 96.1982Z" fill="black"/>
<path d="M28.8188 104.003C28.8103 104.003 28.8046 104.003 28.796 104.002C28.6505 103.99 28.5421 103.863 28.5536 103.717L29.0641 97.5539L30.8354 91.0982C30.8725 90.957 31.0208 90.8757 31.1606 90.9131C31.3003 90.9519 31.383 91.0976 31.346 91.2388L29.5832 97.6458L29.0812 103.76C29.0698 103.899 28.9557 104.003 28.8188 104.003Z" fill="black"/>
<path d="M28.8198 104.003C28.7713 104.003 28.7228 103.991 28.68 103.964L19.7381 98.4638L12.3192 92.4105L6.57191 85.9293L2.52734 79.0632L3.229 73.0124L5.55648 67.2728C5.61067 67.1373 5.76468 67.072 5.90159 67.1265C6.03565 67.1818 6.10126 67.3358 6.04706 67.4713L3.73386 73.1778L3.075 78.9474L6.9969 85.619L12.6844 92.0292L20.0433 98.0331L28.9567 103.513C29.0822 103.59 29.1221 103.752 29.0451 103.877C28.9938 103.958 28.9082 104.003 28.8198 104.003Z" fill="black"/>
<path d="M31.0909 91.4331C31.0453 91.4331 30.9968 91.4206 30.954 91.3943L22.2687 86.104L15.061 80.2799L9.47052 74.0435L5.57431 67.5073C5.50015 67.3816 5.54007 67.2193 5.66557 67.1443C5.79107 67.0692 5.95366 67.11 6.02782 67.2364L9.8955 73.7312L15.4232 79.8975L22.574 85.6721L31.2307 90.9423C31.3533 91.0184 31.3933 91.1813 31.3191 91.3059C31.2678 91.3881 31.1793 91.4331 31.0909 91.4331Z" fill="black"/>
<path d="M31.0891 91.4331C31.052 91.4331 31.0149 91.4251 30.9778 91.4083C30.8438 91.3461 30.7867 91.1884 30.8495 91.0561L33.756 84.8513L37.4554 79.4734L29.7799 74.8495L23.1939 69.5936L18.0741 63.9602L14.3404 57.8076L20.624 54.6027L26.7964 53.0363L25.1278 48.058L24.7741 43.1013L18.5105 43.8328L12.4921 46.0455L7.38939 49.5676L3.51028 54.1626C3.41616 54.2744 3.25071 54.2884 3.13661 54.1943C3.02538 54.1002 3.01112 53.933 3.10524 53.8215L7.05852 49.152L12.2782 45.5601L18.4192 43.3106L25.2618 42.5109L25.6526 47.9866L27.4781 53.4085L20.7837 55.1084L15.0906 58.0195L18.4962 63.6453L23.5533 69.2092L30.0794 74.4157L38.2112 79.3099L34.2123 85.1134L31.3287 91.2805C31.283 91.3767 31.1889 91.4331 31.0891 91.4331Z" fill="black"/>
<path d="M3.30775 54.2568C3.29063 54.2568 3.27354 54.2554 3.25642 54.2517C3.11096 54.2223 3.01965 54.0823 3.04818 53.9388L4.43157 47.219L8.28216 42.847L11.2143 36.6254L15.7751 30.6103L20.4158 28.0605C20.5441 27.99 20.7067 28.0371 20.7752 28.1649C20.8465 28.2932 20.8009 28.4543 20.6725 28.5248L16.0803 31.0472L11.6536 36.9223L8.70429 43.1684L4.92215 47.4631L3.56731 54.0455C3.54164 54.1704 3.43039 54.2568 3.30775 54.2568Z" fill="black"/>
<path d="M5.8026 67.6367C5.74556 67.6367 5.69138 67.6196 5.64289 67.5845C5.52595 67.4975 5.50311 67.3315 5.58868 67.2143L9.47065 61.9858L14.4108 57.8263L12.4827 51.9036L12.1062 45.7907L13.3384 39.6715L16.1108 33.7536L20.3351 28.1336C20.4235 28.0178 20.5889 27.9924 20.7058 28.0811C20.8228 28.1692 20.8456 28.3346 20.7572 28.4519L16.5529 34.05L13.8318 39.8672L12.6367 45.8269L13.0104 51.8369L15.0241 58.0009L9.83575 62.3711L6.01367 67.5295C5.96233 67.5994 5.88247 67.6367 5.8026 67.6367Z" fill="black"/>
<path d="M5.80067 67.6367C5.68658 67.6367 5.58389 67.5648 5.54681 67.4522L3.41331 60.7218L3.04538 54.0068C3.03683 53.861 3.14807 53.7358 3.29353 53.7281C3.439 53.7053 3.56449 53.8314 3.57305 53.9777L3.94097 60.6593L6.05168 67.2919C6.09731 67.4308 6.02031 67.5797 5.88055 67.6242C5.85202 67.6324 5.82634 67.6367 5.80067 67.6367Z" fill="black"/>
<path d="M7.76677 91.6182C7.67835 91.6182 7.5871 91.5714 7.53861 91.4873L3.57391 84.6944L2.54139 79.0526L0.359375 72.1083L1.05246 66.2327L0.681685 59.316L0.707346 59.2581L3.0662 53.8856C3.1261 53.7516 3.28011 53.6916 3.41702 53.7495C3.55108 53.8083 3.61097 53.9646 3.55107 54.0984L1.21792 59.4133L1.58016 66.2498L0.898462 72.0578L3.05192 78.926L4.08445 84.5532L7.99497 91.2194C8.06913 91.3455 8.02632 91.5078 7.90082 91.5819C7.85803 91.6062 7.81241 91.6182 7.76677 91.6182Z" fill="black"/>
<path d="M7.76851 91.6182C7.64301 91.6182 7.53176 91.528 7.50894 91.4L6.50497 85.7619L7.14959 79.8458L3.22483 73.191L1.03711 66.2504L3.47298 60.5421L7.31501 55.7187L6.9442 49.3505L8.27337 42.8303L13.5016 39.5304L19.5399 37.6876L26.0346 37.3465L26.066 37.3517L32.6234 38.5655L38.7701 41.2279L44.0725 45.1701L48.1769 50.1083L50.7839 55.7084L51.7423 61.5407L51.2888 64.9461C51.2688 65.0907 51.1348 65.1968 50.9893 65.1728C50.8438 65.1537 50.744 65.0205 50.764 64.8756L51.2089 61.5489L50.2677 55.8305L47.712 50.3638L43.6874 45.5335L38.482 41.6717L32.4437 39.0635L26.0004 37.8779L19.6027 38.2144L13.6899 40.0261L8.74686 43.1568L7.47757 49.3887L7.85695 55.8904L3.90935 60.8436L1.599 66.2772L3.72113 73.0027L7.69435 79.7277L7.03834 85.7445L8.03094 91.3067C8.05661 91.451 7.95963 91.5879 7.81701 91.6139C7.7999 91.6164 7.78563 91.6182 7.76851 91.6182Z" fill="black"/>
<path d="M10.3191 96.4766C10.2249 96.4766 10.1308 96.4246 10.0852 96.3348L7.53237 91.4762C7.46392 91.347 7.51526 91.1867 7.64362 91.1189C7.77482 91.0501 7.93455 91.1009 8.00015 91.2301L10.5529 96.0886C10.6214 96.2179 10.5701 96.3784 10.4417 96.446C10.4018 96.4666 10.359 96.4766 10.3191 96.4766Z" fill="black"/>
<path d="M20.7466 104.024C20.6896 104.024 20.6297 104.004 20.5812 103.964L13.2622 97.9695L7.56907 91.5288C7.4721 91.4193 7.48064 91.2516 7.59188 91.1549C7.70027 91.0588 7.86857 91.0682 7.96555 91.1783L13.6273 97.5895L20.9149 103.554C21.029 103.647 21.0461 103.814 20.952 103.927C20.9007 103.991 20.8237 104.024 20.7466 104.024Z" fill="black"/>
<path d="M20.7483 104.024C20.6199 104.024 20.5087 103.931 20.4887 103.801L19.6102 98.2467L20.1693 92.2521L12.9359 86.3739L7.11719 79.8432L9.44752 73.718L13.1926 68.2151L18.1356 63.5557L23.9486 60.0746L30.3263 57.9587L34.8671 62.8934L40.5176 67.3523L47.2261 71.3545L52.0636 69.7376L56.6045 69.7476C56.7528 69.7481 56.8697 69.8665 56.8697 70.0128C56.8697 70.1585 56.7528 70.2769 56.6045 70.2769L52.1064 70.267L47.1634 71.934L40.2181 67.7876L34.5078 63.2804L30.1666 58.5687L24.1425 60.5678L18.4322 63.9946L13.5748 68.5802L9.90388 73.9898L7.72758 79.7305L13.301 85.9929L20.7226 92.0194L20.1436 98.2299L21.0107 103.718C21.0335 103.862 20.9366 103.998 20.7911 104.021C20.7768 104.023 20.7626 104.024 20.7483 104.024Z" fill="black"/>
<path d="M56.6024 70.2769C56.5568 70.2769 56.5112 70.2649 56.4684 70.2398L50.7125 66.823C50.587 66.7485 50.547 66.586 50.6212 66.4605C50.6953 66.3344 50.8579 66.2925 50.9834 66.3681L56.7394 69.7846C56.8649 69.859 56.9048 70.0213 56.8306 70.1471C56.7821 70.2309 56.6937 70.2769 56.6024 70.2769Z" fill="black"/>
<path d="M55.208 68.8008C55.1709 68.8008 55.1367 68.7934 55.0996 68.778L50.7413 66.8371C50.6072 66.7778 50.5473 66.6212 50.6072 66.4878C50.6671 66.3543 50.8211 66.2944 50.958 66.3534L55.3163 68.2943C55.4504 68.3536 55.5103 68.5102 55.4504 68.6437C55.4048 68.7423 55.3078 68.8008 55.208 68.8008Z" fill="black"/>
<path d="M26.4204 111.898C26.3548 111.898 26.2892 111.874 26.2379 111.825L22.7409 108.447L20.5105 103.875C20.4477 103.744 20.5019 103.585 20.6331 103.521C20.7643 103.458 20.9212 103.512 20.9868 103.643L23.1944 108.173L26.603 111.443C26.7085 111.544 26.7113 111.712 26.6115 111.817C26.5602 111.871 26.4889 111.898 26.4204 111.898Z" fill="black"/>
<path d="M66.6011 128.446C66.5783 128.446 66.5555 128.444 66.5355 128.437L54.901 125.371L44.1194 121.508L41.3469 118.479L39.647 114.245L29.49 109.463L20.6108 103.984C20.4853 103.907 20.4482 103.744 20.5223 103.62C20.5994 103.495 20.7619 103.458 20.8874 103.534L29.7438 108.999L40.0605 113.855L41.8176 118.236L44.4217 121.053L55.0579 124.866L66.6696 127.926C66.8093 127.963 66.8949 128.108 66.8578 128.249C66.8265 128.368 66.7181 128.446 66.6011 128.446Z" fill="black"/>
<path d="M66.6002 128.446C66.5146 128.446 66.429 128.404 66.3806 128.326L64.6407 125.641L63.5739 121.635L51.2492 118.4L39.609 114.244L38.9102 108.628L39.3494 102.361L40.9495 95.4913L52.4642 99.5507L64.4068 102.645L65.9442 96.1861L68.0606 89.9342L70.5506 84.6171L73.2774 80.5343L75.9956 78.0718L78.5456 77.3482C78.6854 77.3083 78.8337 77.3898 78.8736 77.5304C78.9135 77.671 78.8308 77.8174 78.6911 77.8579L76.258 78.5475L73.6568 80.9044L71.0098 84.876L68.5511 90.1311L66.4519 96.3318L64.7976 103.293L52.3102 100.057L41.3289 96.1872L39.8714 102.44L39.435 108.614L40.0938 113.856L51.406 117.895L64.0046 121.201L65.1398 125.463L66.8227 128.037C66.9025 128.159 66.8683 128.323 66.7457 128.403C66.7 128.432 66.6515 128.446 66.6002 128.446Z" fill="black"/>
<path d="M68.7749 129.364C68.7406 129.364 68.7064 129.358 68.6722 129.344L66.4987 128.425C66.3647 128.369 66.3019 128.213 66.359 128.079C66.416 127.944 66.57 127.881 66.7041 127.937L68.8775 128.856C69.0144 128.912 69.0772 129.068 69.0201 129.203C68.9774 129.304 68.8804 129.364 68.7749 129.364Z" fill="black"/>
<path d="M92.1481 132.085L78.9277 130.683L66.5545 128.443C66.409 128.416 66.3149 128.279 66.3406 128.135C66.3662 127.99 66.5003 127.898 66.6486 127.921L79.0019 130.16L91.4579 131.479L90.9559 129.388L90.585 125.505L77.0139 124.072L63.5425 121.642L63.0918 116.034L63.3685 109.703L64.3782 102.661L77.6356 105.022L90.856 106.399L91.3837 99.7831L92.1082 93.3382L92.9639 87.7991L93.8852 83.5335L94.8692 80.7425L95.7277 79.8092C95.8276 79.7023 95.9958 79.6954 96.1042 79.7935C96.2098 79.8928 96.2183 80.0605 96.1185 80.168L95.297 81.0602L94.3928 83.6758L93.483 87.8952L92.633 93.4081L91.9085 99.8336L91.3409 106.982L77.5615 105.546L64.826 103.278L63.8962 109.753L63.6195 116.025L64.0359 121.194L77.0909 123.549L91.07 125.024L91.475 129.301L92.1481 132.085Z" fill="black"/>
<path d="M104.911 132.507L91.7964 132.047C91.6509 132.041 91.534 131.919 91.5397 131.773C91.5454 131.627 91.6709 131.517 91.8135 131.517L104.911 131.977L117.789 131.53L118.314 129.271L118.651 125.545L104.894 126.02L90.5728 125.52L90.4102 119.893L90.5043 113.54L90.8466 106.417L104.88 106.901L118.36 106.442L117.835 99.8314L117.116 93.4027L116.278 87.8842L115.376 83.6491L114.501 81.0625L113.696 80.1692C113.599 80.0606 113.608 79.8931 113.716 79.7956C113.825 79.6972 113.993 79.7061 114.09 79.8156L114.983 80.8415L115.887 83.5096L116.797 87.7898L117.641 93.3334L118.36 99.7806L118.93 106.951L104.88 107.431L91.3514 106.964L91.032 113.557L90.9407 119.889L91.0861 125.008L104.894 125.491L119.233 124.995L118.836 129.355L118.214 132.045L104.911 132.507Z" fill="black"/>
<path d="M117.269 132.768C117.201 132.768 117.132 132.741 117.078 132.688C116.978 132.584 116.978 132.416 117.084 132.314L117.88 131.533L130.826 130.167L143.057 127.957L144.66 125.48L145.632 121.769L132.777 124.081L118.667 125.564L118.815 119.884L118.712 113.554L118.367 106.459L132.13 105.031L144.831 102.775L143.299 96.3253L141.203 90.1206L138.747 84.8567L136.131 80.9188L133.547 78.5607L131.134 77.8699C130.994 77.8297 130.915 77.6834 130.955 77.5428C130.994 77.4021 131.137 77.3189 131.28 77.3614L133.812 78.0861L136.554 80.5985L139.206 84.5986L141.693 89.924L143.807 96.1796L145.478 103.198L132.204 105.555L118.921 106.933L119.243 113.537L119.346 119.886L119.212 124.975L132.703 123.557L146.354 121.101L145.125 125.732L143.379 128.437L130.9 130.691L118.119 132.04L117.455 132.692C117.403 132.742 117.335 132.768 117.269 132.768Z" fill="black"/>
<path d="M141.063 129.379C140.96 129.379 140.863 129.318 140.82 129.218C140.763 129.083 140.823 128.928 140.96 128.871L143.114 127.953L154.797 124.879L165.427 121.079L168.011 118.263L169.714 113.98C169.768 113.844 169.922 113.78 170.059 113.832C170.196 113.886 170.262 114.04 170.207 114.176L168.433 118.585L165.729 121.532L154.953 125.385L143.285 128.453L141.165 129.358C141.131 129.372 141.097 129.379 141.063 129.379Z" fill="black"/>
<path d="M145.701 121.786L146.151 116.01L145.863 109.744L144.859 102.79L157.327 99.5674L168.299 95.7097L165.884 89.5559L162.581 83.759L158.71 78.9566L154.235 75.2016L162.526 71.4317L168.801 67.698L164.061 66.5623L159.092 66.884L154.791 68.8034C154.657 68.8625 154.5 68.8029 154.443 68.6694C154.383 68.5356 154.443 68.3796 154.577 68.3194L159.01 66.3586L164.107 66.0286L170.193 67.4872L162.772 71.9003L155.219 75.3362L159.087 78.5879L163.017 83.4621L166.36 89.3283L168.995 96.0271L157.481 100.074L145.45 103.184L146.388 109.695L146.679 116.019L146.286 121.085L158.413 117.91L169.871 113.829C170.011 113.779 170.162 113.852 170.211 113.989C170.259 114.127 170.188 114.278 170.051 114.327L158.57 118.415L145.701 121.786Z" fill="black"/>
<path d="M183.467 111.932C183.398 111.932 183.33 111.905 183.278 111.851C183.176 111.746 183.179 111.578 183.284 111.477L186.675 108.209L188.872 103.681C188.934 103.549 189.094 103.494 189.225 103.558C189.357 103.622 189.411 103.78 189.348 103.912L187.078 108.557L183.652 111.858C183.601 111.907 183.535 111.932 183.467 111.932Z" fill="black"/>
<path d="M169.962 114.343C169.863 114.343 169.768 114.287 169.723 114.191C169.66 114.059 169.717 113.901 169.848 113.839L180.119 109.018L188.973 103.571C189.096 103.494 189.258 103.533 189.335 103.658C189.412 103.782 189.372 103.945 189.25 104.022L180.37 109.482L170.074 114.318C170.037 114.335 169.999 114.343 169.962 114.343Z" fill="black"/>
<path d="M169.961 114.343C169.949 114.343 169.938 114.343 169.927 114.341C169.784 114.324 169.678 114.191 169.698 114.046L170.366 108.593L169.912 102.428L168.338 95.7193L178.606 90.9622L187.289 85.6909L194.465 79.9117L200.024 73.7366L203.889 67.2863C203.963 67.1605 204.128 67.1203 204.251 67.1953C204.377 67.2703 204.417 67.4332 204.342 67.5581L200.446 74.0501L194.827 80.2953L187.591 86.1239L178.854 91.4291L168.954 96.0179L170.434 102.348L170.894 108.606L170.223 114.111C170.206 114.245 170.092 114.343 169.961 114.343Z" fill="black"/>
<path d="M189.11 104.061C189.033 104.061 188.959 104.028 188.904 103.964C188.813 103.85 188.83 103.683 188.942 103.591L196.289 97.6007L201.948 91.2225L205.858 84.6014L206.865 79.0463L206.189 73.228L203.87 67.5215C203.816 67.386 203.882 67.2315 204.016 67.1767C204.153 67.1208 204.307 67.1867 204.361 67.3222L206.711 73.1313L207.402 79.0629L207.393 79.1017L206.34 84.8298L202.376 91.5332L196.654 97.9818L189.278 104.001C189.23 104.041 189.17 104.061 189.11 104.061Z" fill="black"/>
<path d="M189.109 104.061C189.098 104.061 189.084 104.06 189.069 104.058C188.924 104.035 188.827 103.9 188.847 103.755L189.703 98.2681L189.132 92.2271L187.173 85.9966L183.955 80.0674L179.711 74.8261L174.751 70.6717L169.015 67.6359L175.036 62.9008L179.454 58.1221L182.307 53.5217L176.34 53.4358L170.427 54.8408L167.82 58.9789L163.946 63.1064L159.229 65.3414C159.098 65.4018 158.938 65.3476 158.875 65.2153C158.812 65.0835 158.869 64.9253 159.003 64.8628L163.676 62.6496L167.403 58.6572L170.093 54.3756L176.28 52.9053L183.251 53.0054L179.874 58.4418L175.393 63.2884L169.982 67.5489L175.07 70.2481L180.088 74.457L184.395 79.7748L187.658 85.791L189.657 92.1495L190.239 98.2847L189.372 103.837C189.352 103.968 189.238 104.061 189.109 104.061Z" fill="black"/>
<path d="M203.134 86.0645C203 86.0645 202.886 85.9641 202.869 85.8286L202.213 79.8962L199.985 74.0365L196.309 68.6258L191.451 64.0382L185.744 60.6094L179.594 58.5633L173.43 58.055L167.68 59.0909L162.751 61.6042L159.309 65.2831C159.209 65.3901 159.043 65.3952 158.935 65.2954C158.827 65.1956 158.821 65.0282 158.921 64.9212L162.469 61.1539L167.549 58.5772L173.405 57.5214L173.439 57.5245L179.731 58.0508L185.992 60.1405L191.796 63.6337L196.731 68.3044L200.467 73.8195L202.735 79.8046L203.397 85.7707C203.414 85.9162 203.308 86.0468 203.163 86.0627C203.151 86.0639 203.143 86.0645 203.134 86.0645Z" fill="black"/>
<path d="M203.135 86.0645C203.089 86.0645 203.04 86.0525 202.998 86.0271C202.872 85.9527 202.832 85.7904 202.906 85.6649L206.891 78.9456L209.067 72.1094L208.383 66.3852L206.001 60.8065L206.409 54.0296C206.418 53.8844 206.526 53.7661 206.688 53.7814C206.834 53.7903 206.945 53.9155 206.937 54.0618L206.537 60.7132L208.905 66.2845L209.606 72.1601L207.362 79.1894L203.36 85.9347C203.311 86.018 203.223 86.0645 203.135 86.0645Z" fill="black"/>
<path d="M104.882 114.297L90.7572 113.808L76.9064 112.358L63.5891 109.975L51.0504 106.71L39.5271 102.629L29.219 97.8153L20.1316 92.2534L22.1539 85.7988L25.3056 79.9714L18.5657 74.5558L13.1748 68.5846L9.38985 62.2698L7.27344 55.7076L12.6414 51.6439L18.7796 48.9815L25.3741 47.7736L32.0684 48.1258L38.3064 49.9923L43.683 53.2605L47.8416 57.689L50.4571 62.9041C50.5228 63.0341 50.4685 63.1936 50.3402 63.2591C50.209 63.3253 50.0493 63.2719 49.9837 63.1408L47.3852 57.9605L43.3236 53.6498L38.0611 50.4626L31.9458 48.6424L25.4083 48.3052L18.9051 49.4969L12.8811 52.1171L7.8924 55.9018L9.88329 62.0784L13.5998 68.2714L18.9279 74.1722L25.9788 79.8347L22.6387 86.0042L20.7591 92.0178L29.4671 97.3496L39.7268 102.14L51.2044 106.205L63.7003 109.459L76.9806 111.835L90.7942 113.281L104.882 113.768L118.969 113.285L132.791 111.844L146.08 109.472L158.59 106.222L170.091 102.159L180.373 97.3695L189.255 91.9485L196.594 86.0056L202.276 79.6571L206.207 73.0524L208.38 66.2675L208.774 59.4676L206.429 54.1529C206.372 54.0189 206.432 53.8629 206.566 53.8038C206.7 53.7434 206.854 53.805 206.914 53.9388L209.31 59.3703L208.893 66.3967L206.677 73.2974L202.701 79.9694L196.959 86.3883L189.561 92.3801L180.621 97.8353L170.29 102.648L158.747 106.728L146.194 109.989L132.866 112.367L119.006 113.813L104.882 114.297Z" fill="black"/>
<path d="M50.2204 63.2871C50.0835 63.2871 49.9694 63.1833 49.958 63.0455L49.6328 59.3669L50.2774 55.6454L51.8519 52.0518L54.2906 48.6464L57.5992 45.4007L61.6952 42.4136L66.4984 39.729L71.9292 37.3862L77.8933 35.4209L84.2967 33.8616L91.031 32.731L97.9906 32.0465L105.061 31.8178L112.132 32.0494L119.086 32.7361L125.815 33.8693L132.21 35.43L138.162 37.3968L143.579 39.7381L148.365 42.4202L152.444 45.4024L155.738 48.6387C155.841 48.741 155.844 48.9091 155.741 49.0129C155.638 49.1173 155.47 49.1184 155.367 49.016L152.101 45.8045L148.08 42.8649L143.345 40.2121L137.974 37.891L132.064 35.9382L125.709 34.3873L119.018 33.261L112.098 32.5779L105.061 32.3474L98.0248 32.5747L91.1023 33.2555L84.4023 34.3796L78.0388 35.9291L72.1146 37.8805L66.7323 40.203L61.9804 42.8589L57.9415 45.804L54.6899 48.9898L52.2997 52.3373L50.7766 55.828L50.1662 59.3885L50.4828 62.999C50.4971 63.1448 50.3887 63.2732 50.2432 63.286C50.2347 63.2865 50.2289 63.2871 50.2204 63.2871Z" fill="black"/>
<path d="M104.879 100.524L91.6387 100.069L78.6493 98.7222L66.1563 96.5081L54.3906 93.4749L43.5718 89.6808L33.8855 85.2041L25.2459 79.9728L29.7097 74.4562L34.4844 70.4521L34.3989 70.4016L34.4559 70.3711L28.6373 65.7513L23.8368 60.5042L20.4398 54.9426L18.5629 49.2598L18.1836 43.557L19.3131 37.8411L21.883 32.3123L25.8106 27.0624L31.0674 22.0932L37.5278 17.5264L45.0664 13.4276L53.5634 9.85847L62.8705 6.86662L72.8364 4.49681L83.3071 2.77983L94.1116 1.74226L105.087 1.39597L116.057 1.74792L126.856 2.79066L137.315 4.51279L147.27 6.88688L156.557 9.88187L165.031 13.4527L172.55 17.5498L178.982 22.1126L184.156 27.0213L189.641 28.1091L194.378 30.7351L198.851 36.7254L201.76 42.9954L203.032 49.4047L202.613 55.9383L200.499 62.3747L196.737 68.5906L191.321 74.57L184.355 80.1485L175.95 85.2238L166.24 89.6999L155.402 93.4915L143.625 96.5216L131.12 98.7311L118.125 100.074L104.879 100.524ZM26.0388 79.8342L34.1336 84.7372L43.7686 89.1905L54.5446 92.9687L66.2675 95.991L78.7235 98.1986L91.6758 99.5411L104.879 99.9946L118.088 99.546L131.046 98.2074L143.51 96.0045L155.248 92.9852L166.044 89.2096L175.701 84.7569L184.053 79.7152L190.961 74.1855L196.315 68.2757L200.031 62.1265L202.097 55.806L202.499 49.4398L201.247 43.1298L198.383 36.9735L193.988 31.0979L189.421 28.5931L184.643 27.6568L188.169 32.4081L190.705 37.9501L191.785 43.6061L191.783 43.64L191.366 49.373L189.449 55.0428L186.081 60.5068L181.255 65.7621L175.065 70.6592L167.615 75.1105L159.027 79.0319L149.449 82.3514L139.052 85.0019L128.023 86.9345L116.565 88.1081L104.89 88.5014L93.216 88.1044L81.764 86.9262L70.7456 84.9899L60.3604 82.3363L50.7995 79.0147L42.2313 75.0928L34.9636 70.7396L30.0862 74.8258L26.0388 79.8342ZM35.4799 70.4305L42.4766 74.6248L50.9964 78.5236L60.5116 81.8298L70.8569 84.4731L81.8382 86.4026L93.2531 87.5765L104.89 87.9721L116.528 87.5802L127.951 86.4108L138.941 84.4851L149.298 81.8446L158.83 78.5404L167.37 74.6419L174.766 70.2237L180.895 65.3748L185.662 60.1885L188.982 54.7906L190.853 49.2361L191.252 43.6371L190.188 38.081L187.698 32.6537L183.902 27.5422L178.146 27.9933L172.538 29.8655L175.627 34.0852L177.738 38.8017L178.611 43.6043L178.608 43.6392L178.206 48.506L176.534 53.3115L173.642 57.9294L169.518 62.3712L164.247 66.5039L157.92 70.2562L150.638 73.559L142.535 76.3517L133.747 78.5804L124.431 80.2038L114.759 81.1897L104.908 81.52L95.0557 81.1866L85.3893 80.1969L76.0823 78.5707L67.3058 76.3392L59.2138 73.5455L51.9519 70.2434L45.7367 66.5479L40.4457 67.8099L35.4799 70.4305ZM45.9307 66.047L52.1972 69.775L59.4106 73.0544L67.4569 75.8326L76.1935 78.0536L85.4606 79.6733L95.0928 80.6587L104.908 80.9907L114.722 80.6618L124.357 79.6801L133.636 78.0633L142.384 75.8449L150.444 73.0678L157.675 69.7879L163.947 66.0682L169.161 61.9825L173.226 57.6082L176.069 53.056L177.695 48.3645L178.077 43.6315L177.222 38.9283L175.157 34.3276L172.045 30.0794L166.671 33.3148L161.874 37.81L158.163 43.1266L155.798 48.9273C155.741 49.0633 155.584 49.1281 155.453 49.0727C155.316 49.0174 155.25 48.8628 155.308 48.7279L157.712 42.848L161.491 37.4424L166.372 32.8753L171.685 29.6772L167.55 25.7156L162.164 21.8656L155.844 18.3977L148.696 15.3671L140.841 12.8218L132.412 10.8014L123.544 9.33485L114.383 8.44611L105.07 8.14606L95.7545 8.44154L86.5872 9.326L77.7109 10.7885L69.271 12.8058L61.4015 15.3494L54.2337 18.3794L47.8931 21.849L42.4851 25.7037L38.1097 29.8809L34.8609 34.2888L32.7731 38.889L31.8945 43.5921L32.2539 48.326L33.8569 53.0189L36.7092 57.6134L40.7538 61.9777L45.9307 66.047ZM20.9332 54.7473L24.2561 60.1879L28.9966 65.3651L34.9693 70.1013L40.2917 67.3028L45.1863 66.1355L40.3944 62.3655L36.2899 57.9328L33.3635 53.2182L31.7291 48.4002L31.3612 43.563L32.2768 38.6993L34.4189 33.9968L37.7132 29.5326L42.1486 25.2967L47.6136 21.4013L54.0055 17.9034L61.2161 14.8537L69.1284 12.2965L77.6082 10.27L86.5188 8.80122L95.7231 7.91307L105.07 7.61672L114.417 7.91763L123.613 8.81007L132.518 10.2829L140.986 12.3127L148.881 14.8716L156.075 17.922L162.444 21.4184L167.886 25.3092L172.185 29.426L178.072 27.4683L183.42 27.049L178.645 22.5207L172.267 17.9984L164.803 13.9293L156.374 10.3776L147.127 7.39599L137.21 5.0313L126.787 3.31544L116.023 2.27643L105.087 1.92535L94.1458 2.27072L83.3756 3.30461L72.9419 5.01532L63.0131 7.37601L53.746 10.3542L45.2946 13.9045L37.8045 17.9753L31.4011 22.5016L26.2042 27.4135L22.3251 32.6075L19.8065 38.0345L18.717 43.591L19.0878 49.1911L20.9332 54.7473Z" fill="black"/>
<path d="M50.8502 66.8599C50.8445 66.8599 50.8388 66.8599 50.8331 66.8593L45.7617 66.5296C45.6163 66.5202 45.505 66.3941 45.5164 66.2484C45.525 66.102 45.6505 65.9914 45.796 66.0011L50.8673 66.3311C51.0128 66.3402 51.124 66.4665 51.1126 66.6123C51.1041 66.7523 50.9871 66.8599 50.8502 66.8599Z" fill="black"/>
<path d="M50.8495 66.8599C50.7925 66.8599 50.7326 66.8414 50.6841 66.8034L45.8951 63.0449C45.781 62.9545 45.7611 62.7882 45.8523 62.6733C45.9407 62.558 46.109 62.5389 46.2231 62.6285L51.0121 66.3867C51.1262 66.4774 51.1462 66.6437 51.0578 66.7586C51.0036 66.8254 50.9266 66.8599 50.8495 66.8599Z" fill="black"/>
<path d="M50.7939 65.3394C50.7569 65.3394 50.717 65.3311 50.6799 65.314L45.9479 63.0759C45.8167 63.0135 45.7597 62.8557 45.8224 62.7234C45.8852 62.5916 46.042 62.5352 46.1732 62.5973L50.908 64.8354C51.0392 64.8979 51.0963 65.0556 51.0336 65.1879C50.9879 65.2835 50.8938 65.3394 50.7939 65.3394Z" fill="black"/>
<path d="M158.725 65.5083C158.656 65.5083 158.588 65.4824 158.537 65.4307C158.434 65.3269 158.434 65.1592 158.537 65.056L162.382 61.223L164.815 57.3738L166.215 53.4174L166.569 49.4233L165.881 45.45L164.173 41.5572L161.457 37.7898L157.812 34.2537L153.288 30.9841L147.969 28.0347L141.942 25.4561L135.313 23.2877L128.191 21.5661L120.692 20.3155L112.943 19.5577L105.062 19.3019L97.181 19.554L89.4256 20.3089L81.9212 21.5559L74.7876 23.276L68.1447 25.443L62.1007 28.0219L56.764 30.9733L52.2203 34.2486L48.5551 37.7941L45.8512 41.5258L44.1227 45.4175L43.4181 49.391L43.7519 53.3866L45.1324 57.3436L47.5625 61.2187L50.9881 64.894C51.088 65.0012 51.0822 65.1686 50.9739 65.2685C50.8683 65.3677 50.7001 65.362 50.6002 65.2551L47.1433 61.5399L44.6418 57.5455L43.2271 53.4638L42.8848 49.3662L43.6264 45.2318L45.4062 41.2371L48.1587 37.4481L51.8809 33.8436L56.4788 30.5272L61.8696 27.5467L67.9593 24.9479L74.6422 22.7666L81.8157 21.0374L89.3572 19.7841L97.1468 19.0258L105.062 18.7725L112.977 19.0292L120.761 19.7907L128.297 21.0476L135.459 22.7786L142.127 24.9607L148.203 27.5596L153.574 30.538L158.152 33.8493L161.857 37.4456L164.646 41.3187L166.398 45.3282L167.102 49.4013L166.726 53.5628L165.279 57.6319L162.778 61.577L158.913 65.4313C158.862 65.4823 158.793 65.5083 158.725 65.5083Z" fill="black"/>
<path d="M152.054 126.488C151.949 126.488 151.849 126.424 151.809 126.319C151.755 126.183 151.823 126.03 151.96 125.977L154.701 124.915L156.823 122.269L158.218 118.11L158.766 112.713L158.392 106.494L157.131 99.8735L155.061 93.3211L152.334 87.2989L149.136 82.2421L145.734 78.5178L142.351 76.3542L139.182 75.8474C139.036 75.8242 138.939 75.6882 138.962 75.5439C138.985 75.3993 139.116 75.3035 139.265 75.3243L142.59 75.8784L146.102 78.135L149.556 81.9226L152.799 87.0484L155.554 93.1326L157.645 99.7443L158.917 106.429L159.293 112.724L158.732 118.251L157.266 122.563L155.024 125.357L152.151 126.47C152.12 126.483 152.089 126.488 152.054 126.488Z" fill="black"/>
<path d="M126.06 82.8076L124.206 80.1489L122.591 79.3315C122.463 79.2653 122.409 79.1061 122.477 78.9752C122.543 78.8443 122.702 78.7941 122.834 78.8589L124.562 79.7373L126.302 82.2286L136.288 80.4848L145.843 78.0571L154.021 75.2327L150.464 73.5785L146.599 73.3069C146.453 73.2967 146.342 73.17 146.354 73.024C146.362 72.878 146.502 72.7673 146.636 72.7784L150.641 73.0779L155.432 75.3051L145.994 78.5637L136.399 81.0019L126.06 82.8076Z" fill="black"/>
<path d="M171.936 79.7583L167.31 75.0882L162.518 71.9124L157.74 70.2933L153.313 70.301L146.724 73.2834C146.593 73.3436 146.436 73.2851 146.377 73.1517C146.314 73.0188 146.374 72.8616 146.508 72.8017L153.256 69.7716L157.829 69.7639L162.783 71.4518L167.669 74.6964L172.022 79.0903L179.78 74.4328L186.331 69.2206L191.417 63.6479L194.968 57.8224C195.045 57.6972 195.208 57.6582 195.333 57.7346C195.456 57.8105 195.496 57.9733 195.422 58.0985L191.839 63.9642L186.694 69.6062L180.082 74.8672L171.936 79.7583Z" fill="black"/>
<path d="M204.114 67.687C204.034 67.687 203.954 67.6497 203.903 67.5798L200.075 62.4203L195.024 58.1636C194.91 58.0689 194.896 57.9017 194.99 57.7902C195.087 57.6778 195.252 57.6644 195.363 57.758L200.483 62.0801L204.328 67.2646C204.414 67.3818 204.391 67.5478 204.274 67.6349C204.225 67.6699 204.168 67.687 204.114 67.687Z" fill="black"/>
<path d="M204.116 67.687C204.091 67.687 204.062 67.6828 204.036 67.6739C203.897 67.6289 203.82 67.4803 203.865 67.3411L205.973 60.814L202.174 56.047L197.06 52.1664L191.036 49.5436L184.532 48.3483L178.001 48.6817L171.894 50.4985L166.643 53.6826L162.564 58.0192C162.461 58.1256 162.296 58.1305 162.19 58.0306C162.082 57.9302 162.076 57.7628 162.179 57.6562L166.338 53.2485L171.711 50.0008L177.944 48.1549L184.57 47.8169L184.598 47.8221L191.221 49.0462L197.353 51.7255L202.567 55.6911L206.566 60.7065L204.37 67.5034C204.333 67.6154 204.228 67.687 204.116 67.687Z" fill="black"/>
<path d="M162.369 58.1021C162.36 58.1021 162.354 58.1015 162.346 58.1009C162.2 58.0875 162.092 57.9589 162.106 57.8129L162.451 54.0441L161.821 50.3269L160.227 46.6574C160.17 46.5234 160.229 46.3673 160.364 46.3089C160.498 46.2521 160.654 46.312 160.711 46.4463L162.337 50.2072L162.985 54.0236L162.634 57.8616C162.62 57.9985 162.506 58.1021 162.369 58.1021Z" fill="black"/>
<path d="M157.607 65.3228C157.593 65.3228 157.581 65.3216 157.57 65.3202C157.424 65.2997 157.322 65.1656 157.344 65.0207L157.535 63.6674L156.791 58.0704L156.797 58.0328L157.729 52.1277L160.228 46.4455C160.288 46.3114 160.445 46.2521 160.579 46.3095C160.71 46.3685 160.773 46.5245 160.713 46.6586L158.229 52.3092L157.327 58.0767L158.072 63.6694L157.869 65.0954C157.849 65.2278 157.735 65.3228 157.607 65.3228Z" fill="black"/>
<path d="M157.605 65.3228C157.536 65.3228 157.468 65.2968 157.416 65.2458L154.016 61.8657C153.914 61.7628 153.914 61.5953 154.016 61.4912C154.119 61.3874 154.285 61.3874 154.39 61.4904L157.79 64.8704C157.893 64.9734 157.893 65.1408 157.79 65.2446C157.739 65.2968 157.673 65.3228 157.605 65.3228Z" fill="black"/>
<path d="M157.54 65.4609C157.469 65.4609 157.4 65.433 157.349 65.3782L154.012 61.8601C153.912 61.754 153.915 61.5866 154.023 61.4859C154.129 61.3861 154.294 61.3896 154.397 61.4962L157.731 65.0143C157.834 65.1201 157.828 65.2878 157.723 65.3885C157.671 65.4367 157.606 65.4609 157.54 65.4609Z" fill="black"/>
<path d="M147.731 59.1172C147.657 59.1172 147.585 59.0866 147.531 59.0262L144.867 55.9687L139.311 53.5384L133.161 51.4855L126.55 49.8538L119.402 48.6374L118.763 44.3809L118.561 39.0994L118.797 32.9896L119.448 26.4776L120.474 20.0136L121.735 14.3376L113.609 13.5462L105.337 13.2789L105.334 25.8048L97.696 26.0501L90.4484 26.7588L83.4346 27.9296L76.532 29.6027L74.4727 23.099L72.0197 17.6281L65.0173 19.9015L58.2859 22.7593L53.9618 18.34L49.6264 15.4428L42.8265 19.1483L36.9194 23.3377L32.1333 27.8812L28.4738 32.8116L22.1274 32.7363L16.4228 34.1606L11.5968 36.9925L7.92587 41.0436C7.82889 41.1518 7.66059 41.16 7.5522 41.0619C7.44381 40.9641 7.43527 40.7966 7.53225 40.688L11.2916 36.5561L16.2574 33.6558L22.0647 32.2058L28.2085 32.2791L31.7397 27.5318L36.5857 22.9299L42.547 18.6994L49.6549 14.8245L54.3184 17.9504L58.4114 22.1307L64.8319 19.4061L72.3106 16.9778L74.9661 22.9108L76.8857 28.9721L83.329 27.4111L90.3771 26.2341L97.6618 25.5216L104.804 25.292L104.807 12.7319L113.643 13.0177L122.38 13.8693L120.994 20.1123L119.972 26.5452L119.325 33.0264L119.091 39.0999L119.288 44.3318L119.87 48.1793L126.658 49.3356L133.31 50.9773L139.502 53.0445L145.229 55.5763L147.931 58.6788C148.028 58.7888 148.016 58.9558 147.905 59.0519C147.856 59.0961 147.794 59.1172 147.731 59.1172Z" fill="black"/>
<path d="M147.732 59.1172C147.698 59.1172 147.661 59.1101 147.627 59.0949L141.571 56.4439L139.167 53.3802L137.715 49.0352L137.253 43.701C137.241 43.5552 137.35 43.4272 137.495 43.4146C137.635 43.4012 137.769 43.5099 137.78 43.6556L138.24 48.9583L139.654 53.1677L141.905 56.0115L147.838 58.6101C147.972 58.6682 148.034 58.8245 147.975 58.9583C147.932 59.0581 147.835 59.1172 147.732 59.1172Z" fill="black"/>
<path d="M142.817 46.2451C142.782 46.2451 142.745 46.238 142.711 46.2235L137.412 43.921C137.278 43.8625 137.215 43.7062 137.275 43.5724C137.332 43.4381 137.489 43.3779 137.623 43.435L142.922 45.7375C143.056 45.7959 143.119 45.9519 143.059 46.086C143.016 46.1858 142.919 46.2451 142.817 46.2451Z" fill="black"/>
<path d="M121.904 52.2368C121.847 52.2368 121.79 52.2191 121.744 52.1832L120.401 51.1656L119.448 48.6551L112.395 47.9504L104.825 47.6997L104.805 25.2747L112.46 25.5245L119.736 26.2401L126.779 27.4203L133.47 29.0457L139.703 31.095L145.59 33.6268L143.73 40.0546L143.08 46.0098C143.065 46.155 142.928 46.2557 142.789 46.244C142.643 46.228 142.538 46.0971 142.555 45.9519L143.211 39.9522L144.951 33.9285L139.517 31.5892L133.328 29.5545L126.673 27.9388L119.668 26.7649L112.426 26.0527L105.335 25.8217L105.352 47.188L112.432 47.4227L119.825 48.1609L120.84 50.8359L122.064 51.7614C122.181 51.8495 122.204 52.0155 122.115 52.1318C122.061 52.2006 121.984 52.2368 121.904 52.2368Z" fill="black"/>
<path d="M137.625 55.5088C137.585 55.5088 137.545 55.5002 137.508 55.4814L134.967 54.2288L132.99 51.3057L131.801 47.0614L131.421 41.7616L131.88 35.667L133.15 29.252L135.141 22.9563L137.585 17.505L130.146 15.7148L121.715 14.3146L123.335 8.99632L125.001 5.14597L126.661 2.83692L128.221 2.21514C128.355 2.16181 128.512 2.2274 128.566 2.3629C128.617 2.49892 128.552 2.65294 128.418 2.70712L127 3.27128L125.449 5.43174L123.831 9.1783L122.399 13.8917L130.252 15.1962L138.329 17.1399L135.634 23.1448L133.66 29.3835L132.405 35.7383L131.949 41.7628L132.328 46.9961L133.486 51.1209L135.326 53.8152L137.742 55.0068C137.873 55.0716 137.927 55.2302 137.862 55.3611C137.816 55.4546 137.722 55.5088 137.625 55.5088Z" fill="black"/>
<path d="M175.169 117.052C175.103 117.052 175.035 117.026 174.983 116.975C174.878 116.871 174.878 116.704 174.983 116.601L178.055 113.513C178.161 113.408 178.326 113.409 178.432 113.511C178.535 113.615 178.535 113.782 178.432 113.886L175.357 116.974C175.306 117.026 175.237 117.052 175.169 117.052Z" fill="black"/>
<path d="M129.395 131.487C129.304 131.487 129.212 131.437 129.164 131.349C129.093 131.221 129.141 131.06 129.269 130.99L130.65 130.24L131.811 127.681L144.857 125.328L156.994 122.142L168.152 118.157L178.132 113.46C178.263 113.398 178.42 113.455 178.483 113.587C178.546 113.719 178.489 113.877 178.357 113.939L168.351 118.646L157.15 122.647L144.971 125.844L132.179 128.152L131.058 130.621L129.523 131.455C129.483 131.477 129.438 131.487 129.395 131.487Z" fill="black"/>
<path d="M104.911 133.197C104.768 133.197 104.648 133.081 104.648 132.936L104.628 129.806L104.606 107.166L104.623 84.2106L94.1377 83.8538L83.125 82.7253L85.2385 79.7269L86.9898 78.8493C87.1182 78.7831 87.2808 78.8364 87.3464 78.9679C87.412 79.0985 87.3578 79.2574 87.2266 79.323L85.5951 80.1404L84.0805 82.2909L94.1719 83.3259L105.153 83.6987L105.136 107.166L105.176 132.929C105.179 133.074 105.062 133.195 104.916 133.197C104.914 133.197 104.914 133.197 104.911 133.197Z" fill="black"/>
<path d="M57.7934 126.469C57.762 126.469 57.7307 126.463 57.6993 126.451L54.8071 125.336L52.5024 122.461L51.0534 118.171L50.5058 112.91L39.0852 108.845L28.7057 103.978C28.5745 103.915 28.5175 103.758 28.5802 103.626C28.6401 103.494 28.7999 103.436 28.9311 103.498L39.2849 108.356L50.9993 112.523L51.5783 118.087L52.9902 122.246L55.1294 124.894L57.8904 125.957C58.0244 126.01 58.0929 126.162 58.0416 126.299C58.0016 126.404 57.8989 126.469 57.7934 126.469Z" fill="black"/>
<path d="M34.6982 117.022C34.6298 117.022 34.5642 116.997 34.51 116.945L31.3667 113.777L29.3416 109.262L28.5572 103.776C28.5373 103.631 28.6371 103.497 28.7826 103.476C28.9252 103.456 29.0592 103.556 29.082 103.701L29.8607 109.15L31.8288 113.515L34.8865 116.57C34.9892 116.674 34.9892 116.841 34.8865 116.945C34.8351 116.997 34.7667 117.022 34.6982 117.022Z" fill="black"/>
<path d="M76.9127 51.4829C76.7929 51.4829 76.6845 51.4022 76.656 51.2813C76.6217 51.1398 76.7073 50.9961 76.8499 50.9613L83.4872 49.3276L90.4924 48.1385L97.7287 47.4201L105.353 47.1702L105.37 50.8538C105.373 50.9995 105.256 51.1196 105.11 51.121C105.108 51.121 105.108 51.121 105.108 51.121C104.962 51.121 104.842 51.0043 104.842 50.8589L104.825 47.7173L97.7629 47.9477L90.5637 48.6633L83.5956 49.8458L76.9754 51.4752C76.9555 51.4803 76.9326 51.4829 76.9127 51.4829Z" fill="black"/>
<path d="M52.5767 65.4341C52.4912 65.4341 52.4085 65.3936 52.3571 65.3183L52.1803 65.0567L54.4279 60.1463L55.1181 54.6887L54.2482 48.8713L51.8066 42.9053L55.3749 39.4337L59.6675 36.3209L64.6961 33.5232L70.3836 31.0833L76.9125 28.9422L78.236 35.6201L78.7094 41.7068L78.333 47.0979L77.1664 51.2893C77.1293 51.4302 76.9838 51.5129 76.8412 51.4733C76.7014 51.4345 76.6187 51.2882 76.6558 51.1476L77.8139 46.9821L78.1818 41.7094L77.714 35.6926L76.5103 29.6319L70.569 31.5784L64.93 33.9984L59.9499 36.767L55.7171 39.8378L52.4313 43.0353L54.7673 48.7612L55.6515 54.6828L54.927 60.3297L52.785 65.006L52.7964 65.0205C52.8791 65.1415 52.8477 65.3057 52.7251 65.3879C52.6794 65.419 52.6281 65.4341 52.5767 65.4341Z" fill="black"/>
<path d="M88.3045 52.2275C88.2247 52.2275 88.1448 52.1919 88.0935 52.1243C88.005 52.0079 88.025 51.8419 88.142 51.7529L89.3456 50.8286L90.2783 48.3338L90.8716 44.2961L91.0541 39.0725L90.8117 33.0023L90.1585 26.5215L89.1374 20.0868L87.7598 13.8581L96.4849 13.0136L104.808 12.7489L104.839 0.969112C104.842 0.824512 104.959 0.708168 105.105 0.708168C105.105 0.708168 105.105 0.708168 105.107 0.708168C105.253 0.710136 105.37 0.82996 105.367 0.976528L105.35 4.00805L105.338 13.2617L96.5191 13.5418L88.4072 14.3276L89.6565 19.9881L90.6834 26.4536L91.3394 32.9658L91.5847 39.0713L91.3964 44.3434L90.7832 48.4924L89.7906 51.1566L88.4643 52.1728C88.4158 52.2101 88.3587 52.2275 88.3045 52.2275Z" fill="black"/>
<path d="M52.9892 58.311C52.8609 58.311 52.7496 58.2181 52.7268 58.0877L51.8112 52.2814L49.3297 46.6582L45.4278 41.5777L40.1682 37.2123L43.3171 32.9113L47.1392 29.2372L42.199 25.72L36.6941 23.3787L31.2462 22.553L26.2347 23.2674L21.9591 25.4967C21.8308 25.5634 21.6711 25.5138 21.6026 25.3846C21.5342 25.2548 21.5855 25.0951 21.7167 25.0272L26.115 22.7498L31.2491 22.0174L31.289 22.0236L36.8709 22.8781L42.4842 25.2722L47.9664 29.1762L43.7136 33.2581L40.8898 37.1233L45.83 41.2318L49.8004 46.4152L52.3275 52.1644L53.2516 58.005C53.2744 58.1493 53.1746 58.2851 53.032 58.3079C53.0178 58.3099 53.0035 58.311 52.9892 58.311Z" fill="black"/>
<path d="M52.9901 58.311C52.9359 58.311 52.8846 58.2951 52.8361 58.262C52.7163 58.1773 52.6906 58.0116 52.7762 57.8929L55.1693 54.5323L58.3267 51.4226L57.5281 45.6551L55.3204 39.7407L51.8406 34.1745L47.1543 29.1668L52.3683 25.4319L58.4323 22.0975L62.2144 27.6292L65.0639 33.6417L66.8808 39.8861L67.5596 45.9591L67.5568 45.9865L67.012 51.43L65.3519 55.8229C65.3006 55.9598 65.1466 56.0279 65.0097 55.9769C64.8728 55.9253 64.8043 55.7721 64.8556 55.6355L66.5043 51.2755L67.0262 45.9623L66.3645 39.9888L64.5704 33.8291L61.7581 27.8918L58.2669 22.7923L52.6507 25.8791L47.953 29.2458L52.2571 33.8533L55.8082 39.5307L58.0472 45.5538L58.8858 51.6134L55.5686 54.8745L53.2069 58.1998C53.1555 58.2722 53.0728 58.311 52.9901 58.311Z" fill="black"/>
<path d="M65.1038 55.9937C65.0011 55.9937 64.9042 55.934 64.8614 55.8348C64.8043 55.7005 64.8642 55.5447 64.9983 55.4866L70.623 53.0349L76.8296 50.9668C76.9693 50.9203 77.1177 50.9962 77.1633 51.1345C77.209 51.2728 77.1348 51.4229 76.995 51.4694L70.8141 53.5286L65.2094 55.9714C65.1751 55.9862 65.1409 55.9937 65.1038 55.9937Z" fill="black"/>
<path d="M72.5615 55.4917C72.4646 55.4917 72.3704 55.4378 72.3248 55.3443C72.2592 55.2136 72.3134 55.0548 72.4446 54.9897L74.8462 53.8001L76.6916 51.0703C76.7744 50.95 76.937 50.9169 77.0596 50.9996C77.1794 51.0812 77.2108 51.246 77.1309 51.367L75.2056 54.2125L72.6813 55.4643C72.6414 55.4828 72.6015 55.4917 72.5615 55.4917Z" fill="black"/>
<path d="M72.0403 17.605L68.9826 12.6879L65.8908 9.27426L62.8616 7.37474L60.0521 7.06359C59.9067 7.04734 59.8011 6.9167 59.8182 6.77152C59.8353 6.62607 59.9608 6.52224 60.1092 6.53708L63.0898 6.8939L66.2616 8.89209L69.4048 12.3708L72.2884 17.0012L79.8613 15.185L87.7422 13.881L86.3075 9.13879L84.7159 5.41848L83.1785 3.25746L81.778 2.69244C81.644 2.63768 81.5784 2.4831 81.6325 2.34762C81.6867 2.21243 81.8408 2.14799 81.9777 2.20133L83.5208 2.82421L85.1894 5.18434L86.8066 8.95823L88.4239 14.3051L79.9668 15.7035L72.0403 17.605Z" fill="black"/>
<path d="M199.609 96.52C199.566 96.52 199.526 96.5103 199.486 96.4901C199.355 96.4225 199.306 96.2622 199.375 96.1327L201.893 91.3118L202.872 85.7536C202.897 85.6101 203.04 85.5106 203.18 85.5391C203.322 85.5645 203.419 85.7014 203.394 85.8457L202.381 91.5209L199.842 96.378C199.794 96.4684 199.703 96.52 199.609 96.52Z" fill="black"/>
<path d="M197.387 92.5122C197.325 92.5122 197.262 92.49 197.21 92.4452C197.102 92.3479 197.093 92.1805 197.19 92.0713L202.935 85.6235C203.032 85.5148 203.2 85.5046 203.309 85.6021C203.42 85.6993 203.428 85.8668 203.331 85.976L197.584 92.4238C197.533 92.4822 197.461 92.5122 197.387 92.5122Z" fill="black"/>
<path d="M197.386 92.5122C197.252 92.5122 197.138 92.4109 197.123 92.2749L196.502 86.2692L194.391 80.2319L190.911 74.5524L186.322 69.6283L180.928 65.815L175.127 63.3651L169.316 62.4575L163.937 63.1209L159.188 66.8309L153.389 70.264L149.473 71.9471C149.339 72.0038 149.182 71.9422 149.125 71.8079C149.068 71.6735 149.128 71.5178 149.262 71.4599L153.152 69.7926L158.891 66.3946L163.729 62.6132L169.325 61.923L175.301 62.8645L181.21 65.3661L186.69 69.2472L191.35 74.2539L194.882 80.0302L197.024 86.1839L197.648 92.2201C197.665 92.3656 197.56 92.4957 197.414 92.5108C197.403 92.5116 197.394 92.5122 197.386 92.5122Z" fill="black"/>
<path d="M159.767 63.3154C159.727 63.3154 159.687 63.3066 159.65 63.2875C159.518 63.2222 159.464 63.063 159.53 62.9321L162.134 57.719C162.2 57.5887 162.359 57.5354 162.49 57.6004C162.622 57.6657 162.673 57.8248 162.607 57.9557L160.003 63.1691C159.958 63.2615 159.864 63.3154 159.767 63.3154Z" fill="black"/>
<path d="M161.034 61.8608C161.006 61.8608 160.974 61.856 160.946 61.8452C160.809 61.7967 160.735 61.6453 160.786 61.5078L162.121 57.7493C162.169 57.6115 162.32 57.5376 162.457 57.5884C162.597 57.6369 162.668 57.7883 162.62 57.9261L161.282 61.6846C161.245 61.793 161.142 61.8608 161.034 61.8608Z" fill="black"/>
<path d="M161.034 61.8608C160.969 61.8608 160.9 61.8355 160.849 61.7853C160.744 61.6829 160.744 61.5155 160.846 61.4111L164.925 57.259L170.045 54.426L171.525 50.1986L171.913 45.6609L178.314 43.3546L184.948 42.5838L184.979 42.5869L191.608 43.3726L197.878 45.6791L197.444 52.0194L195.445 58.0439C195.399 58.1825 195.251 58.2589 195.111 58.2119C194.971 58.1659 194.897 58.0159 194.942 57.8773L196.931 51.885L197.321 46.0388L191.457 43.8803L184.948 43.1162L178.405 43.8772L172.409 46.0433L172.036 50.3418L170.478 54.791L165.216 57.7036L161.223 61.7813C161.171 61.8343 161.103 61.8608 161.034 61.8608Z" fill="black"/>
<path d="M195.193 58.2251C195.153 58.2251 195.113 58.2157 195.073 58.1963L189.129 55.1525L182.435 53.4492L184.289 48.0285L184.682 42.8642L183.724 37.7364L181.448 32.7235L177.88 27.8886L173.245 23.473L167.863 25.7567L162.919 29.2705L166.693 32.9118L169.851 37.2484L164.597 41.6101L160.68 46.7134C160.589 46.8292 160.424 46.8514 160.31 46.7619C160.193 46.6729 160.17 46.5069 160.261 46.3908L164.234 41.222L169.129 37.1583L166.294 33.2578L162.095 29.2086L167.629 25.2804L173.356 22.8495L178.273 27.5401L181.919 32.4791L184.238 37.6075L185.216 42.8354L184.799 48.1683L183.122 53.0779L189.343 54.6677L195.316 57.7246C195.444 57.7913 195.496 57.951 195.43 58.0808C195.384 58.1723 195.29 58.2251 195.193 58.2251Z" fill="black"/>
<path d="M160.47 46.8164C160.387 46.8164 160.307 46.7782 160.256 46.7058L157.715 43.1532L154.32 39.8396L150.105 36.7744L144.925 33.8881L147.857 27.6899L151.346 22.5889L145.073 19.9164L137.555 17.4691L140.698 12.4294L143.998 8.78836L152.735 11.6125L160.573 14.9224L167.518 18.7197L173.368 22.8835L178.827 22.0609L178.864 22.0661L184.053 22.8074L189.695 28.1485L193.919 33.8042C194.007 33.9218 193.982 34.0872 193.865 34.1744C193.748 34.262 193.582 34.2386 193.497 34.1208L189.301 28.499L183.81 23.3079L178.827 22.5954L173.234 23.4388L167.236 19.1672L160.342 15.3984L152.552 12.1082L144.161 9.39729L141.12 12.7474L138.362 17.1753L145.259 19.4213L152.147 22.355L148.316 27.9525L145.615 33.6668L150.39 36.3292L154.66 39.4366L158.114 42.8098L160.687 46.3977C160.77 46.5167 160.744 46.6821 160.624 46.7668C160.578 46.8004 160.524 46.8164 160.47 46.8164Z" fill="black"/>
<path d="M159.766 63.3154C159.757 63.3154 159.749 63.3149 159.743 63.3143C159.595 63.3009 159.489 63.1717 159.503 63.0262L159.868 59.29L162.521 53.8575L166.688 49.1921L171.871 45.7279L171.132 41.5552L169.147 37.0812L175.322 33.9367L181.674 32.3238L187.958 32.2525L193.771 33.7057C193.913 33.7413 193.999 33.8851 193.965 34.0268C193.93 34.1688 193.788 34.2533 193.642 34.2196L187.898 32.783L181.711 32.8526L175.482 34.4424L169.834 37.3253L171.648 41.4312L172.453 45.976L167.01 49.6136L162.94 54.1827L160.365 59.4782L160.031 63.075C160.017 63.2125 159.903 63.3154 159.766 63.3154Z" fill="black"/>
<path d="M38.0215 46.1704L31.5668 43.8368L24.707 43.0359L25.7738 37.5017L28.1954 32.2341L34.7528 33.9178L40.8767 37.0468L38.8658 41.5198L38.0215 46.1704ZM25.3345 42.5759L31.718 43.3286L37.6108 45.4602L38.3724 41.3321L40.1864 37.2887L34.5389 34.4029L28.492 32.8565L26.2701 37.6934L25.3345 42.5759Z" fill="black"/>
<path d="M178.243 113.964C178.155 113.964 178.069 113.919 178.018 113.838C177.941 113.714 177.981 113.551 178.103 113.474L186.757 108.141L193.845 102.345L196.201 97.722L197.128 92.2037C197.151 92.0597 197.294 91.9644 197.433 91.9866C197.576 92.0109 197.673 92.1475 197.65 92.2915L196.692 97.9259L194.225 102.72L187.062 108.571L178.383 113.924C178.34 113.951 178.292 113.964 178.243 113.964Z" fill="black"/>
<path d="M178.243 113.964C178.206 113.964 178.172 113.957 178.135 113.94C178.004 113.881 177.944 113.725 178.004 113.591L179.975 109.183L180.759 103.612L180.867 103.546L189.832 98.0505L197.222 92.0425C197.334 91.9504 197.502 91.9675 197.593 92.0807C197.685 92.1939 197.667 92.3608 197.556 92.453L190.14 98.4815L181.25 103.932L180.474 109.365L178.486 113.807C178.44 113.905 178.346 113.964 178.243 113.964Z" fill="black"/>
<path d="M151.477 51.8071C151.42 51.8071 151.366 51.7906 151.32 51.7552L147.341 48.8298L142.689 46.2113C142.561 46.1394 142.515 45.978 142.586 45.8508C142.661 45.7227 142.823 45.6782 142.949 45.7501L147.626 48.386L151.634 51.3294C151.751 51.4158 151.777 51.5812 151.688 51.699C151.637 51.7698 151.557 51.8071 151.477 51.8071Z" fill="black"/>
<path d="M154.203 61.9429C154.149 61.9429 154.094 61.9257 154.046 61.8912L149.83 58.7722L144.816 55.9335L143.09 51.3832L142.554 46.0073C142.54 45.8618 142.645 45.732 142.791 45.7175C142.931 45.7015 143.065 45.8091 143.079 45.9545L143.615 51.2954L145.244 55.5664L150.118 58.329L154.362 61.4651C154.479 61.5521 154.505 61.7179 154.417 61.8354C154.365 61.9055 154.285 61.9429 154.203 61.9429Z" fill="black"/>
<path d="M154.205 61.9429C154.105 61.9429 154.008 61.8844 153.965 61.7857L151.877 57.0506L151.215 51.5746C151.195 51.4294 151.301 51.2977 151.444 51.28C151.589 51.2577 151.723 51.3658 151.74 51.5104L152.399 56.9471L154.447 61.5707C154.507 61.7044 154.447 61.8607 154.313 61.92C154.279 61.9357 154.242 61.9429 154.205 61.9429Z" fill="black"/>
</svg>
