<?xml version="1.0" encoding="utf-8"?>
<!-- Generator: Adobe Illustrator 26.0.0, SVG Export Plug-In . SVG Version: 6.00 Build 0)  -->
<svg version="1.1" id="icon-github" xmlns="http://www.w3.org/2000/svg" xmlns:xlink="http://www.w3.org/1999/xlink" x="0px" y="0px"
	 viewBox="0 0 50 49.6" style="enable-background:new 0 0 50 49.6;" xml:space="preserve">
<style type="text/css">
	.st0{fill:#EEEEEE;}
</style>
<path class="st0" d="M42.7,7.3C38,2.6,31.7,0,25,0S12,2.6,7.3,7.3C2.6,12,0,18.3,0,25s2.6,13,7.3,17.7c3.6,3.6,8.1,6,13.1,6.9
	c0-0.9-0.1-1.8-0.1-2.6c0,0,0,0,0,0c0,0,0-0.1,0-0.1v-4.9c0,0,0-0.1,0-0.1c0-0.6,0-1.3,0.3-1.8c0.2-0.6,0.5-1.1,1-1.6
	c0.3-0.3,0.4-0.9,0.3-1.3s-0.6-0.8-1-0.8c-5.1-0.6-9.9-2.4-9.9-10.7c0-2.1,0.8-4.1,2.2-5.6c0.3-0.4,0.4-0.9,0.3-1.3
	c-0.6-1.5-0.6-3.2-0.1-4.7c0.8,0.1,2.5,0.6,5.1,2.3c0.3,0.2,0.7,0.3,1,0.2c3.7-1,7.6-1,11.3,0c0.4,0.1,0.7,0,1-0.2
	c2.6-1.8,4.3-2.2,5.1-2.3c0.5,1.5,0.4,3.2-0.1,4.7c-0.2,0.5-0.1,1,0.3,1.3c1.4,1.5,2.2,3.5,2.2,5.5c0,3.8-1,6.6-3,8.3
	c-1.5,1.3-3.7,2.1-6.8,2.4c-0.5,0.1-0.9,0.4-1.1,0.8c-0.2,0.5-0.1,1,0.3,1.3c0.4,0.5,0.8,1,1,1.6c0.2,0.6,0.3,1.2,0.3,1.9
	c0,0,0,0.1,0,0.1v4.9c0,0.1,0,0.2,0.1,0.4c0,0.7,0,1.5,0,2.2c0,0.1,0,0.1,0,0.2c4.9-0.9,9.3-3.3,12.9-6.9C47.4,38,50,31.7,50,25
	C50,18.3,47.4,12,42.7,7.3z M32.2,46.2v-4.3c0.1-1-0.1-2-0.4-2.9c-0.1-0.2-0.2-0.4-0.3-0.7c2-0.4,4.3-1.1,6.1-2.7
	c2.6-2.2,3.9-5.6,3.9-10.2c0-2.5-0.8-4.8-2.4-6.7c0.6-2.2,0.5-4.5-0.4-6.6c-0.1-0.3-0.4-0.6-0.8-0.7c-0.4-0.1-2.7-0.6-7.3,2.4
	c-3.8-0.9-7.7-0.9-11.5,0c-4.6-2.9-6.8-2.5-7.3-2.4c-0.4,0.1-0.7,0.4-0.8,0.7c-0.9,2.1-1.1,4.4-0.4,6.6c-1.6,1.9-2.4,4.3-2.4,6.8
	c0,9.2,5.3,11.9,10.1,12.9c-0.1,0.2-0.2,0.4-0.3,0.7c-0.3,0.9-0.5,1.9-0.4,2.9v0.8c-4.4-0.5-6.9-3.3-7.3-7.9
	c-0.1-0.7-0.7-1.2-1.4-1.2c-0.7,0.1-1.2,0.7-1.2,1.4c0.3,3.1,1.3,5.6,3.1,7.4c1.7,1.6,3.9,2.6,6.7,2.9v0.9C8.9,43.2,2.6,34.8,2.6,25
	C2.6,12.6,12.6,2.6,25,2.6S47.4,12.6,47.4,25C47.4,34.8,41.1,43.2,32.2,46.2z"/>
</svg>
