<svg width="76" height="76" viewBox="0 0 76 76" fill="none" xmlns="http://www.w3.org/2000/svg">
<path d="M64.8711 11.1299L40.9234 38L64.8711 64.8701L38.001 40.9233L11.1309 64.8701L35.0777 38L11.1309 11.1299L38.001 35.0775L64.8711 11.1299Z" fill="#E0E0E0"/>
<path d="M38.0002 0L40.0666 35.9334L75.9996 37.9997L40.0666 40.0669L38.0002 76L35.9331 40.0669L0 37.9997L35.9331 35.9334L38.0002 0Z" fill="#E0E0E0"/>
<path d="M73.0047 23.212L40.7082 39.0998L52.7885 73.0044L36.9008 40.7087L2.99609 52.7883L35.2918 36.9005L23.2122 2.99604L39.1 35.2923L73.0047 23.212Z" fill="#E0E0E0"/>
<path d="M52.2945 2.79147L40.6922 36.8623L73.2083 52.2952L39.1377 40.6929L23.7048 73.209L35.3071 39.1376L2.79102 23.7055L36.8624 35.3078L52.2945 2.79147Z" fill="#E0E0E0"/>
</svg>
