<svg width="123" height="123" viewBox="0 0 123 123" fill="none" xmlns="http://www.w3.org/2000/svg">
<path d="M61.3714 1.52588e-05L65.9894 37.1431C67.2647 47.3989 75.3443 55.4787 85.6007 56.7533L122.742 61.3719L85.6007 65.9904C75.3443 67.265 67.2647 75.3448 65.9894 85.6006L61.3714 122.744L56.7533 85.6006C55.4779 75.3448 47.3985 67.265 37.142 65.9904L0 61.3719L37.142 56.7533C47.3985 55.4787 55.4779 47.3989 56.7533 37.1431L61.3714 1.52588e-05Z" fill="#141414"/>
<path d="M92.3632 30.3792L84.3557 40.6615C74.8713 52.8399 74.8713 69.9035 84.3557 82.0818L92.3632 92.3643L82.0815 84.3564C69.9035 74.8713 52.8393 74.8713 40.6613 84.3564L30.3789 92.3643L38.3871 82.0818C47.8715 69.9035 47.8715 52.8399 38.3871 40.6615L30.3789 30.3792L40.6613 38.3869C52.8393 47.872 69.9035 47.872 82.0815 38.3869L92.3632 30.3792Z" fill="#141414"/>
</svg>
