<svg width="98" height="99" viewBox="0 0 98 99" fill="none" xmlns="http://www.w3.org/2000/svg">
<g clip-path="url(#clip0_147_11975)">
<g opacity="0.7">
<path d="M46.4607 98.0401L43.9207 97.9301C43.5309 97.9236 43.1477 97.8278 42.8007 97.6501C42.7107 97.5301 42.7007 97.5401 42.7507 97.6501C42.8007 97.7601 42.7507 97.7901 42.4607 97.7501L41.6307 97.6401C41.1307 97.5701 40.6307 97.4101 40.8907 97.4001C40.9073 97.4015 40.924 97.3994 40.9397 97.394C40.9554 97.3886 40.9699 97.38 40.9821 97.3687C40.9943 97.3574 41.0041 97.3437 41.0107 97.3284C41.0174 97.3132 41.0208 97.2967 41.0207 97.2801C41.0207 97.1301 40.9507 97.1401 40.6807 97.2801C40.6147 97.3269 40.54 97.3599 40.4609 97.3771C40.3819 97.3943 40.3002 97.3953 40.2207 97.3801C39.9107 97.3201 39.8007 97.2201 39.9507 97.1301C40.1007 97.0401 40.0307 97.0501 39.9507 97.0501C39.9218 97.0527 39.894 97.0623 39.8697 97.0779C39.8453 97.0936 39.8251 97.1149 39.8107 97.1401C39.4609 97.2139 39.0976 97.1897 38.7607 97.0701C38.5836 97.0015 38.399 96.9545 38.2107 96.9301C36.5924 96.5372 34.9994 96.0463 33.4407 95.4601C28.7407 93.8801 28.5407 93.8001 26.7007 92.7001C26.0607 92.3201 24.6007 91.4701 23.4407 90.8101C22.7252 90.4298 22.0339 90.0056 21.3707 89.5401C21.3707 89.4401 21.2107 89.3401 21.0707 89.3801C20.9307 89.4201 20.6207 89.1401 20.0707 88.6301L17.2907 86.2901C14.2907 83.7801 14.0007 83.5301 13.6807 82.9901C12.4191 81.3026 11.0566 79.693 9.60072 78.1701C9.47072 78.1701 9.26071 77.8601 8.18071 76.0101C7.74071 75.2601 6.78069 73.6401 6.04069 72.4201C5.30069 71.2001 4.67071 70.1001 4.65071 69.9801C4.57071 69.6801 2.2807 63.8801 2.0807 63.5001C1.91169 63.064 1.83672 62.5971 1.8607 62.1301C1.81611 61.2909 1.69563 60.4575 1.50071 59.6401C1.33071 58.8701 1.07071 57.6401 0.930706 57.0101C0.87549 56.6661 0.77808 56.3302 0.640698 56.0101C0.640698 56.1101 0.570712 56.2001 0.530712 56.2101C0.431362 55.8522 0.387514 55.4812 0.400707 55.1101C0.130707 49.5501 0.020711 46.7501 0.060711 46.3401C0.240711 44.4201 0.950711 38.8501 1.06071 38.6101C1.17071 38.3701 1.9007 35.8901 2.6107 33.3601C2.95949 32.1215 3.45643 30.9296 4.09071 29.8101C4.71071 28.5501 5.47069 26.9701 5.79069 26.3001C6.73655 24.1885 7.93174 22.1977 9.35072 20.3701C10.2157 18.9535 11.2537 17.6502 12.4407 16.4901L15.5307 13.4901C16.7244 12.1758 18.0668 11.0046 19.5307 10.0001C19.9607 9.72008 21.2007 8.88008 22.2807 8.14008C23.3607 7.40008 24.6807 6.56008 25.2007 6.28008L26.5007 5.57008C26.9465 5.34317 27.4038 5.13956 27.8707 4.96008C28.4407 4.73008 29.6907 4.19008 30.6607 3.76008C31.6307 3.33008 33.0507 2.76008 33.8307 2.49008C35.5227 1.92678 37.2587 1.50532 39.0207 1.23008C41.6683 0.585507 44.3698 0.187144 47.0907 0.0400805C50.0766 -0.0525566 53.0648 0.118104 56.0207 0.550081C56.8907 0.660081 60.1007 1.32008 61.4007 1.65008C63.2523 2.13396 65.0751 2.72156 66.8607 3.41008C67.0907 3.53008 67.6907 3.79008 68.1907 3.99008C69.0107 4.32008 74.6507 7.36008 75.8907 8.14008C77.3911 9.11162 78.8062 10.2089 80.1207 11.4201L82.2807 13.3401C82.5507 13.5701 83.2807 14.2701 83.9907 14.9001C85.0259 15.8711 85.9575 16.9468 86.7707 18.1101C87.6307 19.2401 88.5307 20.4101 88.7707 20.7001C89.9952 22.295 91.054 24.0105 91.9307 25.8201C92.5607 27.0401 93.3007 28.4601 93.5907 28.9901C94.2705 30.3673 94.7938 31.8163 95.1507 33.3101C96.7807 38.5401 96.9007 39.0101 97.0507 40.6301C97.0507 40.8801 97.0507 40.7101 96.9407 40.2501C96.8107 39.4801 96.6507 38.8801 96.6407 39.1201C96.6307 39.3601 97.2707 43.9601 97.3607 44.2501L97.4707 44.6001V44.1801C97.4707 43.9501 97.3507 43.1801 97.2607 42.4401C97.1822 42.0043 97.1387 41.5628 97.1307 41.1201C97.1307 41.1201 97.2807 41.9901 97.4207 43.0501C97.5607 44.1101 97.7507 45.3201 97.8307 45.7301C97.9807 46.4801 97.9807 46.5401 97.8307 50.2701L97.6907 54.0401L96.8607 58.1301C95.7707 63.4801 95.8607 63.2601 95.0907 65.1301C94.0907 67.7001 93.5107 69.2101 93.3407 69.7701C92.9645 70.6209 92.5266 71.443 92.0307 72.2301L90.2607 75.2301C89.9107 75.8101 89.5707 76.4101 89.5007 76.5501C89.3407 76.8501 85.0707 82.0101 83.9807 83.2201C83.7239 83.5261 83.4357 83.8043 83.1207 84.0501C82.8016 84.2381 82.5033 84.4593 82.2307 84.7101C79.3907 87.1701 78.8207 87.7101 78.2307 88.2301C77.6407 88.7501 77.2307 89.0801 77.6207 88.5901C77.7307 88.4401 77.8007 88.3201 77.7807 88.3201C77.7607 88.3201 72.2307 91.7301 72.0707 91.9301L71.6907 92.3501C71.1244 92.7748 70.4973 93.1119 69.8307 93.3501C68.9107 93.6901 64.3007 95.5401 63.9107 95.7401C62.5693 96.2282 61.1772 96.5637 59.7607 96.7401L56.1207 97.5001C55.5671 97.6354 55.0062 97.7389 54.4407 97.8101C53.8707 97.8801 46.5807 98.0401 46.3807 97.9801L46.4607 98.0401ZM41.8607 97.4501C41.8227 97.393 41.7662 97.3506 41.7007 97.3301C41.7007 97.3301 41.6307 97.3301 41.6307 97.4501C41.6307 97.5701 41.7007 97.5601 41.7907 97.5601C41.8807 97.5601 41.9407 97.5601 41.8607 97.4501ZM56.0607 97.3301C56.1307 97.2801 55.8907 97.2801 55.3707 97.3301C55.0927 97.3329 54.8153 97.3563 54.5407 97.4001C55.0454 97.4624 55.556 97.4624 56.0607 97.4001V97.3301ZM55.1807 97.1001C55.6642 97.0924 56.146 97.0422 56.6207 96.9501C56.6707 96.9501 56.6207 96.8701 56.5207 96.8701C56.1407 96.8701 52.5907 97.1901 52.5207 97.2301C52.7235 97.2517 52.928 97.2517 53.1307 97.2301L55.1307 97.1101L55.1807 97.1001ZM54.0707 96.8301C55.5207 96.7201 56.7407 96.5901 56.7807 96.5601C56.8207 96.5301 56.7807 96.4601 56.7807 96.4101C56.7807 96.3601 56.5507 96.4101 56.2107 96.4101L53.5807 96.7201C52.4107 96.8501 51.4007 96.9601 51.3407 96.9801C51.0607 97.0501 51.5807 96.9801 54.0807 96.8301H54.0707ZM53.0707 96.5301C54.8307 96.3401 56.3507 96.1601 56.4507 96.1401H56.6407L56.4807 95.9801C56.3407 95.8401 56.2907 95.8301 55.9207 95.9201C55.5507 96.0101 54.1507 96.2101 52.5007 96.4601C50.8507 96.7101 49.5007 96.9301 49.4507 96.9601C49.4007 96.9901 49.5107 96.9601 49.6407 96.9601C49.7707 96.9601 51.3107 96.7501 53.0707 96.5601V96.5301ZM60.8407 96.1601C63.8907 95.4901 64.4807 95.3201 64.3107 95.1601C64.1407 95.0001 57.5207 96.7201 57.4207 96.8101C57.3207 96.9001 57.5307 96.8901 60.8407 96.1701V96.1601ZM59.7207 96.6701C59.6987 96.6601 59.6748 96.655 59.6507 96.655C59.6266 96.655 59.6027 96.6601 59.5807 96.6701C59.5107 96.6701 59.5307 96.6701 59.5807 96.6701C59.6307 96.6701 59.7107 96.6701 59.6807 96.6701H59.7207ZM51.7207 96.2501L54.8707 95.7901C56.0207 95.6201 56.1307 95.5701 55.7407 95.3501C55.5807 95.2601 55.4807 95.2501 55.1407 95.3501L52.0207 95.9801C50.5307 96.2701 49.2407 96.5501 49.1607 96.5901C49.0807 96.6301 49.0307 96.6801 51.7207 96.2701V96.2501ZM61.5907 96.3101C63.0407 96.0001 63.3307 95.9301 63.2407 95.8501C63.1507 95.7701 60.2407 96.4901 59.8907 96.5901C59.7807 96.5901 59.7807 96.5901 59.8907 96.5901C60.0007 96.5901 60.7107 96.4501 61.5907 96.2701V96.3101ZM60.7507 95.7201C64.9507 94.7201 64.5407 94.8401 64.5407 94.6201C64.5407 94.4001 64.5407 94.4101 64.4507 94.3901C64.3607 94.3701 62.8107 94.7801 60.9207 95.3001C58.2307 96.0301 57.4807 96.3001 57.4607 96.3601C57.4407 96.4201 57.4607 96.4901 57.4607 96.4901C57.4607 96.4901 58.9607 96.1501 60.7307 95.7201H60.7507ZM51.7507 95.7201C53.4807 95.3901 54.9507 95.0901 55.0307 95.0501C55.1107 95.0101 55.1007 94.9601 54.7807 94.8201L54.3907 94.6301L53.7207 94.8401C53.0907 95.0301 51.5307 95.4401 49.4507 95.9701C49.1257 96.0288 48.8097 96.1297 48.5107 96.2701C48.5105 96.287 48.5165 96.3035 48.5275 96.3164C48.5386 96.3292 48.5539 96.3377 48.5707 96.3401L51.7507 95.7201ZM51.0507 95.2201C52.5907 94.8101 53.8507 94.4601 53.8507 94.4401C53.5435 94.251 53.2048 94.1189 52.8507 94.0501C52.6837 94.0796 52.522 94.1335 52.3707 94.2101C52.1907 94.3001 51.1007 94.6901 49.9707 95.0901L47.8107 95.8401C47.6307 95.9101 47.8107 96.0501 48.0107 96.0101L51.0107 95.2201H51.0507ZM60.8007 95.0701C62.5907 94.5901 64.1107 94.1801 64.1807 94.1501C64.2507 94.1201 64.3407 93.9801 64.1207 93.7101L63.9407 93.4901L63.2307 93.7301L59.8107 94.8201C58.3207 95.2801 57.0907 95.6801 57.0707 95.7001C57.0507 95.7201 57.3307 96.0301 57.4407 95.9901L60.8007 95.0701ZM46.1207 95.8201C46.0273 95.7847 45.9241 95.7847 45.8307 95.8201C45.8307 95.8201 45.8807 95.8201 46.0507 95.8201C46.2207 95.8201 46.3207 95.8201 46.1207 95.7501V95.8201ZM45.0307 95.6901C45.3107 95.6301 45.4907 95.5001 45.2807 95.5001C45.0319 95.5314 44.793 95.6167 44.5807 95.7501C44.5307 95.7501 44.5807 95.8101 44.6307 95.7501C44.7619 95.7114 44.8956 95.6813 45.0307 95.6601V95.6901ZM44.3407 95.3401C44.5107 95.1801 43.9907 95.2801 43.7007 95.4701C43.5899 95.5316 43.4889 95.6091 43.4007 95.7001C43.7284 95.6215 44.0444 95.5005 44.3407 95.3401ZM47.3907 95.6401C47.4807 95.6401 48.6207 95.1801 49.9207 94.7301C51.2207 94.2801 52.2807 93.8801 52.2707 93.8501C51.9097 93.6575 51.5222 93.5193 51.1207 93.4401C50.9283 93.4983 50.7461 93.586 50.5807 93.7001C50.3507 93.8401 49.3907 94.3101 48.4507 94.7501C47.873 95.0001 47.3088 95.2805 46.7607 95.5901C46.7607 95.5901 46.9307 95.7001 47.1207 95.7201C47.2154 95.7128 47.3074 95.6856 47.3907 95.6401ZM42.9907 95.3701C43.4107 95.1001 43.4207 95.0801 43.2407 95.0401C43.1556 95.0167 43.0658 95.0167 42.9807 95.0401C42.7839 95.2169 42.6241 95.4311 42.5107 95.6701C42.676 95.5861 42.8362 95.4926 42.9907 95.3901V95.3701ZM42.2507 94.9101C42.2507 94.8501 42.1507 94.8101 42.0207 94.8101C41.8907 94.8101 41.7907 94.8101 41.7907 94.9501C41.7907 95.0901 41.7907 95.2101 41.7907 95.3601V95.6101L42.0607 95.3101C42.1756 95.1954 42.2673 95.0596 42.3307 94.9101H42.2507ZM41.1407 94.7201C41.0729 94.6801 40.9983 94.653 40.9207 94.6401C40.6707 94.6401 40.6707 94.7101 40.9207 95.1401L41.0907 95.4601L41.1407 95.1201C41.156 94.9872 41.156 94.853 41.1407 94.7201ZM46.3707 95.3201C46.4307 95.2601 47.3707 94.7901 48.4707 94.3201C49.5707 93.8501 50.4707 93.3801 50.4707 93.3201C50.4707 93.2601 50.4107 93.2001 49.7107 93.0101L49.0007 92.8201L48.7307 93.0801C48.5807 93.2201 47.8207 93.7601 47.0507 94.2701C46.5711 94.5523 46.125 94.8877 45.7207 95.2701C45.8545 95.3504 46.0051 95.3984 46.1607 95.4101C46.1607 95.4101 46.2807 95.4101 46.3507 95.3201H46.3707ZM60.2507 94.3801C62.1007 93.8001 63.6207 93.3001 63.6307 93.2701C63.5046 93.1347 63.3637 93.014 63.2107 92.9101C62.8107 92.6101 62.7807 92.6001 62.5807 92.7001C62.3807 92.8001 61.0407 93.3001 59.4307 93.9001C57.8207 94.5001 56.4307 95.0101 56.3807 95.0401C56.3307 95.0701 56.3307 95.1301 56.4907 95.2601C56.5761 95.3317 56.6746 95.386 56.7807 95.4201C56.8307 95.4201 58.3907 94.9501 60.2507 94.4201V94.3801ZM40.2507 94.9801C40.0607 94.5701 40.0007 94.5101 39.7807 94.5101C39.5607 94.5101 39.6007 94.5101 39.9607 94.8901C40.1707 95.1001 40.3507 95.2701 40.3607 95.2701C40.3345 95.1698 40.2976 95.0725 40.2507 94.9801ZM68.0307 93.9801C69.1713 93.5949 70.2756 93.1097 71.3307 92.5301C71.4607 92.4101 71.5407 92.2901 71.5207 92.2701C71.5007 92.2501 69.6007 93.0001 65.8607 94.5701C65.5342 94.6791 65.2295 94.845 64.9607 95.0601C64.9607 95.1401 64.9007 95.2001 64.9607 95.2001L68.0707 93.9801H68.0307ZM45.2407 94.9801C45.2407 94.9801 46.0407 94.3901 46.9407 93.7901C47.4905 93.4457 48.0213 93.0718 48.5307 92.6701C48.4807 92.6701 47.0307 92.2701 46.8907 92.2601C46.7507 92.2501 46.7407 92.3701 46.6707 92.5101C46.3203 92.9744 45.9323 93.4092 45.5107 93.8101C44.8607 94.4701 44.5107 94.8801 44.5107 94.9301C44.5107 94.9801 45.1207 95.1201 45.2007 94.9301L45.2407 94.9801ZM39.1107 94.6301C38.8007 94.3401 38.5807 94.2301 38.6407 94.4001C38.843 94.6186 39.0837 94.7982 39.3507 94.9301C39.3507 94.9301 39.2807 94.7901 39.1107 94.6301ZM59.2407 93.6301C60.9407 93.0001 62.3607 92.4601 62.3907 92.4301C62.4207 92.4001 62.1607 92.2101 61.8107 92.0201L61.1607 91.6701L60.6807 91.9101C60.4107 92.0501 59.0707 92.6601 57.6807 93.2701C56.2907 93.8801 55.1907 94.4001 55.1807 94.4301C55.4174 94.6381 55.709 94.7735 56.0207 94.8201L59.2307 93.6301H59.2407ZM38.4007 94.7601C38.2047 94.5729 37.9688 94.4327 37.7107 94.3501C37.6607 94.3501 37.7907 94.4701 37.9907 94.5801C38.3807 94.8001 38.4007 94.8101 38.4007 94.7601ZM44.1407 94.5001C44.2707 94.3501 44.8307 93.7601 45.3707 93.2101C45.7234 92.8967 46.0573 92.5628 46.3707 92.2101C45.7619 92.036 45.1398 91.9122 44.5107 91.8401C44.4933 91.9124 44.4933 91.9878 44.5107 92.0601C44.346 92.5426 44.142 93.0109 43.9007 93.4601C43.5607 94.1301 43.2907 94.6901 43.2907 94.7101C43.4645 94.7843 43.6518 94.8217 43.8407 94.8201C43.9207 94.8201 44.0907 94.7001 44.2207 94.5401L44.1407 94.5001ZM43.2807 93.1201C43.6607 92.3501 43.9607 91.7101 43.9507 91.6901C43.9407 91.6701 42.3107 91.3601 42.1607 91.3601C42.0107 91.3601 42.0807 91.4501 42.1107 91.6801C42.1193 92.1215 42.0926 92.5629 42.0307 93.0001C41.8507 94.4401 41.8607 94.4701 42.1607 94.5101C42.2737 94.523 42.3878 94.523 42.5007 94.5101C42.8034 94.065 43.0645 93.593 43.2807 93.1001V93.1201ZM68.6307 93.1701L71.8007 91.8501V91.4901C71.8225 91.3711 71.8225 91.2491 71.8007 91.1301C71.8007 91.1301 70.2707 91.7901 68.4507 92.6001C67.3001 93.0483 66.1866 93.5866 65.1207 94.2101C65.1207 94.4301 65.1707 94.5801 65.3207 94.5301L68.6207 93.1701H68.6307ZM37.0907 94.4601C37.0234 94.4099 36.9493 94.3695 36.8707 94.3401C36.6907 94.2501 36.6907 94.2601 36.8707 94.3401C37.0507 94.4201 37.2407 94.5201 37.1307 94.4301L37.0907 94.4601ZM41.3007 93.9701C41.3007 93.7701 41.3707 93.0901 41.4407 92.4601C41.502 92.0728 41.5387 91.682 41.5507 91.2901C40.9404 91.161 40.3225 91.0708 39.7007 91.0201C39.7007 91.0201 39.7007 91.1401 39.7707 91.2601C39.8407 91.3801 40.0307 92.0901 40.2207 92.8401C40.6007 94.3201 40.5907 94.3001 41.1307 94.3301C41.2807 94.3301 41.3007 94.3301 41.3007 93.9701ZM58.8007 92.3801C59.8007 91.9201 60.6907 91.5301 60.6907 91.5001C60.4062 91.3481 60.1123 91.2145 59.8107 91.1001C58.9907 90.7501 58.9207 90.7401 58.8107 90.8501C58.7007 90.9601 57.5607 91.5901 56.2107 92.3301C54.8607 93.0701 53.7507 93.7301 53.7507 93.7701C53.8921 93.8874 54.0552 93.9757 54.2307 94.0301L54.7107 94.2301L55.8207 93.7201L58.8207 92.3801H58.8007ZM33.8907 94.1501L30.8907 92.5101C27.9507 90.9001 27.8907 90.9001 27.6807 91.0001L27.4307 91.1001L28.5407 91.6301L31.6707 93.1601C33.3607 94.0101 34.0507 94.3201 33.8807 94.1601L33.8907 94.1501ZM39.8907 94.1501C39.8907 94.0201 39.1107 91.0101 39.0707 90.9701C38.4941 90.8568 37.9083 90.7966 37.3207 90.7901C37.3207 90.7901 37.3207 90.9201 37.4507 91.0201C37.8112 91.5428 38.1449 92.0835 38.4507 92.6401C39.1707 93.9101 39.2907 94.0801 39.4507 94.1201C39.6107 94.1601 39.8707 94.2001 39.8707 94.1201L39.8907 94.1501ZM30.0507 92.6901C29.0966 92.139 28.092 91.6802 27.0507 91.3201C26.9607 91.3201 26.8807 91.4001 26.8807 91.4301C27.0994 91.5801 27.3385 91.698 27.5907 91.7801C27.9707 91.9301 29.3107 92.5201 30.5907 93.0801C31.8707 93.6401 32.8807 94.0801 32.9207 94.0801C32.9607 94.0801 31.7107 93.4501 30.1407 92.6701L30.0507 92.6901ZM34.4607 94.0401L32.1707 92.6101L29.4607 90.9101C29.3115 90.7845 29.1288 90.7052 28.9351 90.6821C28.7415 90.659 28.5453 90.6931 28.3707 90.7801C28.3107 90.7801 28.7007 91.0501 29.2507 91.3401C29.8007 91.6301 31.1207 92.3401 32.1907 92.9301C33.2607 93.5201 34.1907 94.0101 34.2507 94.0301C34.3107 94.0501 34.4607 94.0301 34.4007 94.0301L34.4607 94.0401ZM38.5707 94.0401C38.5707 93.9701 37.4707 92.0401 37.0507 91.3301C36.9478 91.1392 36.8273 90.9584 36.6907 90.7901C36.408 90.7303 36.1197 90.7001 35.8307 90.7001L35.0407 90.6401L35.4307 91.0501C35.6407 91.2801 36.3207 92.0501 36.9407 92.7801C38.0007 94.0201 38.0807 94.1001 38.3307 94.1001C38.5807 94.1001 38.5907 94.1001 38.5707 94.0401ZM34.0407 93.0401L31.6807 91.3201L30.6107 90.5401L30.1107 90.5901C29.9352 90.5998 29.761 90.6265 29.5907 90.6701C29.7188 90.7719 29.8601 90.856 30.0107 90.9201C30.2607 91.0501 31.4707 91.7901 32.7107 92.5601C35.3707 94.2301 35.9607 94.4401 34.0407 93.0401ZM36.2107 93.9101C36.2107 93.9101 35.3507 93.1001 34.3307 92.2001L32.4607 90.5101H31.8207C31.6046 90.4881 31.3868 90.4881 31.1707 90.5101C31.2796 90.6083 31.4006 90.6923 31.5307 90.7601C31.7307 90.8901 32.8007 91.6501 33.9107 92.4501C35.6507 93.7201 36.3007 94.1101 36.2007 93.8401L36.2107 93.9101ZM37.2807 93.8501C36.7907 93.2301 34.5007 90.6001 34.4307 90.5801C34.1745 90.5589 33.9169 90.5589 33.6607 90.5801H32.9807L33.3607 90.8601C33.5707 91.0101 34.4507 91.7801 35.3607 92.5601C36.6907 93.7501 36.9807 93.9801 37.1807 93.9801C37.3807 93.9801 37.4007 93.9801 37.3107 93.8501H37.2807ZM68.4007 92.3801C70.2007 91.5801 71.6907 90.9101 71.7007 90.8901C71.5522 90.5732 71.3529 90.2827 71.1107 90.0301L67.8407 91.6501C66.0707 92.5301 64.6207 93.2801 64.6207 93.3201C64.6207 93.3601 65.0007 93.9101 65.0607 93.8801L68.4007 92.3801ZM31.4007 93.8001C31.4007 93.8001 30.3307 93.3001 29.0507 92.7301C28.2874 92.3146 27.4831 91.9795 26.6507 91.7301C26.5407 91.8401 26.6507 91.9001 27.3607 92.1701C27.7207 92.3001 28.7507 92.7201 29.6507 93.0901C31.1407 93.7101 31.5007 93.8501 31.4007 93.7601V93.8001ZM53.6107 93.3101C53.8907 93.1401 55.0807 92.4901 56.2407 91.8501C57.4007 91.2101 58.3607 90.6601 58.3607 90.6201C58.0407 90.4529 57.706 90.3156 57.3607 90.2101L56.3107 89.8501L56.1207 90.0401C56.0107 90.1401 55.0007 90.8701 53.8807 91.6601C52.7607 92.4501 51.8307 93.1201 51.8307 93.1501C52.213 93.3492 52.6198 93.4972 53.0407 93.5901C53.2572 93.5286 53.463 93.4342 53.6507 93.3101H53.6107ZM29.6107 93.4101C29.5207 93.3301 26.7707 92.2201 26.7307 92.2601C26.6907 92.3001 26.8207 92.4301 27.3207 92.6001C27.6007 92.6901 28.2007 92.9101 28.6607 93.1001C29.4507 93.4101 29.6607 93.4901 29.6107 93.4101ZM28.0107 93.1101C27.7808 92.9855 27.53 92.9042 27.2707 92.8701C27.2707 92.8701 27.3907 92.9501 27.5707 93.0101C27.9207 93.1401 28.0107 93.1601 28.0107 93.1101ZM67.5607 91.4601C69.3407 90.5901 70.8007 89.8301 70.8007 89.7901C70.4711 89.4257 70.0865 89.1153 69.6607 88.8701C69.58 88.8897 69.5048 88.9273 69.4407 88.9801C69.3607 89.0401 67.9807 89.8201 66.3707 90.7101C64.7607 91.6001 63.4407 92.3701 63.4507 92.4001C63.7 92.6483 63.9749 92.8695 64.2707 93.0601L67.5607 91.4601ZM51.3907 92.8001C51.5307 92.6901 52.5307 91.9801 53.6207 91.2101C54.7107 90.4401 55.6207 89.7801 55.6207 89.7401C55.2397 89.5484 54.8367 89.404 54.4207 89.3101L53.2007 88.9601L53.0707 89.1401C53.0007 89.2401 52.1907 90.0201 51.2807 90.8901C50.3707 91.7601 49.6207 92.4901 49.6207 92.5201C50.0792 92.7252 50.5587 92.8794 51.0507 92.9801C51.1779 92.9511 51.2952 92.889 51.3907 92.8001ZM49.0807 92.3201C49.0807 92.3201 49.8707 91.5101 50.8407 90.5901C51.8107 89.6701 52.5907 88.9001 52.5907 88.8701C52.1421 88.6975 51.6807 88.5604 51.2107 88.4601L49.8307 88.1201L49.7607 88.3101C49.7607 88.4101 49.1407 89.3101 48.4607 90.2101C47.7807 91.1101 47.2507 91.9401 47.2607 91.9601C47.8017 92.1307 48.3528 92.2677 48.9107 92.3701C49.0007 92.3701 49.0807 92.3701 49.0807 92.3201ZM66.2407 90.4001C67.9307 89.4701 69.3107 88.6701 69.3107 88.6401C69.0404 88.4222 68.7565 88.2218 68.4607 88.0401C67.7307 87.6301 67.5907 87.5701 67.4607 87.6401C67.0007 87.8801 61.8107 91.2901 61.8107 91.3501C62.1791 91.6608 62.6033 91.8983 63.0607 92.0501C63.1207 92.0501 64.5607 91.2701 66.2507 90.3301L66.2407 90.4001ZM26.0107 91.8801C25.8907 91.7601 20.1107 88.2701 20.0807 88.3001C20.0507 88.3301 20.5807 88.8201 23.0807 90.3001C25.5807 91.7801 26.2707 92.1301 26.0807 91.9101L26.0107 91.8801ZM47.9207 89.9801C48.6507 88.9801 49.2507 88.0901 49.2407 88.0501C48.3045 87.7819 47.3527 87.5715 46.3907 87.4201C46.3723 87.4183 46.3537 87.4207 46.3364 87.4273C46.3191 87.4338 46.3036 87.4443 46.291 87.4578C46.2784 87.4714 46.2691 87.4877 46.2639 87.5054C46.2586 87.5231 46.2575 87.5419 46.2607 87.5601C46.2607 87.6501 45.9307 88.5601 45.5307 89.4901C45.1307 90.4201 44.8107 91.3101 44.8107 91.3701C44.8107 91.4301 44.8807 91.4801 44.9807 91.5001C45.4607 91.6101 46.4607 91.8301 46.5207 91.8301C47.0281 91.2453 47.4958 90.6273 47.9207 89.9801ZM26.0107 91.4301C26.0107 91.3601 24.6307 90.4301 23.0107 89.3601C20.7907 87.9201 20.0107 87.4301 19.9407 87.5101C19.8707 87.5901 19.8807 87.8701 20.2707 88.0901C20.4907 88.2101 21.8607 89.0401 23.2707 89.9301C24.6807 90.8201 25.9307 91.5401 25.9607 91.5401C25.9907 91.5401 26.0207 91.5401 25.9607 91.4301H26.0107ZM75.4607 89.5701L78.3307 87.7901V87.3601C78.3671 87.2157 78.3671 87.0645 78.3307 86.9201C78.2307 86.9201 72.4407 90.6701 72.3307 90.8001C72.2846 90.9022 72.2608 91.013 72.2608 91.1251C72.2608 91.2371 72.2846 91.3479 72.3307 91.4501C72.3907 91.4501 72.1007 91.6801 75.4807 89.5701H75.4607ZM44.1707 91.1701C44.1707 91.1101 44.5107 90.1701 44.9407 89.1701C45.3707 88.1701 45.6907 87.2601 45.6707 87.2401C45.6507 87.2201 45.0207 87.1001 44.2707 86.9801L42.7707 86.7101C42.6707 86.7101 42.6407 86.7101 42.6407 86.8801C42.6407 87.0501 42.5307 87.9501 42.4007 88.9901C42.2707 90.0301 42.1807 90.9001 42.2007 90.9201C42.7778 91.0762 43.3663 91.1866 43.9607 91.2501C44.0907 91.2501 44.1707 91.2501 44.1707 91.1601V91.1701ZM64.1707 89.3001C65.7507 88.3001 67.0507 87.4101 67.0507 87.3801C66.8795 87.256 66.6908 87.1583 66.4907 87.0901L65.3307 86.5901L64.7207 86.3301L62.1307 88.3301C60.7107 89.4301 59.5307 90.3301 59.5107 90.4101C60.0417 90.7392 60.6131 90.998 61.2107 91.1801C61.2107 91.1801 62.5907 90.3301 64.2107 89.3101L64.1707 89.3001ZM26.3407 90.9501C26.4107 90.8801 26.3407 90.7801 25.9207 90.5101L23.0407 88.5101C21.7407 87.6001 20.6007 86.8301 20.5207 86.8201C20.4407 86.8101 19.9207 87.1801 20.0707 87.2301C20.2207 87.2801 21.4807 88.1201 23.0707 89.1601C24.6607 90.2001 26.0707 91.0701 26.0707 91.0701C26.1492 91.066 26.2237 91.0341 26.2807 90.9801L26.3407 90.9501ZM41.7707 88.7201C41.9107 87.6001 42.0007 86.6601 41.9807 86.6401C41.4726 86.5272 40.9584 86.4437 40.4407 86.3901L38.9407 86.1801L38.9907 86.3701C38.9907 86.4701 39.1607 87.4501 39.3007 88.5401C39.4407 89.6301 39.5807 90.5401 39.6007 90.5401C40.2198 90.675 40.8483 90.7619 41.4807 90.8001C41.4807 90.8001 41.6307 89.8001 41.7707 88.7001V88.7201ZM27.2007 90.5101C27.2007 90.5101 22.1407 86.5101 21.8107 86.3101C21.6707 86.2201 21.5907 86.2301 21.2507 86.3101C20.9107 86.3901 20.8707 86.4901 20.8807 86.5301C20.8907 86.5701 21.9407 87.3501 23.2307 88.2401C27.0007 90.8901 26.7007 90.7001 26.9707 90.6101C27.0907 90.6101 27.2007 90.5001 27.2007 90.4701V90.5101ZM38.9107 90.2601L38.6207 88.1201C38.5527 87.4478 38.4458 86.78 38.3007 86.1201C37.3372 85.9548 36.3659 85.838 35.3907 85.7701C35.4169 85.9066 35.4641 86.0381 35.5307 86.1601C35.6207 86.3701 36.0107 87.3801 36.3907 88.4101L37.0807 90.2801L37.8107 90.3601C39.0007 90.5001 38.9507 90.5101 38.9107 90.2201V90.2601ZM75.3507 88.5201C76.9807 87.4601 78.3507 86.5901 78.3507 86.5201C78.1782 86.1312 77.9635 85.7623 77.7107 85.4201C77.7107 85.4201 71.7107 89.5401 71.7107 89.6101C71.7107 89.6801 72.2107 90.4701 72.3207 90.4301C72.4307 90.3901 73.7607 89.5201 75.3907 88.4301L75.3507 88.5201ZM28.2307 90.3101C28.3307 90.3101 28.4207 90.2501 28.4107 90.2201C28.4007 90.1901 27.2907 89.2201 25.9307 87.9901L23.4607 85.8201L22.8807 85.9201C22.65 85.9494 22.4224 85.9996 22.2007 86.0701C23.0552 86.8576 23.9569 87.5923 24.9007 88.2701C27.1807 90.0401 27.7207 90.4201 27.9007 90.3901L28.2807 90.3101H28.2307ZM36.4207 90.1801C35.1407 86.7001 34.8007 85.8101 34.7807 85.7801C34.7607 85.7501 32.0607 85.5501 32.0207 85.5901C31.9807 85.6301 32.0207 85.6801 32.1007 85.7501C32.1807 85.8201 32.7707 86.8401 33.4507 88.0001L34.6907 90.1101L35.1607 90.1601L35.9407 90.2301H36.3507C36.4107 90.2301 36.4407 90.2301 36.4207 90.1501V90.1801ZM30.0107 90.0801C30.0107 90.0801 29.0107 89.0801 27.8407 87.8001C25.9107 85.8001 25.6107 85.5401 25.4407 85.5801C25.2707 85.6201 24.9507 85.6401 24.5807 85.6601C24.3593 85.6584 24.1393 85.6956 23.9307 85.7701C23.9307 85.7701 25.0807 86.7701 26.4707 88.0201L28.9807 90.2101H29.4807C29.659 90.1953 29.836 90.1686 30.0107 90.1301V90.0801ZM61.5607 88.2101C62.9807 87.1201 64.1507 86.2101 64.1507 86.2101C63.684 85.988 63.2029 85.7976 62.7107 85.6401L61.2707 85.1201L60.8907 85.5101C60.6907 85.7201 59.6807 86.6901 58.6507 87.6601C57.6207 88.6301 56.7707 89.4601 56.7607 89.4901C57.4413 89.8 58.1472 90.0509 58.8707 90.2401C58.9207 90.2401 60.1307 89.3601 61.5607 88.2401V88.2101ZM34.1107 90.0401C34.1107 89.9801 31.5807 85.7001 31.4807 85.6001C31.0485 85.4777 30.5993 85.4271 30.1507 85.4501H28.9107L30.3107 87.2101C31.0807 88.2101 31.8907 89.2101 32.1207 89.5101L32.5407 90.0501H33.0807H33.8607C34.0007 90.0501 34.1107 90.0501 34.1107 90.0501V90.0401ZM31.8307 89.8001C31.7407 89.6801 30.9407 88.6601 30.0407 87.5301L28.4607 85.5101H27.8907C27.5343 85.4895 27.1771 85.4895 26.8207 85.5101L26.3107 85.5701L30.6607 90.0401H32.0307L31.8307 89.8001ZM74.5207 87.2801C76.1407 86.1601 77.4607 85.1901 77.4507 85.1401C77.2521 84.8963 77.0274 84.675 76.7807 84.4801L76.1407 83.9101L75.8707 84.1101C71.8007 87.2101 70.3307 88.3601 70.3307 88.4201C70.6549 88.8034 71.0485 89.1223 71.4907 89.3601C71.5407 89.3601 72.9007 88.3601 74.4907 87.2801H74.5207ZM58.4607 87.1401C59.7007 85.9701 60.7207 84.9801 60.7307 84.9501C60.1867 84.7159 59.6249 84.5253 59.0507 84.3801L57.3507 83.8701L57.2407 84.0401C57.1807 84.1301 56.3407 85.1701 55.3907 86.3601C54.7888 87.0555 54.2342 87.7905 53.7307 88.5601C53.8107 88.5601 56.0007 89.2601 56.1307 89.2801C56.2607 89.3001 57.2207 88.2801 58.4607 87.1401ZM54.9007 86.1401C55.5326 85.3936 56.1266 84.616 56.6807 83.8101C55.4807 83.4073 54.2587 83.0735 53.0207 82.8101C52.9507 82.8101 52.8907 82.8101 52.8907 82.8901C52.8907 82.9701 52.3107 84.0001 51.5907 85.2501C50.8707 86.5001 50.2907 87.5601 50.2807 87.6201C50.2707 87.6801 50.6707 87.8201 51.5507 88.0401C52.0182 88.1684 52.4922 88.2719 52.9707 88.3501C53.6592 87.6401 54.3038 86.8886 54.9007 86.1001V86.1401ZM72.9007 86.0401C75.1907 84.2701 75.7807 83.7901 75.7007 83.7201C75.6207 83.6501 75.1607 83.3701 74.6207 83.0501C73.7807 82.5501 73.6207 82.4701 73.5107 82.5601C72.8807 83.0601 68.1907 87.1701 68.1807 87.2301C68.7115 87.6317 69.2891 87.9674 69.9007 88.2301C69.9507 88.2301 71.3007 87.2301 72.9007 86.0101V86.0401ZM19.3307 87.8001C19.1057 87.5479 18.858 87.3169 18.5907 87.1101L16.1007 84.9901C15.1007 84.1501 14.2907 83.4701 14.2807 83.4901C14.2707 83.5101 14.7507 84.1401 16.8907 85.9301C18.2207 87.0501 19.3307 87.9301 19.3507 87.9301C19.3707 87.9301 19.3507 87.8501 19.3507 87.7901L19.3307 87.8001ZM50.9307 85.2301C51.6707 83.9401 52.2807 82.8301 52.2907 82.7701C52.3007 82.7101 51.8607 82.5701 50.4507 82.2701C48.3707 81.8201 48.2307 81.8001 48.2307 81.9701C48.2307 82.1401 47.8607 83.1801 47.3907 84.5101C46.9207 85.8401 46.5707 86.9401 46.5907 86.9501C46.6107 86.9601 49.2807 87.5601 49.4707 87.5701C50.0473 86.8499 50.5373 86.0646 50.9307 85.2301ZM19.3707 87.0401C19.3707 86.9301 18.3707 86.0401 14.9907 82.9801L13.9907 82.0901L13.9307 82.4101C13.8807 82.6401 13.9307 82.7501 13.9307 82.8201L16.6207 85.1301C19.1507 87.3001 19.3307 87.4201 19.3307 87.0401H19.3707ZM81.4607 85.1901C82.7907 84.0301 83.9507 83.0101 84.0407 82.9201C84.1307 82.8301 84.2207 82.6301 84.2607 82.2301L84.3207 81.7001L81.8407 83.9001L79.2007 86.2601C79.0595 86.4282 78.9817 86.6405 78.9807 86.8601C78.9807 87.1001 78.9807 87.3001 78.9807 87.3001C78.9807 87.3001 80.1207 86.3001 81.4607 85.1901ZM68.0307 86.7501L70.7707 84.3701C72.1207 83.1901 73.2007 82.2101 73.1707 82.1801C73.1407 82.1501 72.4807 81.8301 71.7007 81.4701L70.2907 80.8201L67.8407 83.3201C66.4907 84.6901 65.3807 85.8401 65.3707 85.8801C66.1121 86.3069 66.8842 86.678 67.6807 86.9901C67.8075 86.9259 67.9251 86.8452 68.0307 86.7501ZM46.6407 84.7501L47.5107 82.2401C47.5923 82.0613 47.6333 81.8666 47.6307 81.6701C47.5607 81.6001 43.5407 80.8901 43.4907 80.9401C43.4715 81.0291 43.4715 81.1211 43.4907 81.2101C43.4907 81.3301 43.3507 82.4501 43.1807 83.6901C43.0107 84.9301 42.8907 86.0201 42.9007 86.1001C42.9107 86.1801 43.0607 86.2801 44.2607 86.5001C44.9907 86.6301 45.6807 86.7401 45.7907 86.7501C45.9007 86.7601 46.0107 86.7501 46.6807 84.7501H46.6407ZM19.7907 86.5201C19.9207 86.4301 20.0207 86.3301 20.0207 86.3001C20.0207 86.2701 18.8307 85.0901 17.3807 83.7001L14.7407 81.1601L14.4407 81.4601C14.3151 81.5602 14.2127 81.6865 14.1407 81.8301C14.1407 81.9001 19.4507 86.6801 19.5307 86.6801C19.6251 86.6404 19.7127 86.5864 19.7907 86.5201ZM42.1807 85.9401C42.2907 85.3801 42.8507 80.8601 42.8207 80.8301C42.7907 80.8001 38.7307 80.2301 38.6907 80.2701C38.6507 80.3101 39.0007 85.6101 39.0607 85.6701C39.1207 85.7301 41.6307 86.1001 42.0607 86.1401C42.1107 86.1401 42.1707 86.0501 42.1907 85.9401H42.1807ZM81.9307 83.4701C83.2107 82.3201 84.2707 81.3401 84.2807 81.2901C84.2131 81.0394 84.1157 80.7977 83.9907 80.5701L83.6807 79.9501L83.1607 80.4301L78.6107 84.7001C78.3307 84.9801 78.3207 85.0001 78.4107 85.2201C78.5066 85.4243 78.6168 85.6215 78.7407 85.8101L78.9607 86.1701L79.2807 85.8601L81.9307 83.4701ZM20.9307 85.8901L21.3007 85.7201L19.1307 83.4401C17.9407 82.1801 16.8307 81.0101 16.6707 80.8301C16.5687 80.6868 16.4307 80.573 16.2707 80.5001C16.0388 80.5629 15.8143 80.6501 15.6007 80.7601L15.0207 81.0201L16.6407 82.5701L19.2507 85.0901C19.583 85.478 19.9704 85.8149 20.4007 86.0901C20.584 86.0565 20.7621 85.9994 20.9307 85.9201V85.8901ZM67.3307 83.1901C68.7007 81.8101 69.8007 80.6601 69.7607 80.6301C69.7207 80.6001 68.9207 80.2701 67.9607 79.9201C66.5507 79.3901 66.2007 79.2901 66.1207 79.3701C65.8007 79.7101 61.8907 84.5501 61.8907 84.6001C62.8283 85.0088 63.7862 85.3692 64.7607 85.6801C64.7607 85.6801 65.9607 84.5601 67.3307 83.1901ZM22.4107 85.4901C22.6264 85.4698 22.8349 85.4015 23.0207 85.2901C22.9507 85.1101 18.5007 79.8801 18.4207 79.9101C18.3407 79.9401 17.9907 80.0201 17.5807 80.1101C17.2989 80.1668 17.0215 80.2436 16.7507 80.3401C16.6807 80.4101 21.5607 85.6001 21.7007 85.6101L22.4107 85.4901ZM38.4107 85.3001C38.4107 84.6301 38.0907 80.2301 38.0407 80.1801C37.9907 80.1301 37.2307 80.0601 36.3107 79.9601L34.3107 79.7601H34.0007L34.6807 82.4901C35.0507 84.0001 35.3807 85.2601 35.4207 85.2901C36.3364 85.461 37.2613 85.5779 38.1907 85.6401C38.3807 85.6401 38.4007 85.6401 38.4007 85.3401L38.4107 85.3001ZM24.7307 85.1601C24.9335 85.1406 25.1342 85.1038 25.3307 85.0501C25.3307 85.0501 24.5007 83.7901 23.4307 82.3001C21.5307 79.6401 21.4907 79.5901 21.2307 79.5801C20.9707 79.5701 19.0707 79.8101 19.0307 79.8501C18.9907 79.8901 20.0307 81.0801 21.2407 82.5501L23.4807 85.2201H23.8307C24.0207 85.2201 24.4207 85.2201 24.7307 85.1601ZM34.7307 85.0601C34.7307 84.9601 34.4007 83.7301 34.0607 82.3301C33.7207 80.9301 33.4107 79.7501 33.3907 79.7201C32.8666 79.6496 32.3393 79.6062 31.8107 79.5901C29.5707 79.4601 29.6007 79.4601 29.6207 79.5901C29.6407 79.7201 31.8707 85.0101 31.9207 85.0601C32.7148 85.1864 33.5167 85.2566 34.3207 85.2701C34.7507 85.2701 34.7707 85.2701 34.7307 85.1101V85.0601ZM27.3307 85.0001C27.5928 85.0236 27.857 84.9999 28.1107 84.9301C28.1107 84.8401 25.1107 79.5701 24.9607 79.4601C24.8107 79.3501 24.5307 79.3801 23.4607 79.4601C22.6907 79.4601 22.0407 79.5501 22.0207 79.5601C22.0007 79.5701 25.7907 84.9501 25.9307 85.0501C26.0456 85.0789 26.1658 85.0789 26.2807 85.0501C26.4307 85.0501 26.9007 85.0501 27.3307 85.0501V85.0001ZM31.0507 84.3701L29.8807 81.6001L28.9907 79.4701L27.2807 79.4001C26.3407 79.4001 25.5607 79.4001 25.5507 79.4001C25.7598 79.8543 25.9969 80.2952 26.2607 80.7201C26.6707 81.4301 27.4007 82.7201 27.8707 83.5201L28.7307 85.0301H31.3107L31.0507 84.3701ZM80.4607 82.5701L83.0707 80.0801L83.4807 79.7001L82.7407 78.9801C82.4894 78.7142 82.2222 78.4638 81.9407 78.2301C81.8807 78.2301 78.6107 81.4801 77.1807 83.0001L76.6607 83.5401L77.3707 84.1601C77.7907 84.5301 78.1107 84.7501 78.1607 84.7201C78.2107 84.6901 79.2507 83.7201 80.4607 82.5701ZM63.4607 81.7601C64.6407 80.3101 65.5907 79.1101 65.5807 79.1001C65.5707 79.0901 64.6307 78.7801 63.4907 78.4201C62.8055 78.1389 62.0858 77.9505 61.3507 77.8601C61.1107 78.1001 57.8007 83.3601 57.8607 83.4101C58.9732 83.8 60.1047 84.1337 61.2507 84.4101C61.2507 84.4101 62.2507 83.1901 63.4607 81.7401V81.7601ZM58.9807 80.4301C59.9807 78.9001 60.7607 77.6301 60.7407 77.6201C60.7207 77.6101 56.0807 76.4001 56.0507 76.4401C56.0207 76.4801 53.3907 82.0601 53.3607 82.1801C53.3307 82.3001 53.8107 82.4001 55.1707 82.7601C56.1707 83.0201 57.0507 83.2301 57.1007 83.2201C57.1507 83.2101 58.0007 81.9601 58.9807 80.4301ZM78.6907 80.9101C79.9507 79.6201 81.1107 78.4101 81.2707 78.2401L81.5607 77.9101L80.3207 77.1101C79.9172 76.8116 79.4811 76.56 79.0207 76.3601L76.5507 79.1701C74.6407 81.3401 74.1607 81.9301 74.2407 82.0001C74.9091 82.4568 75.6036 82.8742 76.3207 83.2501C76.3707 83.2501 77.4307 82.2501 78.6907 80.9101ZM13.4807 81.9101C13.5095 81.7918 13.5095 81.6684 13.4807 81.5501C13.2507 81.2501 9.2307 76.3301 9.1107 76.2001C8.9907 76.0701 8.97071 76.0601 8.97071 76.5201V76.9801L10.7007 79.0401L12.9007 81.6401C13.0503 81.8382 13.2177 82.0223 13.4007 82.1901C13.4007 82.1901 13.4707 82.0701 13.5007 81.9101H13.4807ZM54.0307 79.2401C54.7607 77.6801 55.3607 76.3701 55.3607 76.3301C55.3607 76.2901 55.3007 76.2301 55.2307 76.2101C54.9507 76.1301 50.3807 75.2101 50.3707 75.2101C50.3607 75.2101 48.5507 81.2101 48.5807 81.2101C48.6107 81.2101 52.4007 82.0801 52.5807 82.0601C53.1782 81.1695 53.6715 80.2132 54.0507 79.2101L54.0307 79.2401ZM85.6607 81.1101C87.5007 78.8801 88.7707 77.3401 88.9307 77.1101C89.1111 76.724 89.2131 76.3059 89.2307 75.8801C89.1807 75.8801 84.9407 81.1001 84.8907 81.2701C84.8256 81.5454 84.7921 81.8272 84.7907 82.1101C84.7907 82.1101 85.1907 81.6501 85.6607 81.1101ZM76.1307 79.0101C77.4507 77.5101 78.5607 76.2401 78.5907 76.1901C78.6207 76.1401 78.2207 75.8701 77.0507 75.2901C76.1607 74.8501 75.3907 74.4801 75.3307 74.4801C75.2707 74.4801 70.8407 80.1301 70.8007 80.3101C71.2406 80.6157 71.7136 80.8707 72.2107 81.0701L73.6907 81.7301C73.6907 81.7301 74.8207 80.5101 76.1307 79.0101ZM13.9207 81.1401C14.0207 81.0301 14.1407 80.8801 14.1907 80.8101C14.2407 80.7401 14.0707 80.4001 12.8307 78.8101C12.0307 77.8101 11.0207 76.4501 10.6007 75.8901L9.82069 74.8901L9.4607 75.2801C9.30798 75.4223 9.18847 75.5964 9.1107 75.7901C9.1107 75.9201 13.6007 81.3901 13.6807 81.3901C13.773 81.3314 13.8543 81.257 13.9207 81.1701V81.1401ZM48.1007 80.3801C48.8007 78.1301 49.7107 75.0601 49.6907 75.0401C49.6707 75.0201 44.5507 74.1301 44.5107 74.1701C44.4707 74.2101 43.6007 80.3101 43.6607 80.3701C43.7207 80.4301 47.4207 81.1001 47.7407 81.1201C47.8407 81.1201 47.9307 80.9501 48.1007 80.3801ZM87.0207 78.0401C88.2007 76.5901 89.1807 75.3601 89.2107 75.3101C89.1001 74.7693 88.8899 74.2539 88.5907 73.7901C88.5107 73.7901 84.3307 79.1001 84.1807 79.3601C84.1307 79.4601 84.1807 79.6401 84.4207 80.1101C84.5065 80.3303 84.6357 80.5309 84.8007 80.7001C84.8007 80.7001 85.8007 79.4901 87.0207 78.0401ZM15.2107 80.2201C15.6107 80.0301 15.7807 79.9201 15.7407 79.8601C15.5107 79.4601 11.6107 73.9701 11.5407 73.9501C11.0094 74.1016 10.5133 74.3565 10.0807 74.7001C10.1407 74.8801 14.4507 80.4801 14.5407 80.4801C14.7714 80.4137 14.9956 80.3267 15.2107 80.2201ZM43.3507 77.1301C43.7307 74.3901 43.7607 74.0301 43.6607 73.9901C43.5607 73.9501 38.6607 73.2801 38.5707 73.3301C38.4807 73.3801 38.5707 74.8001 38.5707 76.5301L38.6307 79.6801L40.6307 79.9601C41.7207 80.1101 42.6807 80.2401 42.7607 80.2301C42.8407 80.2201 42.9407 79.9801 43.3407 77.1301H43.3507ZM72.5007 77.1301C73.7207 75.5401 74.7207 74.2101 74.7207 74.1901C74.7207 74.1701 72.4807 73.2501 70.6707 72.5601C70.5707 72.5601 70.1107 73.1801 68.5507 75.5601C67.4507 77.2501 66.5507 78.6601 66.6107 78.6901C66.6707 78.7201 70.0907 80.0501 70.1907 80.0301C70.2907 80.0101 71.2807 78.7101 72.5007 77.1101V77.1301ZM17.1407 79.5701C17.4399 79.5207 17.7298 79.4263 18.0007 79.2901C18.0007 79.1101 14.2207 73.1301 14.1107 73.1301C13.3708 73.2869 12.6424 73.494 11.9307 73.7501C11.9307 73.8601 16.1307 79.7501 16.2007 79.7501C16.2707 79.7501 16.6707 79.6601 17.1407 79.5501V79.5701ZM37.9407 77.1901C37.9407 75.9001 37.9407 74.4601 37.8807 74.0001V73.1501L35.3907 72.9101C34.0207 72.7801 32.8907 72.6801 32.8707 72.7001C32.8507 72.7201 33.8207 79.0801 33.8707 79.1301C33.9207 79.1801 37.3307 79.5201 37.7107 79.5301H38.0107L37.9407 77.1901ZM19.8907 79.1101C20.2589 79.0847 20.6239 79.0244 20.9807 78.9301C20.9807 78.8701 17.7707 72.7301 17.7007 72.6501C16.6922 72.7031 15.6892 72.8335 14.7007 73.0401C14.9016 73.4991 15.1461 73.9377 15.4307 74.3501L17.3407 77.4201C18.2607 78.8901 18.5007 79.2301 18.6407 79.2301C18.7807 79.2301 19.2907 79.2301 19.8907 79.1101ZM33.1507 78.8701C33.1507 78.7601 32.8907 77.3101 32.6307 75.6701C32.3707 74.0301 32.1407 72.6701 32.1207 72.6701C32.1007 72.6701 27.4607 72.3801 27.4207 72.4201C27.3807 72.4601 29.2207 78.7501 29.3007 78.8301C30.4452 78.9802 31.5968 79.0704 32.7507 79.1001H33.1907L33.1507 78.8701ZM84.6707 78.1501L86.8907 75.3001C87.7107 74.3001 88.3807 73.3701 88.3807 73.3001C87.8782 72.6796 87.3191 72.1072 86.7107 71.5901C86.6407 71.5901 82.5907 77.1401 82.4207 77.4201C82.2507 77.7001 82.3507 77.6201 83.0707 78.3101C83.327 78.5688 83.601 78.8094 83.8907 79.0301C84.1704 78.7371 84.4309 78.4265 84.6707 78.1001V78.1501ZM24.1707 78.8101C24.3907 78.8101 24.5607 78.7401 24.5507 78.7001C24.5407 78.6601 23.9407 77.2301 23.2307 75.4901L21.9307 72.3501H20.8307C19.9588 72.3187 19.0862 72.3891 18.2307 72.5601C18.2307 72.6201 20.3007 76.6201 21.2307 78.2501L21.5807 78.8901H22.7007C23.3107 78.8901 24.0007 78.8301 24.2207 78.8101H24.1707ZM28.6107 78.7401C28.6107 78.6201 26.8207 72.4501 26.7707 72.4001C26.7207 72.3501 25.7707 72.4001 24.6207 72.3201C23.9213 72.2145 23.2101 72.2145 22.5107 72.3201C22.5107 72.3201 23.0907 73.8301 23.8107 75.5701L25.1207 78.7301H25.9707H27.7207C28.4807 78.7301 28.6107 78.7301 28.6107 78.6301V78.7401ZM68.0207 75.3901C69.1007 73.7101 70.0207 72.3301 69.9707 72.3201C69.9207 72.3101 65.0807 70.7601 65.0307 70.8101C64.9807 70.8601 61.7407 77.0301 61.7207 77.1201C63.0863 77.6463 64.4821 78.0904 65.9007 78.4501C66.6866 77.4873 67.3955 76.4642 68.0207 75.3901ZM82.9107 76.1201L85.0907 73.1201C85.5478 72.5307 85.9718 71.9165 86.3607 71.2801C86.2907 71.1701 83.8607 69.5101 83.7507 69.5001C83.6407 69.4901 82.7507 70.7901 81.5407 72.6001L79.4607 75.7701L80.6607 76.5701C81.0786 76.8612 81.5126 77.1283 81.9607 77.3701C82.3255 76.9974 82.6599 76.5961 82.9607 76.1701L82.9107 76.1201ZM61.1607 76.8501C61.4107 76.4501 64.4307 70.6001 64.4007 70.5701C64.3707 70.5401 58.9507 69.1001 58.9107 69.1601C58.8707 69.2201 56.3007 75.7301 56.3307 75.7601C56.3607 75.7901 60.8007 77.0401 61.0007 77.0401C61.0007 77.0401 61.1007 76.9701 61.1607 76.8801V76.8501ZM8.4607 75.3501C8.4607 75.2701 7.62072 73.8901 6.69072 72.3501L5.01069 69.4501V69.9801V70.5001L6.75071 73.4101L8.4907 76.3101L8.54069 75.9301C8.57444 75.755 8.57444 75.5751 8.54069 75.4001L8.4607 75.3501ZM90.4607 74.7001C92.7807 70.7001 92.8807 70.5501 92.9807 70.0501C93.0311 69.8847 93.058 69.713 93.0607 69.5401C93.0607 69.5401 92.2207 70.9101 90.6107 73.7001C90.2244 74.2531 89.9368 74.8689 89.7607 75.5201C89.7203 75.6701 89.7001 75.8248 89.7007 75.9801L90.4607 74.7001ZM56.9607 72.3501C57.6607 70.5801 58.2307 69.1001 58.2307 69.0601C58.2307 69.0201 58.1707 68.9701 58.1007 68.9501C57.8507 68.8701 52.4007 67.6901 52.3807 67.7101C52.3607 67.7301 50.5307 74.5101 50.5707 74.5501C50.6107 74.5901 55.5707 75.6701 55.6507 75.6301C55.7307 75.5901 56.2707 74.1301 56.9607 72.3501ZM81.1707 72.3501C82.3407 70.6301 83.2607 69.1901 83.2207 69.1601C83.1807 69.1301 79.6107 67.2501 79.5607 67.2501C79.5107 67.2501 75.9007 73.3301 75.6607 73.7501C75.6607 73.7501 78.8707 75.4801 79.0107 75.4901C79.1507 75.5001 80.0107 74.0801 81.1707 72.3501ZM9.37071 74.2401C9.37071 74.2401 8.88071 73.2401 8.28071 72.1801L6.54069 69.0401C6.33757 68.638 6.10705 68.2505 5.85072 67.8801C5.68379 68.0389 5.53611 68.2168 5.41072 68.4101L5.01069 68.9401L6.65071 71.7501C7.55071 73.3001 8.3707 74.6901 8.4607 74.8601L8.6407 75.1601L9.01069 74.7501C9.15222 74.6037 9.27333 74.4389 9.37071 74.2601V74.2401ZM92.1907 70.2401L93.1907 68.5001L92.8707 67.6601C92.6207 66.9901 92.5407 66.8301 92.4707 66.9101C92.4007 66.9901 91.6307 68.3401 90.7207 69.9701C89.3707 72.3701 89.0707 72.9701 89.1007 73.1501C89.1834 73.4243 89.2871 73.6917 89.4107 73.9501L89.6907 74.5601L90.4407 73.2601L92.1907 70.2601V70.2401ZM50.7807 71.0401C51.2807 69.1701 51.6707 67.6201 51.6607 67.6101C51.6507 67.6001 45.6007 66.5101 45.5707 66.5401C45.5407 66.5701 44.5707 73.3301 44.5707 73.4501C45.3493 73.7383 46.1634 73.92 46.9907 73.9901C48.3107 74.2301 49.5007 74.4201 49.6207 74.4301H49.8507L50.7807 71.0401ZM10.4607 73.7101L11.1607 73.3201L9.57069 70.0401C8.67069 68.2401 7.90072 66.7501 7.85072 66.7201C7.2345 66.9665 6.64481 67.2748 6.09071 67.6401C6.09071 67.6401 6.4407 68.2901 6.8607 69.0601L8.63072 72.2701C8.9436 72.9003 9.30466 73.5054 9.7107 74.0801C9.98387 73.975 10.2481 73.8479 10.5007 73.7001L10.4607 73.7101ZM77.0907 70.3501C78.1507 68.5701 79.0007 67.0901 78.9707 67.0601C78.9407 67.0301 74.3707 65.1501 74.3407 65.1801C74.3107 65.2101 70.8507 71.9701 70.8707 71.9901C70.8907 72.0101 71.4407 72.2301 72.0907 72.4801L74.0907 73.2801C74.3935 73.4181 74.7081 73.5285 75.0307 73.6101C75.0907 73.6101 76.0307 72.1401 77.0307 70.3501H77.0907ZM43.8407 73.3501C43.8407 73.3501 44.0607 71.7501 44.3407 69.8601C44.6207 67.9701 44.8207 66.4201 44.7907 66.4001C44.7607 66.3801 38.7907 65.5501 38.7207 65.6001C38.6507 65.6501 38.4907 72.6001 38.5507 72.6001C38.6107 72.6001 43.2607 73.3201 43.7107 73.3501C43.7807 73.3501 43.8407 73.3501 43.8407 73.3501ZM12.6907 72.9001C13.0607 72.8132 13.4247 72.703 13.7807 72.5701C13.8407 72.5701 10.9307 65.8801 10.7807 65.7701C9.88428 65.945 9.00687 66.2063 8.16072 66.5501C8.16072 66.7101 11.4507 73.1801 11.5307 73.1801C11.6107 73.1801 12.0907 73.0501 12.6607 72.9001H12.6907ZM90.5107 69.6801C91.5107 68.0001 92.2407 66.5701 92.2407 66.5201C91.7399 65.8115 91.1849 65.1429 90.5807 64.5201C90.5107 64.5201 87.1807 70.6901 87.1407 70.9201C87.1007 71.1501 87.3907 71.3401 87.9307 71.9201C88.4707 72.5001 88.7607 72.7501 88.7707 72.7401L90.5107 69.6401V69.6801ZM37.8607 72.5501C37.8607 72.5501 38.0507 65.5001 38.0407 65.4801C38.0307 65.4601 32.1907 64.9201 32.1407 64.9601C32.0907 65.0001 32.6707 71.9601 32.7407 72.0401C34.4368 72.3034 36.146 72.4737 37.8607 72.5501ZM16.0507 72.2501C16.485 72.2044 16.9159 72.1309 17.3407 72.0301C17.3907 72.0301 14.9207 65.1901 14.8007 65.0801C14.2094 65.116 13.6213 65.1928 13.0407 65.3101C11.7007 65.5301 11.3207 65.6101 11.3307 65.7001C11.3407 65.7901 14.1807 72.2601 14.3307 72.4001C14.3728 72.436 14.4235 72.4605 14.4778 72.471C14.5321 72.4815 14.5882 72.4777 14.6407 72.4601L16.0907 72.2501H16.0507ZM20.0507 71.8701C20.9107 71.8701 21.6307 71.7801 21.6407 71.7601C21.6507 71.7401 19.6407 64.7601 19.6407 64.7001C19.6407 64.6401 15.4207 64.9201 15.3607 64.9801C15.3007 65.0401 17.4707 70.8601 17.8407 71.7901C17.9307 72.0201 17.9607 72.0301 18.2307 72.0001C18.5007 71.9701 19.2307 71.9201 20.0807 71.8701H20.0507ZM32.0507 71.8701C32.0507 71.6401 31.4407 64.8701 31.4207 64.8701L29.6407 64.7601L26.8807 64.6301C26.5492 64.5806 26.2122 64.5806 25.8807 64.6301C25.8807 64.8001 27.2207 71.6901 27.2607 71.7201C27.3007 71.7501 30.4607 72.0401 31.4607 72.0401C32.0407 72.0401 32.0907 72.0401 32.0907 71.9001L32.0507 71.8701ZM26.5807 71.7401C26.5807 71.7401 26.3107 70.1001 25.9307 68.1701C25.5507 66.2401 25.2507 64.6501 25.2507 64.6401C25.2507 64.6301 20.2507 64.6401 20.2507 64.6401C20.2507 64.6401 22.2507 71.6401 22.2507 71.7201C22.2507 71.8001 23.2507 71.7701 24.4107 71.7701C25.5707 71.7701 26.5607 71.7701 26.5807 71.7201V71.7401ZM72.1307 68.3001C73.0607 66.4801 73.8107 64.9701 73.7907 64.9601C73.7707 64.9501 72.5507 64.5201 71.0707 64.0201C70.1887 63.649 69.2704 63.3708 68.3307 63.1901C68.1907 63.3701 65.4007 70.0401 65.4207 70.1201C65.4407 70.2001 66.5307 70.5501 67.8507 70.9901C68.6506 71.3196 69.4863 71.5546 70.3407 71.6901C70.3907 71.6901 71.1907 70.1101 72.1307 68.3001ZM88.5207 67.5301C89.4507 65.7701 90.2207 64.2801 90.2107 64.2301C89.3358 63.4862 88.4175 62.795 87.4607 62.1601C87.3807 62.1601 86.9507 62.9201 85.6707 65.4701C84.7407 67.3301 84.0107 68.8601 84.0307 68.8901C84.0507 68.9201 86.6407 70.7201 86.7107 70.7201C86.7807 70.7201 87.5507 69.2901 88.4807 67.5401L88.5207 67.5301ZM66.2007 66.5301C66.9907 64.6701 67.6507 63.0801 67.6707 63.0001C67.6907 62.9201 67.3707 62.7701 64.6707 62.0001C63.0007 61.5501 61.6107 61.2101 61.5807 61.2401C61.5507 61.2701 60.9907 62.9101 60.3407 64.8701C59.1907 68.3201 59.1607 68.4401 59.3407 68.4801L62.0207 69.2001C63.4107 69.5701 64.5907 69.8801 64.6507 69.8801C65.2641 68.7989 65.7859 67.6683 66.2107 66.5001L66.2007 66.5301ZM3.41072 65.5301C2.77072 63.8801 2.22071 62.5301 2.18071 62.4601C2.14071 62.3901 2.12071 62.6001 2.18071 62.9801C2.18071 63.5201 2.3507 63.8801 3.3907 66.5301L4.56071 69.5301V69.0501C4.56071 68.6001 4.5607 68.4401 3.4207 65.5801L3.41072 65.5301ZM94.6507 65.9001C95.1607 64.5701 95.5607 63.4401 95.5507 63.4001C95.5407 63.3601 93.6807 68.1001 93.6207 68.4001C93.5607 68.7001 93.6207 68.5901 93.6207 68.4601C93.6207 68.3301 94.1107 67.2101 94.6207 65.8701L94.6507 65.9001ZM85.3407 65.1501C86.2607 63.3001 87.0007 61.7701 86.9807 61.7501C86.9607 61.7301 83.0707 59.6201 82.9807 59.6601C82.8907 59.7001 79.8707 66.4701 79.8707 66.5701C81.0497 67.3034 82.2682 67.9711 83.5207 68.5701C83.5807 68.5701 84.3207 67.1601 85.3007 65.2001L85.3407 65.1501ZM59.7107 64.7301C60.3707 62.7301 60.9007 61.1201 60.9007 61.0801C60.9007 61.0401 55.0107 59.6501 54.3907 59.5701C54.3307 59.5701 52.5807 66.5701 52.5807 66.8601C52.5807 66.9601 52.7207 67.0201 53.1407 67.1101L58.4607 68.3601C58.4607 68.3601 59.0507 66.7601 59.7007 64.8001L59.7107 64.7301ZM5.1707 67.7301C5.31438 67.5533 5.44476 67.3661 5.56071 67.1701C5.56071 67.1701 5.01071 65.6201 4.34071 63.8001C3.67071 61.9801 3.1107 60.4701 3.1107 60.4601C3.1107 60.4501 2.9307 60.5301 2.5807 61.0501L2.1707 61.6601L3.34071 64.6601C3.74114 65.8666 4.21195 67.0486 4.75071 68.2001C4.90443 68.049 5.04492 67.8851 5.1707 67.7101V67.7301ZM95.8807 61.4601C95.8147 61.1197 95.7211 60.7853 95.6007 60.4601C95.3807 59.8101 95.3007 59.6301 95.2507 59.7401C94.5407 61.6101 92.8907 66.0801 92.8907 66.1501C93.0586 66.6903 93.2555 67.2211 93.4807 67.7401C93.5307 67.8201 95.8707 61.7401 95.8807 61.4901V61.4601ZM6.7107 66.4601C7.00215 66.3145 7.27425 66.1331 7.5207 65.9201C7.5207 65.8501 5.3107 59.0301 5.2107 58.9201C4.55268 59.2747 3.92696 59.6863 3.34071 60.1501C3.34071 60.1501 3.8307 61.5601 4.4207 63.1501C5.8607 67.0801 5.79071 66.8901 5.87071 66.8901C6.15875 66.763 6.43921 66.6195 6.7107 66.4601ZM52.2207 65.2901C53.3507 60.6501 53.6307 59.4501 53.5907 59.4001C53.5507 59.3501 46.8607 58.1601 46.8107 58.2101C46.7607 58.2601 45.6507 65.6301 45.7107 65.6901C45.7707 65.7501 51.6607 66.8101 51.7807 66.7901C51.9677 66.3028 52.1148 65.8011 52.2207 65.2901ZM80.9407 63.0401C81.7607 61.2201 82.4607 59.6501 82.4807 59.5701C82.5007 59.4901 82.2407 59.3001 80.0607 58.3701C79.2381 57.9945 78.397 57.6608 77.5407 57.3701C77.4407 57.4801 74.7207 64.4401 74.7407 64.5101C74.7607 64.5801 79.3307 66.5101 79.3907 66.4201C79.4507 66.3301 80.1207 64.8701 80.9407 63.0401ZM9.53071 65.4501C9.8698 65.3544 10.2036 65.2409 10.5307 65.1101C10.5807 65.1101 8.53069 57.9701 8.48069 57.8601C8.43069 57.7501 5.63071 58.7701 5.59071 58.8601C5.55071 58.9501 7.59071 65.0801 7.87071 65.8601C7.87071 65.9301 7.9807 65.9301 8.2407 65.8601L9.5207 65.4701L9.53071 65.4501ZM93.8907 62.4501L95.1107 59.1901L94.3607 58.2701L93.4607 57.2001C93.3907 57.1101 93.3207 57.0501 93.3007 57.0701C93.2807 57.0901 90.8707 63.8101 90.8907 63.8701C91.4136 64.5319 91.9781 65.1598 92.5807 65.7501C92.5807 65.7501 93.1907 64.2601 93.8607 62.4601L93.8907 62.4501ZM45.5407 61.9101C45.8407 59.9101 46.0807 58.1601 46.0707 58.1501C46.0607 58.1401 39.2607 57.2301 39.2407 57.2501C39.2207 57.2701 38.7607 64.6301 38.7807 64.7701C38.8007 64.9101 39.4107 64.9701 41.6707 65.2801C43.2407 65.4901 44.6707 65.6701 44.7607 65.6601H44.9907L45.5407 61.9101ZM12.8107 64.6901C14.5507 64.4201 14.5707 64.4101 14.5707 64.2701C14.5707 64.1301 14.2407 62.8001 13.8407 61.1301C13.4407 59.4601 13.0507 57.8401 12.9907 57.5401C12.8907 57.0901 12.8407 56.9801 12.7207 56.9801C12.6007 56.9801 8.98072 57.6601 8.94072 57.7001C8.90072 57.7401 10.9407 64.8301 11.0307 64.9401C11.1207 65.0501 11.1207 64.9401 11.1907 64.9401C11.2607 64.9401 11.9907 64.7901 12.8107 64.6601V64.6901ZM38.0807 64.7501C38.1707 63.4001 38.5307 57.1801 38.5107 57.1701C38.4907 57.1601 31.9607 56.5901 31.9207 56.6301C31.8807 56.6701 32.0307 64.1601 32.0807 64.2201C32.1307 64.2801 38.0807 64.8101 38.0807 64.7501ZM17.3907 64.1601L19.3907 64.0101C19.3907 64.0101 19.4507 63.9301 19.4507 63.8301C19.4507 63.5701 18.1907 56.5301 18.1307 56.4801C18.0707 56.4301 13.4807 56.8301 13.4007 56.9001C13.3207 56.9701 14.8607 63.4901 15.0707 64.1801C15.1207 64.3401 15.0707 64.3401 17.3907 64.1801V64.1601ZM75.5607 60.7201C76.3207 58.8101 76.9507 57.2001 76.9607 57.1501C76.0329 56.6936 75.0656 56.3221 74.0707 56.0401C72.4807 55.4901 71.1507 55.0401 71.1307 55.0401C71.1107 55.0401 68.6007 62.3901 68.6407 62.4201C68.6807 62.4501 74.0807 64.2601 74.1307 64.2101C74.1807 64.1601 74.8007 62.6001 75.5607 60.6901V60.7201ZM31.3007 60.3701C31.3007 58.2801 31.2007 56.5601 31.1907 56.5501C31.1807 56.5401 25.0107 56.2901 24.9807 56.3101C24.9507 56.3301 25.7407 63.8201 25.8007 63.8901C25.8607 63.9601 31.2407 64.2401 31.3607 64.1901C31.4807 64.1401 31.3607 62.4601 31.3007 60.3701ZM23.6707 63.9301H25.1007V63.6801C25.1007 63.2901 24.3607 56.3701 24.3207 56.3301C24.2807 56.2901 23.0307 56.3301 21.5207 56.3301C18.9507 56.3301 18.7607 56.3901 18.7607 56.5201C18.7607 56.6501 19.9407 63.4401 20.0307 63.8401V64.0201H21.1107C21.7107 64.0201 22.8407 64.0201 23.6307 64.0201L23.6707 63.9301ZM91.0007 62.3501C92.6907 57.6501 93.0007 56.8801 93.0007 56.7801C92.113 55.9135 91.1339 55.1457 90.0807 54.4901C89.9607 54.7101 87.7207 61.3701 87.7407 61.4301C87.7607 61.4901 90.4607 63.5301 90.5507 63.5401C90.7305 63.1529 90.8874 62.7556 91.0207 62.3501H91.0007ZM68.1907 61.7001C69.1407 59.0201 70.5007 54.8301 70.4207 54.8001C70.1607 54.7001 64.0907 53.0101 63.9907 53.0101C63.8907 53.0101 63.8507 53.1501 63.8007 53.3401C63.7507 53.5301 63.2907 55.2001 62.8007 57.0901C62.3107 58.9801 61.8707 60.5301 61.9007 60.5601C61.9307 60.5901 67.7807 62.2401 67.9007 62.2501C68.0207 62.2601 68.0807 62.0001 68.1907 61.7001ZM87.5707 60.3001C88.8307 56.7001 89.6807 54.1201 89.6307 54.0801C89.5807 54.0401 85.6307 51.7801 85.6307 51.8201C85.6307 51.8601 83.2707 59.0401 83.3007 59.0401C83.3307 59.0401 87.2207 61.1701 87.3007 61.1401C87.4225 60.8741 87.5261 60.6001 87.6107 60.3201L87.5707 60.3001ZM2.4907 60.3001L2.87071 59.7401L2.18071 56.3001C1.80071 54.4101 1.47072 52.8601 1.44072 52.8601C1.09787 53.3006 0.815375 53.7848 0.60072 54.3001C0.60072 54.4101 1.72071 59.8701 1.93071 60.7801C1.99071 61.0201 2.0607 60.9601 2.4907 60.3001ZM96.8107 57.3001L97.4507 54.1201L97.1807 53.2001C96.9607 52.4701 96.8907 52.3101 96.8507 52.4401C96.8107 52.5701 96.5107 54.0101 96.1607 55.7101L95.5407 58.8001L95.8307 59.6601C95.9199 59.9464 96.0267 60.227 96.1507 60.5001C96.1507 60.5001 96.4607 59.0401 96.8107 57.3001ZM62.2107 56.5501C62.7807 54.4701 63.2107 52.7601 63.2107 52.7501C63.2107 52.7401 56.2107 51.1501 56.1307 51.1901C56.0507 51.2301 54.4407 58.8501 54.4807 58.8801C54.5207 58.9101 60.9907 60.3501 61.0607 60.3401C61.1307 60.3301 61.6007 58.6201 62.1807 56.5501H62.2107ZM4.13072 58.8501C4.45084 58.6675 4.74937 58.4495 5.0207 58.2001C5.0207 58.0001 3.7507 51.1301 3.7107 51.0901C2.99246 51.4625 2.32108 51.919 1.7107 52.4501C1.7107 52.5101 2.02071 54.0901 2.40071 55.9801C2.78071 57.8701 3.0807 59.4201 3.0807 59.4401C3.0807 59.4601 3.1907 59.4401 4.0807 58.8501H4.13072ZM53.8307 58.5601C53.9307 58.2501 55.4107 51.2601 55.4107 51.1301C55.4107 51.0001 55.3107 50.9701 55.0107 50.9101C53.8807 50.6801 48.1207 49.6901 48.1007 49.7101C48.0807 49.7301 47.9307 50.6301 47.7707 51.7101C47.6107 52.7901 47.3407 54.5301 47.1807 55.5801C47.0305 56.2087 46.96 56.8538 46.9707 57.5001C47.1307 57.5701 53.3207 58.6601 53.5507 58.6701C53.7807 58.6801 53.8107 58.6701 53.8307 58.5501V58.5601ZM83.9707 55.0701C84.5907 53.0701 85.0907 51.4801 85.0807 51.4601C85.0707 51.4401 79.9607 49.1501 79.9407 49.1701C79.9207 49.1901 77.8707 56.2701 77.8407 56.4301C77.8107 56.5901 78.1707 56.7301 80.2207 57.6301C81.5407 58.2101 82.6707 58.6301 82.7207 58.6301C83.2147 57.4617 83.6322 56.2625 83.9707 55.0401V55.0701ZM95.9707 55.0701C96.3307 53.2801 96.6207 51.7901 96.6207 51.7401C96.1135 50.961 95.5556 50.216 94.9507 49.5101C94.8907 49.5101 93.5607 56.0301 93.5707 56.2901C94.078 57.0414 94.6574 57.7414 95.3007 58.3801L95.9707 55.0701ZM6.9207 57.6401C7.39234 57.5057 7.84828 57.3214 8.28071 57.0901C8.28071 57.0901 8.09071 55.5001 7.81071 53.6601C7.53071 51.8201 7.28069 50.1801 7.26069 50.0301C7.24069 49.8801 7.18072 49.7401 7.13072 49.7401C7.08072 49.7401 6.3907 49.9901 5.5807 50.2901C4.5807 50.6701 4.1107 50.8801 4.1107 50.9601C4.1107 51.0401 5.32071 57.9601 5.37071 58.0501C5.3741 58.0636 5.38024 58.0762 5.38877 58.0871C5.39731 58.0981 5.40804 58.1072 5.42027 58.1137C5.4325 58.1203 5.44597 58.1243 5.45982 58.1254C5.47367 58.1265 5.4876 58.1247 5.50071 58.1201L6.9207 57.6401ZM46.7907 53.5601C47.1107 51.4401 47.3607 49.6801 47.3307 49.6601C47.3007 49.6401 40.0607 48.6601 40.0107 48.6601C39.9607 48.6601 39.3007 55.8401 39.3007 56.2501C39.3007 56.4401 39.3007 56.5001 39.4707 56.5301C39.8207 56.6101 45.8307 57.4001 46.0207 57.3901H46.2107L46.7907 53.5601ZM10.7907 56.6501C11.7907 56.4601 12.6007 56.2801 12.6307 56.2501C12.6607 56.2201 12.5007 54.6501 12.2807 52.7601C12.0607 50.8701 11.8707 49.2201 11.8707 49.0901C11.8707 48.6401 11.8707 48.6401 9.72071 49.0901C8.61071 49.3201 7.72071 49.5401 7.65071 49.5701C7.58071 49.6001 8.65069 56.4401 8.73069 56.9601C9.42838 56.9437 10.1209 56.8361 10.7907 56.6401V56.6501ZM38.9107 52.5501C39.1007 50.3901 39.2407 48.6201 39.2307 48.6101C39.2207 48.6001 32.1407 48.0001 32.1007 48.0301C32.0607 48.0601 31.8307 55.8401 31.8707 55.8801C31.9107 55.9201 37.7407 56.4301 38.2407 56.4501H38.5507L38.9107 52.5501ZM78.2907 52.7201C78.8707 50.7201 79.2907 49.0601 79.2907 49.0301C79.2907 49.0001 73.4807 46.8501 73.2907 46.8401C73.1007 46.8301 73.1607 46.9701 73.1207 47.1301C72.3407 50.1301 71.2807 54.2201 71.2807 54.2901C72.0179 54.6313 72.7761 54.9252 73.5507 55.1701L76.4007 56.1701C76.6155 56.2626 76.8403 56.3298 77.0707 56.3701C77.5359 55.1822 77.9266 53.9665 78.2407 52.7301L78.2907 52.7201ZM15.9807 55.9601C17.0907 55.8601 17.9807 55.7601 17.9807 55.7401C17.9807 55.7201 17.6207 50.0801 17.4907 48.6301C17.4907 48.1601 17.4107 48.0201 17.3207 48.0301C16.2507 48.1001 12.3207 48.5801 12.3207 48.6401C12.3207 48.7001 13.1107 56.0601 13.1807 56.1601C13.2507 56.2601 13.3807 56.1601 13.5807 56.1601L15.9507 55.9301L15.9807 55.9601ZM93.8807 52.5501C94.2407 50.7101 94.5407 49.1801 94.5407 49.1301C93.6256 48.2688 92.6534 47.4703 91.6307 46.7401C91.5807 46.8001 90.2607 53.5101 90.2607 53.6801C91.1713 54.5069 92.1442 55.2624 93.1707 55.9401C93.1707 55.9401 93.5207 54.3801 93.8807 52.5501ZM31.2107 54.6801C31.3207 51.9701 31.4207 48.0501 31.3807 48.0101C31.3407 47.9701 24.8107 47.7601 24.7507 47.8201C24.6907 47.8801 24.8707 55.5501 24.9107 55.5901C24.9507 55.6301 26.4807 55.7001 28.0107 55.7401C29.0107 55.7401 29.8607 55.8001 29.8707 55.8201C30.0903 55.8399 30.3112 55.8399 30.5307 55.8201H31.1607L31.2107 54.6801ZM23.2107 55.6801H24.2707V54.4401C24.2707 52.5901 24.1207 47.8201 24.0907 47.7901C24.0607 47.7601 18.1507 47.9701 18.0907 48.0101C18.0307 48.0501 18.0907 49.0101 18.2007 50.0901C18.3107 51.1701 18.4107 52.9201 18.4807 53.8601C18.5507 54.8001 18.6107 55.6201 18.6307 55.6601C20.1528 55.7473 21.6786 55.7473 23.2007 55.6601L23.2107 55.6801ZM70.8807 53.5501C71.9507 49.5501 72.6507 46.7101 72.6007 46.6601C72.5507 46.6101 65.8607 44.6601 65.8207 44.6601C65.7807 44.6601 64.0807 52.2901 64.1107 52.3101C64.1407 52.3301 70.6307 54.1701 70.6807 54.1401C70.7697 53.9413 70.8368 53.7334 70.8807 53.5201V53.5501ZM90.5407 50.0101C90.9007 48.1301 91.2007 46.5501 91.2007 46.4901C89.9129 45.586 88.5777 44.7515 87.2007 43.9901C87.1407 43.9901 85.7907 50.8101 85.8007 51.0901C87.0967 51.969 88.4497 52.7607 89.8507 53.4601C89.8507 53.4601 90.2007 51.8801 90.5607 50.0101H90.5407ZM0.960705 52.6801L1.3607 52.0301L1.2107 48.6601C1.1207 46.8101 1.05071 45.2801 1.03071 45.2701C0.871638 45.4829 0.727947 45.7068 0.60072 45.9401C0.13072 46.7701 0.1507 46.4301 0.3307 50.1601C0.3907 51.4201 0.440716 52.6501 0.440716 52.8901C0.424074 53.0395 0.444685 53.1906 0.500713 53.3301C0.678763 53.132 0.833127 52.9139 0.960705 52.6801ZM97.6507 49.5101L97.7507 46.8801L97.4607 46.0401C97.4095 45.7773 97.3255 45.522 97.2107 45.2801C97.2107 45.3401 97.1507 46.7501 97.0907 48.4001L96.9707 51.4001L97.2207 52.2101L97.4707 53.0201V52.6001C97.4707 52.3601 97.5407 50.9901 97.5907 49.5401L97.6507 49.5101ZM64.3007 48.2901C64.7807 46.2101 65.1407 44.4901 65.1107 44.4601C65.0807 44.4301 57.8307 42.7101 57.7907 42.7501C57.7507 42.7901 56.3007 50.4301 56.3507 50.4801C56.4007 50.5301 63.2007 52.1001 63.3507 52.0801C63.7737 50.8421 64.1079 49.5756 64.3507 48.2901H64.3007ZM2.7007 51.0401C3.1607 50.7301 3.56071 50.4501 3.59071 50.4201C3.62071 50.3901 3.45071 43.2501 3.40071 43.1901C3.35071 43.1301 2.92071 43.5201 2.40071 43.9401L1.40071 44.7101L1.4507 45.6001C1.4507 46.0901 1.53069 47.5201 1.57069 48.7801C1.67069 51.4101 1.70069 51.7801 1.82069 51.6701L2.76069 51.0401H2.7007ZM85.9707 47.2501C86.3407 45.3201 86.6307 43.7001 86.6307 43.6601C86.6307 43.6201 81.6907 41.2601 81.5407 41.2601C81.3907 41.2601 81.4307 41.3501 81.4107 41.4701C81.2307 42.3401 80.1407 48.3101 80.1407 48.4701C80.1407 48.6301 80.7207 48.8701 82.6807 49.7501C84.0807 50.3901 85.2407 50.8801 85.2607 50.8601C85.2807 50.8401 85.6107 49.2301 85.9707 47.3001V47.2501ZM96.8307 48.2501C96.8807 46.8701 96.9307 45.3901 96.9307 44.9501V44.1401L96.1607 43.0701C95.9056 42.6941 95.6284 42.3334 95.3307 41.9901C95.2607 41.9901 94.9907 48.5901 95.0707 48.7201C95.1507 48.8501 96.6607 50.8101 96.6907 50.7801C96.7207 50.7501 96.7707 49.6201 96.8207 48.2501H96.8307ZM55.6407 50.2501C55.6407 50.2501 55.7907 49.3501 55.9807 48.3601C56.7807 44.2401 57.0807 42.5801 57.0607 42.5601C57.0407 42.5401 56.1607 42.3801 55.0607 42.1901L51.2807 41.5101C50.6613 41.3732 50.0331 41.2797 49.4007 41.2301C49.3507 41.2801 48.1907 48.5701 48.1907 48.8601C48.1907 48.9801 48.2507 49.0301 48.4407 49.0601C50.2607 49.4001 55.3607 50.3101 55.4407 50.3101C55.5207 50.3101 55.5807 50.3101 55.5807 50.2501H55.6407ZM5.97071 49.4401L7.0207 49.0201C7.1607 48.9401 7.16072 48.8601 7.13072 47.4701C7.13072 46.6701 7.07069 45.0301 7.04069 43.8301C7.01069 42.6301 6.99071 41.6501 6.97071 41.6301C6.95071 41.6101 3.97072 42.8301 3.85072 42.9101C3.73072 42.9901 3.91071 48.4801 4.00071 49.6101V50.1601L4.51069 49.9701L5.93071 49.4401H5.97071ZM9.6407 48.4401L11.6407 48.0101H11.8107V44.1901C11.8107 40.4901 11.8107 40.4101 11.6607 40.4501L9.48069 40.9701L7.48069 41.4501L7.53071 45.0801C7.53071 47.0801 7.59072 48.7501 7.60072 48.8001C7.60518 48.8127 7.61208 48.8242 7.62107 48.8341C7.63007 48.8439 7.64094 48.8519 7.65306 48.8575C7.66517 48.8631 7.6783 48.8662 7.69163 48.8666C7.70497 48.8671 7.71823 48.8648 7.73069 48.8601L9.66072 48.4401H9.6407ZM48.1007 45.0401C48.4307 42.9401 48.6807 41.1901 48.6607 41.1401C48.6407 41.0901 41.0807 40.0601 41.0207 40.1401C40.9607 40.2201 40.0207 47.9301 40.0807 47.9601C40.1407 47.9901 46.9807 48.9001 47.2407 48.8801H47.5107L48.1007 45.0401ZM94.8407 44.5401C94.9555 43.5099 94.9555 42.4702 94.8407 41.4401C94.4007 41.0301 92.1407 39.1201 92.0907 39.1201C92.0407 39.1201 92.0307 39.2801 92.0307 39.4701C92.0307 39.6601 91.9607 41.2001 91.8707 42.8801L91.7207 45.9501L92.0807 46.2601L93.5107 47.4501L94.5907 48.3301L94.6407 47.9401C94.6407 47.7301 94.7507 46.2001 94.8207 44.5401H94.8407ZM80.2307 44.6901C80.6007 42.7401 80.8907 41.1001 80.8807 41.0401C80.8707 40.9801 74.8807 38.6501 74.7907 38.7301C74.7007 38.8101 74.5207 40.0601 74.2407 41.6401C73.9607 43.2201 73.6607 44.8601 73.5807 45.2901L73.4407 46.0801L73.6807 46.1901C74.1407 46.4001 79.4207 48.2701 79.4907 48.2501C79.5607 48.2301 79.8707 46.6401 80.2307 44.6901ZM15.1207 47.5801L17.4607 47.3401V47.0301C17.5207 46.5301 17.6807 39.7401 17.6307 39.6901C17.5807 39.6401 16.4007 39.7901 14.9507 39.9801L12.3207 40.3101V41.3101C12.3207 41.8601 12.3207 43.5701 12.2707 45.1201V47.9401H12.5207L15.1207 47.6501V47.5801ZM39.3807 47.8401C39.3807 47.8401 39.5807 46.0501 39.8407 43.9401C40.1007 41.8301 40.2907 40.0801 40.2607 40.0601C40.2307 40.0401 32.9307 39.4401 32.8807 39.4901C32.8307 39.5401 32.1307 47.2201 32.1707 47.2701C32.2107 47.3201 33.6207 47.4201 35.3807 47.5601L38.8407 47.8401C39.3307 47.9001 39.3807 47.9001 39.3807 47.8401ZM21.1907 47.1801C22.7607 47.1201 24.0607 47.0501 24.0907 47.0301C24.1207 47.0101 24.5907 39.3401 24.5407 39.3001C24.4907 39.2601 18.3607 39.5701 18.3207 39.6201C18.2807 39.6701 18.1007 44.8901 18.0807 46.6201C18.0807 47.2501 18.0807 47.3301 18.2107 47.3301L21.2107 47.2201L21.1907 47.1801ZM31.4807 47.1801C31.5507 46.9901 32.1707 39.4801 32.1107 39.4501C32.0507 39.4201 25.2407 39.2501 25.2007 39.2901C25.1607 39.3301 24.7307 47.0001 24.7707 47.0401C24.8107 47.0801 26.2107 47.1101 27.9407 47.1601L31.2707 47.2701C31.3607 47.2701 31.4607 47.2701 31.4807 47.1801ZM73.4807 42.1801C73.8507 40.1801 74.1307 38.4901 74.1007 38.4601C74.0707 38.4301 67.3107 36.3801 67.2607 36.4601C67.2107 36.5401 65.9507 43.8201 66.0107 43.8801C66.0707 43.9401 72.6407 45.8801 72.7507 45.8801C72.8607 45.8801 73.1207 44.2201 73.4807 42.2101V42.1801ZM91.4807 42.1801C91.5807 40.3101 91.6407 38.7501 91.6207 38.7201C91.6007 38.6901 87.7907 36.2701 87.6907 36.2701C87.5907 36.2701 87.6007 36.3901 87.6007 36.5501C87.6007 36.7101 87.5207 38.1601 87.4107 39.7801C87.3007 41.4001 87.2207 42.7801 87.2207 42.9601C87.2207 43.1401 87.2707 43.2301 89.2207 44.3901C90.3007 45.0401 91.2207 45.5701 91.2207 45.5801C91.3779 44.4534 91.4614 43.3176 91.4707 42.1801H91.4807ZM0.680706 44.8901L1.04069 44.2801L1.41072 41.0901C1.62072 39.3401 1.7807 37.9001 1.7707 37.8901C1.7607 37.8801 1.5807 38.2101 1.3607 38.6201C1.1468 38.9768 1.00101 39.3701 0.930706 39.7801C0.930706 40.0101 0.7507 41.3601 0.5807 42.7801C0.2607 45.4701 0.250701 45.5101 0.300701 45.5101C0.440872 45.3155 0.567829 45.1117 0.680706 44.9001V44.8901ZM2.50071 43.1001C3.25071 42.5501 3.40072 42.4001 3.44072 42.1901C3.51072 41.7701 4.24071 35.5501 4.22071 35.5401C4.20071 35.5301 2.22071 37.1001 2.22071 37.1601C2.22071 37.2201 1.44072 43.6101 1.44072 43.7701C1.44072 43.9301 1.44071 43.9001 1.53071 43.8401L2.53071 43.1001H2.50071ZM65.3907 43.1501C65.3907 42.8701 65.7207 41.2101 66.0307 39.4701C66.3407 37.7301 66.5607 36.2701 66.5307 36.2401C66.5007 36.2101 59.1907 34.4301 59.1407 34.4701C59.0907 34.5101 57.8907 41.9201 57.9407 41.9701C57.9907 42.0201 64.9407 43.6501 65.1307 43.6601C65.3207 43.6701 65.3107 43.6601 65.3907 43.1501ZM96.5307 40.6801C96.3607 39.3701 96.1807 38.0001 96.1407 37.6801L96.0607 37.0301L95.3207 35.9801C94.8307 35.2701 94.5807 34.9801 94.5707 35.0601C94.5607 35.1401 95.1907 40.8101 95.2607 41.1201C95.7227 41.8519 96.2445 42.5443 96.8207 43.1901C96.8207 43.1901 96.7107 42.0401 96.5307 40.7201V40.6801ZM86.9507 39.3701C87.0707 37.4901 87.1507 35.9401 87.1307 35.9201C87.1107 35.9001 85.9907 35.3501 84.6307 34.7001C83.8284 34.2498 82.9845 33.8781 82.1107 33.5901C82.0407 33.7001 81.5307 40.4501 81.5907 40.5001C81.6507 40.5501 86.6607 42.8901 86.7007 42.8501C86.7407 42.8101 86.8407 41.2501 86.9507 39.3701ZM7.0507 40.7301C7.2307 39.4101 7.8807 33.8501 7.8607 33.8301C7.8407 33.8101 4.86069 35.1101 4.73069 35.2201C4.60069 35.3301 3.8607 41.4901 3.8607 42.0001V42.2001L5.44072 41.5401C6.69072 41.0201 7.0307 40.8501 7.0507 40.7301ZM57.2207 41.7301C57.2207 41.7301 57.5007 40.0001 57.8307 37.9801C58.1607 35.9601 58.4307 34.2901 58.4207 34.2801C58.4107 34.2701 50.7707 32.8901 50.7207 32.9301C50.6707 32.9701 49.4907 40.3601 49.5407 40.4201C49.5907 40.4801 56.8307 41.7901 57.0907 41.8001C57.1607 41.8001 57.2207 41.8001 57.2207 41.7301ZM9.72071 40.1801C10.8307 39.9101 11.7207 39.6601 11.7907 39.6201C11.8607 39.5801 12.6007 33.9001 12.7007 32.8101C12.7007 32.4401 12.7007 32.4101 12.5907 32.4501L10.4407 33.0201C9.34072 33.3101 8.44072 33.5601 8.44072 33.5801C8.44072 33.6001 7.56071 40.2501 7.56071 40.5001C7.56071 40.5901 7.61072 40.6601 7.66072 40.6601C7.71072 40.6601 8.66069 40.4401 9.76069 40.1801H9.72071ZM94.8507 40.5301C94.8507 40.4601 94.6807 39.0101 94.4807 37.3101C94.3914 36.2406 94.2311 35.1783 94.0007 34.1301C93.1958 33.3841 92.3477 32.6862 91.4607 32.0401C91.4607 32.0401 91.5707 33.4701 91.7407 35.1201C91.9107 36.7701 92.0507 38.1901 92.0507 38.2601C92.9167 39.1548 93.8421 39.9901 94.8207 40.7601C94.8207 40.7601 94.8707 40.7001 94.8707 40.6301L94.8507 40.5301ZM48.8507 39.7701C49.2807 37.1401 49.9307 33.0001 49.9307 32.8901C49.9307 32.7801 49.5407 32.7001 46.0707 32.2701C43.9507 32.0001 42.2007 31.8001 42.1907 31.8201C42.1807 31.8401 41.0407 39.2801 41.0807 39.3201C41.1207 39.3601 48.6507 40.3201 48.7207 40.3201C48.792 40.148 48.8359 39.9658 48.8507 39.7801V39.7701ZM80.9807 39.7701C80.9807 39.5601 81.1207 38.0101 81.2507 36.3101C81.3791 35.2719 81.4359 34.2261 81.4207 33.1801C81.4207 33.1801 80.0407 32.6301 78.4207 32.0201L75.5207 30.9001L75.4607 31.1801C75.4007 31.4901 74.7807 37.9201 74.8107 37.9501C74.8407 37.9801 80.8107 40.1901 80.8607 40.1701C80.9107 40.1501 80.9507 39.9801 80.9607 39.7701H80.9807ZM17.6907 38.8601C17.6907 38.8601 18.6907 31.6001 18.6307 31.5601C18.5707 31.5201 13.3507 32.2501 13.2707 32.3201C13.1907 32.3901 13.0307 33.9201 12.7907 35.8101C12.5507 37.7001 12.3507 39.2901 12.3307 39.3401C12.3106 39.3915 12.3106 39.4486 12.3307 39.5001C12.3307 39.5501 17.6307 38.9201 17.6907 38.8601ZM40.3307 39.2201C40.4107 39.0901 41.4807 31.8001 41.4307 31.7501C41.3807 31.7001 34.5207 31.1801 34.1607 31.2101H33.9307L33.4607 35.0401C33.1707 37.0401 32.9407 38.7601 32.9507 38.7801C32.9607 38.8001 34.6807 38.9501 40.2407 39.3801C40.2985 39.3852 40.3561 39.3672 40.4007 39.3301L40.3307 39.2201ZM21.7007 38.6801C23.2407 38.6001 24.5207 38.5301 24.5407 38.5101C24.5607 38.4901 25.5907 31.1801 25.5407 31.1301C25.4907 31.0801 19.3707 31.4101 19.3007 31.4801C19.2307 31.5501 19.0307 33.1001 18.7807 35.0101C18.5307 36.9201 18.3107 38.5501 18.3007 38.6501C18.2907 38.7501 17.9807 38.8601 21.7007 38.6501V38.6801ZM32.2607 38.2701L32.7907 34.5501C33.0607 32.7201 33.2507 31.2001 33.2207 31.1801C33.1907 31.1601 26.2207 31.0501 26.2207 31.1801C26.2207 31.3101 25.2207 38.5101 25.2207 38.5401C25.2207 38.5701 28.5007 38.6601 31.2207 38.6901H32.1507L32.2607 38.2701ZM91.5607 37.7301C91.5607 37.6001 91.3907 36.1301 91.2307 34.4701C91.0707 32.8101 90.9007 31.4701 90.8707 31.4101C90.8407 31.3501 87.3007 29.1101 87.2007 29.0701C87.1007 29.0301 87.1107 29.0701 87.1407 29.4001C87.1707 29.7301 87.2707 31.0501 87.3807 32.6001C87.4201 33.5783 87.5169 34.5533 87.6707 35.5201C87.7607 35.6201 91.4607 37.9601 91.5507 37.9701C91.6407 37.9801 91.5507 37.8701 91.5507 37.7301H91.5607ZM74.3407 37.0401C74.5507 35.0401 74.9407 30.8001 74.9307 30.7801C74.9207 30.7601 73.5407 30.3401 69.7807 29.1901C69.0207 28.9601 68.3507 28.7701 68.2907 28.7701C68.2307 28.7701 68.1407 29.0801 68.0207 30.1201C67.5307 34.2301 67.3707 35.7201 67.4207 35.7601C67.4707 35.8001 74.2107 37.8501 74.2407 37.8201C74.2871 37.5619 74.3205 37.3016 74.3407 37.0401ZM1.9207 36.8701C2.0207 36.6601 2.9207 33.6101 3.4607 31.6301C3.4607 31.5501 3.40071 31.6301 3.28071 31.8701C3.16071 32.1101 1.99069 35.7301 1.54069 37.4301C1.49069 37.6401 1.7707 37.2301 1.9207 36.8701ZM3.51069 35.5101C4.35069 34.8501 4.41069 34.7901 4.51069 34.4001C5.26069 31.7801 6.1607 28.5201 6.1407 28.5001C6.1207 28.4801 4.5007 29.8001 4.2707 30.0201C4.2707 30.0201 3.85071 31.4001 3.37071 33.0201C2.89071 34.6401 2.4707 36.0901 2.4507 36.1701C2.4307 36.2501 2.45071 36.3401 3.50071 35.4801L3.51069 35.5101ZM94.8707 33.0401L94.0107 30.2701L93.4007 29.3701C93.2066 29.0689 92.9963 28.7785 92.7707 28.5001C92.7707 28.5001 93.2907 30.3801 94.0307 32.8301C94.2011 33.5997 94.5429 34.3209 95.0307 34.9401C95.2321 35.2552 95.4596 35.5529 95.7107 35.8301C95.7107 35.8301 95.3507 34.5601 94.8707 33.0401ZM66.7407 35.2501C66.8907 34.2501 67.5307 28.5801 67.5007 28.5601C67.4707 28.5401 60.2807 26.7801 60.2507 26.8101C60.2207 26.8401 59.3507 33.1101 59.2507 33.7001C59.2507 33.8401 59.5307 33.9201 62.8207 34.7001C64.8207 35.1701 66.4707 35.5501 66.5407 35.5601C66.6107 35.5701 66.6807 35.4801 66.7107 35.2401L66.7407 35.2501ZM86.9407 32.1201C86.8107 30.3901 86.6907 28.9301 86.6707 28.8701C86.6507 28.8101 81.9407 26.4001 81.8907 26.4501C81.8407 26.5001 81.9807 29.9401 82.0807 31.9401C82.0847 32.2757 82.1182 32.6103 82.1807 32.9401C82.2707 33.0201 87.1207 35.3701 87.1807 35.3401C87.2407 35.3101 87.1007 33.8901 86.9707 32.1501L86.9407 32.1201ZM6.4607 33.8301C7.2807 33.4601 7.98069 33.1401 8.01069 33.1101C8.04069 33.0801 9.84071 26.6101 9.81071 26.5701C9.56089 26.6446 9.31957 26.7452 9.09071 26.8701L7.5507 27.6001L6.69072 28.0101L6.54069 28.5101C5.98069 30.4501 4.8607 34.4101 4.8607 34.5101C4.8607 34.6101 4.8607 34.5701 4.9207 34.5101L6.4607 33.8201V33.8301ZM59.0607 30.1601C59.3307 28.2501 59.5207 26.6601 59.5007 26.6401C59.4807 26.6201 52.0207 25.2301 51.9807 25.2701C51.9407 25.3101 50.8207 32.2701 50.8607 32.2701C50.9007 32.2701 58.0407 33.6201 58.3407 33.6301H58.5707L59.0607 30.1601ZM93.0607 30.5001L92.2007 27.5901L90.9907 26.4801C90.6199 26.1131 90.2185 25.7786 89.7907 25.4801C89.7907 25.5501 91.0707 30.3201 91.2907 31.0701C92.1128 31.9144 92.9844 32.7091 93.9007 33.4501C93.9007 33.4501 93.5407 32.1101 93.0607 30.5101V30.5001ZM10.7807 32.3801C11.8507 32.1001 12.7807 31.8501 12.7807 31.8101C12.7807 31.7701 12.8807 31.8101 13.8907 27.9901C14.3007 26.4601 14.6207 25.1801 14.6107 25.1501C14.6007 25.1201 10.4607 26.2401 10.3807 26.3301C10.3007 26.4201 9.9407 27.7901 9.4607 29.5301C8.98071 31.2701 8.57069 32.7401 8.54069 32.8201C8.51069 32.9001 8.5407 32.9501 8.6407 32.9201L10.7307 32.3801H10.7807ZM81.4707 29.3801C81.4007 27.6301 81.3307 26.1801 81.3107 26.1701C81.2907 26.1601 75.8007 23.9801 75.7007 23.9801C75.6007 23.9801 75.5907 24.4501 75.5907 27.1401C75.5245 28.2173 75.5546 29.2982 75.6807 30.3701C75.8907 30.5001 81.5107 32.6501 81.5507 32.6101C81.5907 32.5701 81.5507 31.1301 81.4707 29.3801ZM50.1707 32.1701C50.1707 32.1701 50.4307 30.5601 50.7407 28.6701C51.0507 26.7801 51.2907 25.2201 51.2707 25.2001C51.2507 25.1801 43.7307 24.2001 43.7007 24.2001C43.6707 24.2001 42.3907 31.1401 42.4207 31.2001C42.4507 31.2601 49.6607 32.2001 50.0707 32.2001C50.1307 32.2001 50.1707 32.2001 50.1707 32.2001V32.1701ZM19.7107 27.5401C20.1607 25.6801 20.5307 24.1501 20.5107 24.1301C20.4907 24.1101 15.3007 24.9401 15.2407 24.9901C15.1807 25.0401 13.4607 31.4101 13.4607 31.5801C13.4607 31.7501 13.8107 31.6501 16.1507 31.3101L18.8407 30.9201L19.7107 27.5401ZM41.7107 30.9401C41.8107 30.5501 42.9907 24.1501 42.9707 24.1301C42.9507 24.1101 35.6407 23.6301 35.6107 23.6501C35.5807 23.6701 34.1407 30.5401 34.1707 30.5701C34.2007 30.6001 40.7607 31.0901 41.3507 31.1001C41.6207 31.1001 41.6807 31.1001 41.7107 30.9401ZM23.1307 30.6501C24.5807 30.5701 25.7707 30.4901 25.7907 30.4701C25.8107 30.4501 27.3607 23.7001 27.3107 23.6601C27.2607 23.6201 21.2207 24.0001 21.1607 24.0501C21.1007 24.1001 19.4607 30.7901 19.4607 30.8601C19.6336 30.8775 19.8078 30.8775 19.9807 30.8601L23.1207 30.6701L23.1307 30.6501ZM90.8307 30.7101C90.8307 30.6501 90.4607 29.4001 90.0507 27.9101C89.6407 26.4201 89.2807 25.1301 89.2407 25.0401C88.702 24.5365 88.1044 24.0999 87.4607 23.7401C86.5307 23.1201 85.7707 22.6301 85.7507 22.6501C85.7307 22.6701 87.0607 28.3701 87.1307 28.4401C87.2007 28.5101 90.7007 30.8001 90.7707 30.8001C90.8407 30.8001 90.8207 30.8001 90.7707 30.7101H90.8307ZM33.4607 30.5201C33.5307 30.4101 34.9007 23.7001 34.8607 23.6701C34.8207 23.6401 33.2907 23.6201 31.4107 23.6101H27.9907L27.2407 26.8601C26.8307 28.6401 26.4807 30.2001 26.4507 30.3101L26.3907 30.5201H28.9007H32.4207C32.7532 30.5526 33.0882 30.5526 33.4207 30.5201H33.4607ZM74.9607 29.8401C74.9607 29.6801 74.9607 28.2401 75.0107 26.6301V23.7201L74.8307 23.6401C74.6107 23.5401 68.8307 21.7401 68.6607 21.7101C68.4907 21.6801 68.5207 22.0401 68.3707 24.8501C68.2807 26.5901 68.2107 28.0301 68.2307 28.0501C68.2507 28.0701 74.7307 30.0501 74.8507 30.1101C74.9707 30.1701 74.9107 29.9901 74.9107 29.8401H74.9607ZM5.75071 28.1901L6.50071 27.5601L7.79069 24.8201C8.46069 23.3101 9.0607 22.0401 9.0507 22.0401C8.76616 22.2493 8.49246 22.473 8.23069 22.7101L7.43071 23.4001L6.6707 24.9401C5.1107 28.1201 4.7207 28.9401 4.8607 28.8801C5.0007 28.8201 5.3207 28.5201 5.7407 28.1701L5.75071 28.1901ZM85.9107 25.1901C85.5407 23.6201 85.2107 22.2901 85.1607 22.2401C85.1107 22.1901 80.8307 20.0401 80.7907 20.0401C80.7507 20.0401 80.9707 21.1801 81.2207 22.5401C81.4707 23.9001 81.6907 25.1801 81.7207 25.3701L81.7807 25.7101L84.1507 26.9101C85.4507 27.5601 86.5307 28.0901 86.5407 28.0801C86.5507 28.0701 86.2607 26.7801 85.9007 25.2101L85.9107 25.1901ZM92.2007 26.5101C91.729 25.5061 91.1981 24.5311 90.6107 23.5901C91.2035 24.9591 91.8712 26.2944 92.6107 27.5901C92.6993 27.7281 92.8033 27.8556 92.9207 27.9701C92.9207 27.9701 92.6007 27.2901 92.1707 26.4601L92.2007 26.5101ZM67.6607 26.7801C67.6607 26.2201 67.7707 24.7801 67.8307 23.6401C67.8971 22.9154 67.9171 22.1873 67.8907 21.4601C67.8107 21.3901 61.0707 19.7401 61.0307 19.7801C60.9907 19.8201 60.3307 26.0001 60.3807 26.0601C60.4307 26.1201 67.1907 27.7801 67.4507 27.7901C67.7107 27.8001 67.6107 27.7901 67.6607 26.7901V26.7801ZM8.66072 26.4901L10.1507 25.7901L10.7607 24.4401L12.0707 21.5301C12.4607 20.6801 12.7607 19.9601 12.7507 19.9501C12.2486 20.1534 11.7579 20.3837 11.2807 20.6401L9.84071 21.3601L9.35072 22.3601C7.56072 26.1301 7.08071 27.1601 7.12071 27.1601C7.16071 27.1601 7.84072 26.8501 8.66072 26.4701V26.4901ZM90.4007 24.0401L89.1107 21.5201L88.1107 20.6001C87.7958 20.2802 87.4619 19.9796 87.1107 19.7001C87.1107 19.7001 87.6207 20.8301 88.2607 22.1701L89.4607 24.5901L90.5107 25.5901C90.8649 25.9443 91.2388 26.2781 91.6307 26.5901C91.6307 26.5901 91.1107 25.4601 90.4107 24.0701L90.4007 24.0401ZM59.9207 23.4701C60.0807 22.0801 60.2307 20.6601 60.2607 20.3001L60.3107 19.6501L56.7507 19.0101C54.7507 18.6601 53.1707 18.3901 53.1507 18.4201C53.1307 18.4501 52.1507 24.2101 52.1507 24.4801C52.1507 24.7501 52.2007 24.6601 52.4307 24.7001C54.2407 25.0501 59.5307 26.0101 59.5907 25.9901C59.7553 25.1574 59.8722 24.3161 59.9407 23.4701H59.9207ZM13.0007 25.0101L14.9007 24.4601L15.1007 23.9701C15.2207 23.7001 15.7807 22.3601 16.3507 20.9701C16.9207 19.5801 17.3507 18.4901 17.3507 18.4801C17.3507 18.4701 13.3507 19.6601 13.3007 19.7201C13.2507 19.7801 10.7507 25.2501 10.6707 25.4901C10.5907 25.7301 10.4507 25.6901 12.9707 24.9801L13.0007 25.0101ZM81.2107 25.4401C81.2107 25.2301 80.2107 19.8001 80.1607 19.7601C80.1107 19.7201 75.0307 17.6801 75.0007 17.7601C74.9707 17.8401 75.5607 23.2801 75.6307 23.3501C75.7007 23.4201 80.9807 25.5301 81.1207 25.5401C81.2607 25.5501 81.2107 25.5401 81.2107 25.4901V25.4401ZM51.9207 21.3801C52.2007 19.6901 52.4207 18.2901 52.4107 18.2701C52.4007 18.2501 45.2607 17.3701 45.2107 17.4201C45.1607 17.4701 43.7907 23.5201 43.8407 23.5701C43.8907 23.6201 50.7307 24.4901 51.0907 24.4801H51.4007L51.9207 21.3801ZM18.3307 23.9001C19.6307 23.6901 20.7207 23.4901 20.7507 23.4601C20.7807 23.4301 23.0507 17.5401 23.0107 17.4601C22.9707 17.3801 18.0607 18.2701 18.0107 18.3401C17.9607 18.4101 15.5807 23.9601 15.5207 24.1801C15.4607 24.4001 15.5207 24.3101 15.7407 24.2701L18.3507 23.8601L18.3307 23.9001ZM87.6407 21.5601L86.4607 19.0401L84.9807 18.0401C84.1707 17.4801 83.4907 17.0401 83.4707 17.0401C83.4507 17.0401 83.9207 18.1801 84.4707 19.5201L85.5307 21.9701L87.1707 23.0701C88.0707 23.6701 88.8207 24.1401 88.8307 24.1201C88.8407 24.1001 88.3007 22.9301 87.6407 21.5501V21.5601ZM43.1407 23.3401C43.4807 21.9701 44.4907 17.3401 44.4507 17.3401C44.4107 17.3401 37.5407 16.8501 37.4507 16.9001C37.3607 16.9501 35.6807 23.0101 35.7007 23.0301C35.7207 23.0501 42.1007 23.4901 42.6307 23.5001C43.1607 23.5101 43.0607 23.5001 43.1007 23.3401H43.1407ZM24.4607 23.2101C26.0607 23.1001 27.4107 22.9901 27.4607 22.9601C27.5107 22.9301 28.0207 21.5601 28.5807 19.9101L29.5807 16.9101H29.1507C28.9107 16.9101 27.5907 17.0101 26.2107 17.1201C25.3398 17.103 24.471 17.2108 23.6307 17.4401C23.5607 17.5601 21.3507 23.3001 21.3507 23.3601C21.3507 23.4201 21.2907 23.4101 24.4407 23.2001L24.4607 23.2101ZM35.9207 20.0401C36.3907 18.4001 36.7707 17.0401 36.7807 16.9601C35.6808 16.8099 34.5686 16.7697 33.4607 16.8401C31.6507 16.8401 30.1807 16.8401 30.1807 16.8401C30.1807 16.8401 29.7107 18.2301 29.1807 19.9001L28.1807 22.9001H29.9907L33.4607 23.0401H35.1007L35.9207 20.0401ZM74.9207 23.0401C74.9207 22.9101 74.3907 17.9301 74.3507 17.7101V17.4801L71.4607 16.4901L68.4607 15.5601C68.3707 15.5601 68.3707 15.9301 68.4607 17.9201C68.4607 19.2301 68.5207 20.4901 68.5407 20.7001V21.0901L71.5407 22.0901C74.5407 23.0301 74.8407 23.0901 74.8407 23.0001L74.9207 23.0401ZM10.1707 20.2401C11.6807 18.0701 12.1707 17.3901 12.4007 17.0301L12.6607 16.6501L12.0707 17.1801C11.4989 17.7402 10.9892 18.3605 10.5507 19.0301L9.2707 20.8301L8.62071 21.7301L8.31071 22.1501L8.9507 21.6101C9.41834 21.2116 9.82887 20.7506 10.1707 20.2401ZM83.8807 19.0401L82.8107 16.5301L80.8807 15.5301C79.8207 14.9801 78.9507 14.5301 78.9307 14.5301C78.9107 14.5301 80.5807 19.3101 80.6407 19.3601C80.7007 19.4101 84.9107 21.5701 84.9307 21.5501C84.9507 21.5301 84.4607 20.4601 83.8807 19.0401ZM67.8807 18.1201C67.8807 16.6101 67.8007 15.3601 67.7807 15.3301C67.7607 15.3001 61.4607 13.7701 61.4607 13.8101C61.4607 13.8501 61.0507 19.1501 61.1007 19.2001C61.1507 19.2501 67.6407 20.8601 67.8407 20.8801C68.0407 20.9001 67.9307 20.4101 67.8907 18.1601L67.8807 18.1201ZM12.1307 19.6901L13.1307 19.2001L14.7707 16.7701C15.6807 15.4201 16.4007 14.3101 16.3807 14.3001C15.933 14.4899 15.4956 14.7036 15.0707 14.9401L13.7907 15.6201L12.0907 18.0201C11.1607 19.3401 10.4007 20.4501 10.3907 20.4801C11.0135 20.2974 11.6089 20.0317 12.1607 19.6901H12.1307ZM87.8307 19.6901L86.4607 17.8701C85.8967 17.0937 85.282 16.3554 84.6207 15.6601C84.43 15.4587 84.2189 15.2778 83.9907 15.1201C83.9907 15.1201 84.5907 15.9901 85.3307 16.9701C85.9354 17.8197 86.604 18.622 87.3307 19.3701C87.5502 19.5857 87.7841 19.7862 88.0307 19.9701C88.0307 19.9701 88.0307 19.8601 87.8907 19.7201L87.8307 19.6901ZM79.9907 19.0401C79.9907 18.9901 78.5107 14.7601 78.3507 14.3601C77.605 13.9521 76.8294 13.6011 76.0307 13.3101C74.7907 12.8001 73.7407 12.3901 73.7207 12.3901C73.7007 12.3901 74.8007 16.9101 74.9107 17.0301C75.0207 17.1501 79.7807 19.0901 79.9107 19.1001C80.0407 19.1101 79.9707 19.1001 79.9707 19.0401H79.9907ZM60.4007 18.7101C60.4907 18.0201 60.7707 13.7101 60.7207 13.6301C60.6707 13.5501 54.2307 12.4001 54.1707 12.4501C54.1107 12.5001 53.1707 17.6801 53.2407 17.7301C53.3107 17.7801 60.0107 19.0101 60.2407 19.0301C60.4707 19.0501 60.3807 18.9501 60.4107 18.7101H60.4007ZM15.8207 18.3901L17.7307 17.8001C17.8807 17.6301 20.8307 12.8001 20.8007 12.8001C20.7707 12.8001 17.1407 13.9001 17.0907 13.9801C15.0907 16.9801 13.8007 18.8801 13.8007 18.9101C13.8007 18.9401 13.8607 18.9701 15.8007 18.3901H15.8207ZM84.3007 16.0401L82.7907 14.0401L81.6107 13.2301C80.9607 12.7801 80.4207 12.4301 80.4107 12.4401C80.4007 12.4501 80.8507 13.1401 81.4107 13.9601C83.2107 16.5701 82.9607 16.2901 84.4107 17.2701C84.8408 17.5788 85.2882 17.8626 85.7507 18.1201C85.7507 18.1201 85.1007 17.1801 84.2807 16.0701L84.3007 16.0401ZM20.8907 17.2601C22.2007 17.0301 23.3107 16.8201 23.3507 16.7801C23.3907 16.7401 26.1707 11.7801 26.1507 11.7801C26.1307 11.7801 23.4207 12.2401 22.1507 12.5001L21.5107 12.6301L19.9407 15.0401C19.0807 16.4101 18.3807 17.5501 18.3807 17.5801C18.3807 17.6101 18.2407 17.6801 20.8907 17.2301V17.2601ZM52.9807 15.1501C53.2207 13.7801 53.4107 12.5801 53.4007 12.4801V12.2901L50.1207 11.8901C48.3207 11.6701 46.8407 11.5001 46.8307 11.5101C46.8207 11.5201 45.3707 16.7201 45.3907 16.7401C45.4107 16.7601 46.7607 16.9401 48.3907 17.1401L51.8507 17.5801C52.0529 17.6103 52.2565 17.6304 52.4607 17.6401C52.7652 16.8416 52.9505 16.0026 53.0107 15.1501H52.9807ZM73.6607 14.5001C73.3307 13.2101 73.0507 12.1501 73.0307 12.1401C73.0107 12.1301 67.9207 10.4801 67.8807 10.5101C67.8407 10.5401 68.3707 14.9301 68.4307 14.9801C68.4907 15.0301 74.0607 16.8101 74.1607 16.8201C74.0651 16.0331 73.8978 15.2565 73.6607 14.5001ZM27.0007 16.5001C28.5207 16.3701 29.8007 16.2501 29.8207 16.2301C29.8407 16.2101 30.4107 15.0501 31.0607 13.6801C32.2207 11.2401 32.2507 11.1901 32.0607 11.1601C31.8707 11.1301 27.2907 11.5101 26.9607 11.5701C26.3351 12.3471 25.8109 13.2007 25.4007 14.1101L23.9807 16.6601C23.9807 16.7401 23.9007 16.7501 26.9807 16.5001H27.0007ZM45.4007 14.0401C45.7907 12.6201 46.1007 11.4501 46.0807 11.4301C46.0607 11.4101 44.7307 11.3301 43.0807 11.2401L39.8707 11.0601H39.6007L38.6007 13.6301C38.0607 15.0501 37.6007 16.2301 37.6507 16.2401C37.7007 16.2501 43.4707 16.6501 44.0507 16.6401H44.6207L45.4007 14.0401ZM36.9507 16.1801C37.0707 16.0801 38.9507 11.3101 38.9507 11.1001C38.9507 10.8901 38.7507 10.9901 37.3307 11.0301C36.4407 11.0301 35.0907 11.0301 34.3307 11.0301H32.9407L31.7507 13.5501C31.0907 14.9301 30.5507 16.1001 30.5507 16.1401C32.6922 16.265 34.8392 16.265 36.9807 16.1401L36.9507 16.1801ZM81.0107 13.8501C79.8307 12.1301 79.6007 11.8501 79.3007 11.6801C79.0007 11.5101 78.3807 11.1801 77.6607 10.8101L76.3707 10.1401L76.5407 10.4401L77.6907 12.3701L78.6907 13.9901L80.5207 14.9901C81.5207 15.5101 82.3707 15.9201 82.3807 15.9101C82.3907 15.9001 81.8007 14.9901 81.0507 13.9101L81.0107 13.8501ZM67.7307 14.4601L67.4607 12.2801C67.3911 11.608 67.2843 10.9403 67.1407 10.2801C67.0707 10.2201 61.8507 8.90008 61.6607 8.90008C61.4707 8.90008 61.5507 9.30008 61.5207 11.0601C61.5207 12.2401 61.5207 13.2201 61.5207 13.2401C61.5207 13.2601 67.5207 14.7601 67.6407 14.7701C67.7607 14.7801 67.8107 14.7701 67.7707 14.4901L67.7307 14.4601ZM18.8107 11.6301C19.8107 10.6301 20.6407 9.74008 20.6307 9.72008C20.6207 9.70008 20.1507 9.94008 19.6307 10.2301L18.6307 10.7701L14.7407 14.6901L17.0307 13.5101L18.8107 11.6301ZM77.9807 13.6301C77.9807 13.6301 77.4407 12.7301 76.8307 11.6901L75.7007 9.81008L73.8007 9.03008C72.8007 8.60008 71.8807 8.26008 71.8707 8.28008C72.379 9.50844 72.9497 10.71 73.5807 11.8801C73.7107 11.9601 77.8607 13.6701 77.9507 13.6801C78.0007 13.6801 78.0407 13.6901 77.9507 13.6801L77.9807 13.6301ZM19.7307 12.6301L21.3407 12.1201L23.1107 10.1201C24.1107 9.04008 24.8807 8.12008 24.8607 8.12008C24.8407 8.12008 24.1307 8.33008 23.2707 8.61008L21.7007 9.12008L20.4607 10.4301C17.8307 13.1301 17.7007 13.2601 17.9007 13.2101C18.1007 13.1601 18.8207 12.9401 19.7107 12.6501L19.7307 12.6301ZM60.8407 11.1701C60.8407 10.1701 60.8407 9.17008 60.8407 8.98008V8.69008L58.2807 8.22008L55.3407 7.69008L54.9607 7.64008L54.5807 9.75008C54.3807 10.9101 54.2207 11.8701 54.2407 11.8901C54.2607 11.9101 60.4607 13.0401 60.6607 13.0901H60.8307L60.8407 11.1701ZM81.3607 12.6601C81.3607 12.5801 78.4307 10.0001 78.0007 9.66008C77.3207 9.20008 77.2507 9.17008 77.4207 9.36008C78.4215 10.3586 79.4835 11.2938 80.6007 12.1601C81.3707 12.6801 81.3607 12.6701 81.3607 12.6201V12.6601ZM24.0307 11.6601L26.1507 11.2701L26.5607 11.1901L28.1507 9.19008C29.0307 8.10008 29.7407 7.19008 29.7307 7.19008C29.7207 7.19008 28.8007 7.34008 27.7307 7.55008L25.7307 7.94008C25.7307 7.94008 24.2307 9.58008 22.2607 11.7801C22.0107 12.0501 22.0007 12.0701 22.1807 12.0301C22.3607 11.9901 23.1807 11.8501 24.0807 11.6801L24.0307 11.6601ZM53.5807 11.7501C53.5807 11.7501 53.7507 10.7501 53.9507 9.64008C54.1507 8.53008 54.3207 7.57008 54.3107 7.56008C54.3007 7.55008 48.4507 6.84008 48.4207 6.86008C48.3907 6.88008 47.0107 10.8601 47.0107 10.9401C47.0107 11.0201 47.3007 11.0701 47.7507 11.1201L50.8307 11.5001C53.3607 11.8201 53.5807 11.8401 53.5807 11.7501ZM72.0007 9.75008L71.1707 8.04008L69.0007 7.32008C68.2815 7.06345 67.5467 6.85302 66.8007 6.69008C66.8007 6.69008 67.0007 7.51008 67.2607 8.41008L67.7407 10.0401L70.2607 10.8601C71.6407 11.3101 72.7907 11.6601 72.8007 11.6501C72.8107 11.6401 72.4607 10.8201 72.0007 9.83008V9.75008ZM30.2507 10.8401L32.5707 10.6201L33.9207 8.62008C35.1207 6.83008 35.2307 6.62008 35.0707 6.62008C34.9107 6.62008 33.9607 6.69008 32.8207 6.80008L30.6207 6.99008C29.9714 7.5989 29.382 8.26864 28.8607 8.99008C27.9707 10.0901 27.2407 10.9901 27.2407 11.0501C27.2407 11.1101 27.4007 11.0501 27.6007 11.0501L30.2507 10.8101V10.8401ZM77.2507 9.64008C76.5326 8.85158 75.6791 8.19795 74.7307 7.71008L73.5807 7.11008C73.9308 7.55921 74.3189 7.97741 74.7407 8.36008L76.0407 9.67008L77.3407 10.3501C78.0507 10.7301 78.6607 11.0301 78.6907 11.0301C78.7207 11.0301 78.0707 10.4101 77.2507 9.64008ZM46.3607 10.7101C46.5507 10.2501 47.7007 6.92008 47.7007 6.84008C47.7007 6.76008 47.6407 6.76008 47.5607 6.76008L44.7307 6.61008C43.2407 6.52008 42.0207 6.46008 42.0107 6.47008C42.0007 6.48008 39.9107 10.5301 39.9307 10.5501C39.9507 10.5701 44.7907 10.8901 46.0407 10.9501C46.2107 10.9501 46.2707 10.9501 46.3607 10.7101ZM40.2407 8.56008C40.8207 7.45008 41.2407 6.56008 41.2407 6.50008C39.9383 6.42899 38.6331 6.42899 37.3307 6.50008L35.8907 6.55008L34.5607 8.55008C34.0988 9.18939 33.6779 9.8574 33.3007 10.5501C33.3007 10.5501 34.6707 10.5501 36.3007 10.5501H39.2007L40.2407 8.56008ZM66.6007 8.10008C66.3307 7.19008 66.0907 6.42008 66.0507 6.38008C66.0107 6.34008 61.4207 5.15008 61.3707 5.20008C61.3207 5.25008 61.5107 8.38008 61.5407 8.42008C61.5707 8.46008 66.9807 9.79008 67.0207 9.77008C66.9194 9.20439 66.7791 8.64639 66.6007 8.10008ZM21.2207 9.04008C21.677 8.77918 22.1177 8.49203 22.5407 8.18008L24.1307 7.04008C24.4507 6.82008 24.7207 6.62008 24.7207 6.61008C24.2311 6.81577 23.7705 7.08472 23.3507 7.41008C22.4007 8.07008 21.2307 8.89008 20.9907 9.04008C20.7507 9.19008 20.8407 9.21008 21.2207 9.04008ZM73.7907 7.85008L72.4607 6.49008L71.0907 5.93008C70.6313 5.72645 70.1605 5.54949 69.6807 5.40008C69.6807 5.40008 70.0907 5.95008 70.6207 6.60008L71.6207 7.77008L73.3007 8.48008C74.2307 8.87008 75.0307 9.19008 75.1007 9.20008C74.7289 8.71367 74.3138 8.26184 73.8607 7.85008H73.7907ZM24.3007 7.96008L25.5207 7.57008L27.3807 6.18008C28.3807 5.41008 29.2207 4.78008 29.1807 4.78008C29.1407 4.78008 28.5907 4.95008 27.9507 5.16008L26.7907 5.55008L24.7907 6.93008C23.7107 7.69008 22.7907 8.34008 22.7407 8.38008C22.6907 8.42008 22.6307 8.48008 24.2707 7.96008H24.3007ZM60.7507 6.58008C60.7007 5.73008 60.6507 5.03008 60.6407 5.02008C60.6307 5.01008 55.7407 4.11008 55.7007 4.15008C55.6607 4.19008 55.0807 7.15008 55.1307 7.15008C55.1807 7.15008 60.7907 8.21008 60.8207 8.15008C60.8507 8.09008 60.8207 7.38008 60.7507 6.54008V6.58008ZM70.6607 7.31008C70.6007 7.24008 70.1607 6.72008 69.6607 6.15008C69.1607 5.58008 68.7707 5.07008 68.7107 5.03008C68.6507 4.99008 67.8607 4.71008 66.9507 4.41008L65.2907 3.88008L65.6007 4.45008C65.7707 4.77008 66.0607 5.27008 66.2307 5.57008L66.5507 6.11008L68.5507 6.77008C69.6407 7.14008 70.5507 7.44008 70.6407 7.44008C70.7307 7.44008 70.7307 7.44008 70.6407 7.31008H70.6607ZM28.4607 6.98008L30.2007 6.65008L31.8807 5.25008C32.8007 4.47008 33.5407 3.83008 33.5207 3.81008C33.5007 3.79008 32.7707 3.92008 31.8807 4.10008L30.2707 4.41008L28.4607 5.79008C27.4607 6.54008 26.5507 7.21008 26.4607 7.28008C26.3707 7.35008 26.3707 7.39008 26.5407 7.35008L28.4807 6.98008H28.4607ZM54.4607 7.04008C54.4607 7.04008 54.5907 6.35008 54.7507 5.53008C54.9107 4.71008 55.0307 4.03008 55.0207 4.01008C55.0107 3.99008 50.4607 3.41008 50.1407 3.40008C49.6022 4.33002 49.1278 5.29559 48.7207 6.29008C48.7207 6.38008 49.1707 6.46008 51.2507 6.72008C52.3115 6.9048 53.3843 7.01175 54.4607 7.04008ZM33.7807 6.28008L35.6707 6.11008L37.1007 4.68008C38.4207 3.36008 38.5207 3.24008 38.3107 3.24008C38.1007 3.24008 37.3107 3.33008 36.3107 3.43008C35.6652 3.45546 35.0246 3.55273 34.4007 3.72008L32.6907 5.14008C31.8207 5.87008 31.1107 6.48008 31.1107 6.50008C31.243 6.52408 31.3784 6.52408 31.5107 6.50008L33.7907 6.28008H33.7807ZM48.6807 4.82008C49.0507 4.03008 49.3407 3.37008 49.3307 3.36008C49.3207 3.35008 48.2307 3.28008 46.9107 3.20008C44.6007 3.08008 44.5107 3.08008 44.4207 3.20008C44.3307 3.32008 43.8907 3.92008 43.3607 4.63008C43.0249 5.05251 42.7175 5.49682 42.4407 5.96008C42.5007 6.02008 46.4907 6.26008 47.3207 6.24008H48.0007L48.6807 4.82008ZM40.2207 6.04008H41.6307L42.6307 4.70008C43.1807 3.96008 43.6307 3.31008 43.6907 3.25008C43.7507 3.19008 43.5007 3.14008 41.5207 3.18008L39.2707 3.23008L37.8207 4.68008L36.3607 6.04008H37.5807C38.2507 6.04008 39.4407 6.04008 40.2207 5.99008V6.04008ZM65.8707 5.91008C65.8707 5.91008 65.5907 5.39008 65.2507 4.80008C65.0532 4.37548 64.7862 3.98681 64.4607 3.65008C64.1607 3.54008 60.8907 2.73008 60.8607 2.76008C60.9655 3.43612 61.1158 4.10431 61.3107 4.76008C61.3107 4.76008 65.6207 5.90008 65.8107 5.93008H65.8707V5.91008ZM69.5707 4.84008C69.0135 4.47374 68.4076 4.18761 67.7707 3.99008C68.6019 4.57035 69.5065 5.03776 70.4607 5.38008C70.17 5.17356 69.8661 4.98649 69.5507 4.82008L69.5707 4.84008ZM60.5707 4.51008C60.5707 4.44008 60.4607 4.02008 60.3707 3.58008C60.2807 3.14008 60.1707 2.72008 60.1407 2.66008C59.4961 2.42109 58.8243 2.26321 58.1407 2.19008C57.0807 2.00008 56.2007 1.84008 56.1907 1.85008C56.0284 2.46114 55.9081 3.08259 55.8307 3.71008C55.8307 3.76008 60.2107 4.61008 60.5107 4.64008C60.5707 4.64008 60.5907 4.64008 60.5707 4.51008ZM67.6907 4.31008L66.7707 3.74008C66.2059 3.37457 65.5935 3.08855 64.9507 2.89008C64.6238 2.77785 64.2897 2.68765 63.9507 2.62008C64.1014 2.78203 64.2729 2.92326 64.4607 3.04008C64.9879 3.44283 65.5946 3.72914 66.2407 3.88008C67.3507 4.27008 67.7807 4.39008 67.6807 4.30008L67.6907 4.31008ZM30.8807 3.82008C31.1442 3.72201 31.3958 3.59453 31.6307 3.44008C30.9936 3.67329 30.3694 3.94034 29.7607 4.24008C29.6807 4.33008 30.1207 4.16008 30.8807 3.82008ZM32.9707 3.57008C33.9466 3.41805 34.8839 3.07846 35.7307 2.57008C36.6007 2.14008 37.3007 1.78008 37.2907 1.77008C37.2807 1.76008 36.8407 1.84008 36.2907 1.94008C35.4424 2.11073 34.6214 2.39672 33.8507 2.79008C33.0969 3.05279 32.3702 3.38767 31.6807 3.79008C31.7307 3.79008 32.2907 3.69008 32.9407 3.56008L32.9707 3.57008ZM55.1007 3.57008C55.1007 3.57008 55.1907 3.13008 55.3007 2.65008C55.3815 2.34883 55.4351 2.04093 55.4607 1.73008C55.4007 1.67008 51.6607 1.23008 51.5607 1.27008C51.0916 1.82582 50.6669 2.41765 50.2907 3.04008C50.2907 3.04008 51.2907 3.21008 52.5607 3.37008C55.1507 3.68008 55.1007 3.68008 55.1007 3.62008V3.57008ZM31.9407 3.24008C31.9407 3.24008 31.8507 3.24008 31.8007 3.30008C31.7307 3.38008 31.7507 3.36008 31.8007 3.30008C31.8707 3.22008 31.9207 3.23008 31.9007 3.20008L31.9407 3.24008ZM32.3507 3.12008C32.4607 3.06008 32.5107 3.01008 32.4707 3.01008C32.3755 3.03232 32.2844 3.06945 32.2007 3.12008C32.1007 3.18008 32.0407 3.22008 32.0907 3.22008C32.1831 3.20399 32.2714 3.17002 32.3507 3.12008ZM37.5607 2.93008L39.0007 2.78008L40.2907 2.00008C40.7282 1.75469 41.1492 1.48077 41.5507 1.18008C41.5507 1.18008 40.9107 1.18008 40.1707 1.29008L38.8107 1.42008L37.1107 2.25008C36.1707 2.71008 35.4107 3.10008 35.4107 3.12008C35.5303 3.13483 35.6512 3.13483 35.7707 3.12008L37.5607 2.94008V2.93008ZM63.4607 2.71008C63.1307 2.45008 62.8107 2.22008 62.7507 2.18008C61.9307 1.93324 61.0956 1.7395 60.2507 1.60008C60.2971 1.74868 60.3756 1.88525 60.4807 2.00008L60.7407 2.36008L62.2607 2.76008C63.0907 2.98008 63.8407 3.16008 63.9207 3.16008C64.0007 3.16008 63.8107 2.98008 63.4607 2.71008ZM50.1807 2.10008C50.3868 1.82096 50.5771 1.53051 50.7507 1.23008C50.7507 1.23008 48.0107 1.04008 47.4607 1.04008H46.9807L45.9807 1.85008C45.6267 2.10813 45.2924 2.39225 44.9807 2.70008C45.0307 2.70008 47.9807 2.92008 48.8807 2.93008H49.5707L50.1807 2.10008ZM42.9807 2.72008H44.1007L45.1007 1.91008L46.1007 1.07008C46.1007 1.07008 45.3707 1.07008 44.4507 1.07008H42.7607L41.3907 1.88008C40.6407 2.32008 39.9907 2.72008 39.9507 2.76008C39.9107 2.80008 40.1907 2.83008 40.8607 2.76008C41.5307 2.69008 42.3607 2.76008 42.9707 2.76008L42.9807 2.72008ZM59.7907 1.95008C59.4307 1.34008 59.4607 1.35008 57.9307 1.07008L56.4607 0.810081C56.3647 1.03317 56.2877 1.264 56.2307 1.50008C56.2307 1.50008 59.6207 2.16008 59.7407 2.17008C59.8607 2.18008 59.8707 2.17008 59.7407 1.95008H59.7907ZM55.6907 1.04008C55.8007 0.650081 55.9307 0.700081 54.1907 0.490081L52.9307 0.34008L52.4307 0.640081C52.265 0.723685 52.1104 0.827838 51.9707 0.95008C52.1307 0.95008 55.3207 1.38008 55.4407 1.37008C55.5607 1.36008 55.6207 1.27008 55.6907 1.04008ZM51.4607 0.650081C51.6206 0.56575 51.7714 0.465221 51.9107 0.35008C51.5018 0.274545 51.0866 0.237717 50.6707 0.240081L49.4607 0.19008L48.6607 0.45008C47.8807 0.71008 47.8707 0.720081 48.2107 0.730081L49.3907 0.800081C51.0307 0.910081 51.0707 0.910081 51.5307 0.650081H51.4607ZM42.6807 0.650081C42.8907 0.650081 42.9907 0.560081 42.9107 0.550081C42.7284 0.569538 42.5479 0.60297 42.3707 0.650081C42.1607 0.700081 42.0607 0.75008 42.1407 0.75008C42.3237 0.735682 42.5047 0.702168 42.6807 0.650081ZM47.3707 0.380081L48.0207 0.160081H47.0207C46.3622 0.170664 45.7073 0.261329 45.0707 0.43008L44.1607 0.660081L45.4607 0.61008C46.1179 0.645555 46.776 0.557361 47.4007 0.35008L47.3707 0.380081ZM43.3107 0.490081C43.2876 0.477824 43.2618 0.471414 43.2357 0.471414C43.2095 0.471414 43.1838 0.477824 43.1607 0.490081C43.1607 0.490081 43.2807 0.490081 43.2607 0.490081H43.3107Z" fill="white"/>
</g>
</g>
<defs>
<clipPath id="clip0_147_11975">
<rect width="97.9" height="98.03" fill="white"/>
</clipPath>
</defs>
</svg>
