<svg width="61" height="85" viewBox="0 0 61 85" fill="none" xmlns="http://www.w3.org/2000/svg">
<path d="M59.135 82.2837L61 82.2837L61 84.1487L59.135 84.1487L59.135 82.2837Z" fill="white"/>
<path d="M59.135 71.998L61 71.998L61 73.8631L59.135 73.8631L59.135 71.998Z" fill="white"/>
<path d="M59.135 61.7124L61 61.7124L61 63.5774L59.135 63.5774L59.135 61.7124Z" fill="white"/>
<path d="M59.135 51.4263L61 51.4263L61 53.2913L59.135 53.2913L59.135 51.4263Z" fill="white"/>
<path d="M59.135 41.1426L61 41.1426L61 43.0076L59.135 43.0076L59.135 41.1426Z" fill="white"/>
<path d="M59.135 30.8574L61 30.8574L61 32.7225L59.135 32.7225L59.135 30.8574Z" fill="white"/>
<path d="M59.135 20.5708L61 20.5708L61 22.4358L59.135 22.4358L59.135 20.5708Z" fill="white"/>
<path d="M59.135 10.2861L61 10.2861L61 12.1512L59.135 12.1512L59.135 10.2861Z" fill="white"/>
<path d="M59.135 -1.63046e-07L61 0L61 1.86503L59.135 1.86503L59.135 -1.63046e-07Z" fill="white"/>
<path d="M49.2795 82.2837L51.1445 82.2837L51.1445 84.1487L49.2795 84.1487L49.2795 82.2837Z" fill="white"/>
<path d="M49.2795 71.998L51.1445 71.998L51.1445 73.8631L49.2795 73.8631L49.2795 71.998Z" fill="white"/>
<path d="M49.2795 61.7124L51.1445 61.7124L51.1445 63.5774L49.2795 63.5774L49.2795 61.7124Z" fill="white"/>
<path d="M49.2795 51.4263L51.1445 51.4263L51.1445 53.2913L49.2795 53.2913L49.2795 51.4263Z" fill="white"/>
<path d="M49.2795 41.1426L51.1445 41.1426L51.1445 43.0076L49.2795 43.0076L49.2795 41.1426Z" fill="white"/>
<path d="M49.2795 30.8574L51.1445 30.8574L51.1445 32.7225L49.2795 32.7225L49.2795 30.8574Z" fill="white"/>
<path d="M49.2795 20.5708L51.1445 20.5708L51.1445 22.4358L49.2795 22.4358L49.2795 20.5708Z" fill="white"/>
<path d="M49.2795 10.2861L51.1445 10.2861L51.1445 12.1512L49.2795 12.1512L49.2795 10.2861Z" fill="white"/>
<path d="M49.2795 -1.63046e-07L51.1445 0L51.1445 1.86503L49.2795 1.86503L49.2795 -1.63046e-07Z" fill="white"/>
<path d="M39.424 82.2837L41.2891 82.2837L41.2891 84.1487L39.424 84.1487L39.424 82.2837Z" fill="white"/>
<path d="M39.424 71.998L41.2891 71.998L41.2891 73.8631L39.424 73.8631L39.424 71.998Z" fill="white"/>
<path d="M39.424 61.7124L41.2891 61.7124L41.2891 63.5774L39.424 63.5774L39.424 61.7124Z" fill="white"/>
<path d="M39.424 51.4263L41.2891 51.4263L41.2891 53.2913L39.424 53.2913L39.424 51.4263Z" fill="white"/>
<path d="M39.424 41.1426L41.2891 41.1426L41.2891 43.0076L39.424 43.0076L39.424 41.1426Z" fill="white"/>
<path d="M39.424 30.8574L41.2891 30.8574L41.2891 32.7225L39.424 32.7225L39.424 30.8574Z" fill="white"/>
<path d="M39.424 20.5708L41.2891 20.5708L41.2891 22.4358L39.424 22.4358L39.424 20.5708Z" fill="white"/>
<path d="M39.424 10.2861L41.2891 10.2861L41.2891 12.1512L39.424 12.1512L39.424 10.2861Z" fill="white"/>
<path d="M39.424 -1.63046e-07L41.2891 0L41.2891 1.86503L39.424 1.86503L39.424 -1.63046e-07Z" fill="white"/>
<path d="M29.5666 82.2837L31.4316 82.2837L31.4316 84.1487L29.5666 84.1487L29.5666 82.2837Z" fill="white"/>
<path d="M29.5666 71.998L31.4316 71.998L31.4316 73.8631L29.5666 73.8631L29.5666 71.998Z" fill="white"/>
<path d="M29.5666 61.7124L31.4316 61.7124L31.4316 63.5774L29.5666 63.5774L29.5666 61.7124Z" fill="white"/>
<path d="M29.5666 51.4263L31.4316 51.4263L31.4316 53.2913L29.5666 53.2913L29.5666 51.4263Z" fill="white"/>
<path d="M29.5666 41.1426L31.4316 41.1426L31.4316 43.0076L29.5666 43.0076L29.5666 41.1426Z" fill="white"/>
<path d="M29.5666 30.8574L31.4316 30.8574L31.4316 32.7225L29.5666 32.7225L29.5666 30.8574Z" fill="white"/>
<path d="M29.5666 20.5708L31.4316 20.5708L31.4316 22.4358L29.5666 22.4358L29.5666 20.5708Z" fill="white"/>
<path d="M29.5666 10.2861L31.4316 10.2861L31.4316 12.1512L29.5666 12.1512L29.5666 10.2861Z" fill="white"/>
<path d="M29.5666 -1.63046e-07L31.4316 0L31.4316 1.86503L29.5666 1.86503L29.5666 -1.63046e-07Z" fill="white"/>
<path d="M19.7092 82.2837L21.5742 82.2837L21.5742 84.1487L19.7092 84.1487L19.7092 82.2837Z" fill="white"/>
<path d="M19.7092 71.998L21.5742 71.998L21.5742 73.8631L19.7092 73.8631L19.7092 71.998Z" fill="white"/>
<path d="M19.7092 61.7124L21.5742 61.7124L21.5742 63.5774L19.7092 63.5774L19.7092 61.7124Z" fill="white"/>
<path d="M19.7092 51.4263L21.5742 51.4263L21.5742 53.2913L19.7092 53.2913L19.7092 51.4263Z" fill="white"/>
<path d="M19.7092 41.1426L21.5742 41.1426L21.5742 43.0076L19.7092 43.0076L19.7092 41.1426Z" fill="white"/>
<path d="M19.7092 30.8574L21.5742 30.8574L21.5742 32.7225L19.7092 32.7225L19.7092 30.8574Z" fill="white"/>
<path d="M19.7092 20.5708L21.5742 20.5708L21.5742 22.4358L19.7092 22.4358L19.7092 20.5708Z" fill="white"/>
<path d="M19.7092 10.2861L21.5742 10.2861L21.5742 12.1512L19.7092 12.1512L19.7092 10.2861Z" fill="white"/>
<path d="M19.7092 -1.63046e-07L21.5742 0L21.5742 1.86503L19.7092 1.86503L19.7092 -1.63046e-07Z" fill="white"/>
<path d="M9.85567 82.2837L11.7207 82.2837L11.7207 84.1487L9.85567 84.1487L9.85567 82.2837Z" fill="white"/>
<path d="M9.85567 71.998L11.7207 71.998L11.7207 73.8631L9.85567 73.8631L9.85567 71.998Z" fill="white"/>
<path d="M9.85567 61.7124L11.7207 61.7124L11.7207 63.5774L9.85567 63.5774L9.85567 61.7124Z" fill="white"/>
<path d="M9.85567 51.4263L11.7207 51.4263L11.7207 53.2913L9.85567 53.2913L9.85567 51.4263Z" fill="white"/>
<path d="M9.85567 41.1426L11.7207 41.1426L11.7207 43.0076L9.85567 43.0076L9.85567 41.1426Z" fill="white"/>
<path d="M9.85567 30.8574L11.7207 30.8574L11.7207 32.7225L9.85567 32.7225L9.85567 30.8574Z" fill="white"/>
<path d="M9.85567 20.5708L11.7207 20.5708L11.7207 22.4358L9.85567 22.4358L9.85567 20.5708Z" fill="white"/>
<path d="M9.85567 10.2861L11.7207 10.2861L11.7207 12.1512L9.85567 12.1512L9.85567 10.2861Z" fill="white"/>
<path d="M9.85567 -1.63046e-07L11.7207 0L11.7207 1.86503L9.85567 1.86503L9.85567 -1.63046e-07Z" fill="white"/>
<path d="M0.000203252 82.2837L1.86523 82.2837L1.86523 84.1487L0.000203089 84.1487L0.000203252 82.2837Z" fill="white"/>
<path d="M0.000203252 71.998L1.86523 71.998L1.86523 73.8631L0.000203089 73.8631L0.000203252 71.998Z" fill="white"/>
<path d="M0.000203252 61.7124L1.86523 61.7124L1.86523 63.5774L0.000203089 63.5774L0.000203252 61.7124Z" fill="white"/>
<path d="M0.000203252 51.4263L1.86523 51.4263L1.86523 53.2913L0.000203089 53.2913L0.000203252 51.4263Z" fill="white"/>
<path d="M0.000203252 41.1426L1.86523 41.1426L1.86523 43.0076L0.000203089 43.0076L0.000203252 41.1426Z" fill="white"/>
<path d="M0.000203252 30.8574L1.86523 30.8574L1.86523 32.7225L0.000203089 32.7225L0.000203252 30.8574Z" fill="white"/>
<path d="M0.000203252 20.5708L1.86523 20.5708L1.86523 22.4358L0.000203089 22.4358L0.000203252 20.5708Z" fill="white"/>
<path d="M0.000203252 10.2861L1.86523 10.2861L1.86523 12.1512L0.000203089 12.1512L0.000203252 10.2861Z" fill="white"/>
<path d="M0.000203252 -1.63046e-07L1.86523 0L1.86523 1.86503L0.000203089 1.86503L0.000203252 -1.63046e-07Z" fill="white"/>
</svg>
