<svg width="65" height="65" viewBox="0 0 65 65" fill="none" xmlns="http://www.w3.org/2000/svg">
<path d="M32.5001 0.000312805L34.9456 19.67C35.621 25.1011 39.8996 29.3798 45.3311 30.0548L65 32.5007L45.3311 34.9465C39.8996 35.6215 35.621 39.9002 34.9456 45.3313L32.5001 65.001L30.0545 45.3313C29.3791 39.9002 25.1006 35.6215 19.6691 34.9465L0 32.5007L19.6691 30.0548C25.1006 29.3798 29.3791 25.1011 30.0545 19.67L32.5001 0.000312805Z" fill="#EEEEEE"/>
<path d="M48.9126 16.0875L44.6721 21.5327C39.6495 27.9819 39.6495 37.0182 44.6721 43.4674L48.9126 48.9126L43.4677 44.6719C37.0187 39.649 27.9821 39.649 21.5331 44.6719L16.0879 48.9126L20.3287 43.4674C25.3514 37.0182 25.3514 27.9819 20.3287 21.5327L16.0879 16.0875L21.5331 20.3281C27.9821 25.3511 37.0187 25.3511 43.4677 20.3281L48.9126 16.0875Z" fill="#EEEEEE"/>
</svg>
