<svg width="61" height="61" viewBox="0 0 61 61" fill="none" xmlns="http://www.w3.org/2000/svg">
<path d="M52.0674 8.93306L32.8462 30.5L52.0674 52.0669L30.5005 32.8463L8.93359 52.0669L28.1542 30.5L8.93359 8.93306L30.5005 28.1543L52.0674 8.93306Z" fill="#EEEEEE"/>
<path d="M30.5003 0.000202179L32.1589 28.8416L61 30.5001L32.1589 32.1593L30.5003 61.0005L28.8411 32.1593L0 30.5001L28.8411 28.8416L30.5003 0.000202179Z" fill="#EEEEEE"/>
<path d="M58.5976 18.6306L32.6753 31.3826L42.3714 58.5957L29.6193 32.6741L2.40625 42.3695L28.3279 29.6174L18.6324 2.40452L31.3846 28.3266L58.5976 18.6306Z" fill="#EEEEEE"/>
<path d="M41.9735 2.24018L32.6611 29.5866L58.7596 41.9737L31.4134 32.6612L19.0264 58.7598L28.3388 31.4128L2.24023 19.0265L29.5872 28.3389L41.9735 2.24018Z" fill="#EEEEEE"/>
</svg>
