<svg width="46" height="53" viewBox="0 0 46 53" fill="none" xmlns="http://www.w3.org/2000/svg">
<g clip-path="url(#clip0_147_11432)">
<path d="M45.3074 12.8456L22.9904 0L0.693848 12.8456L0.00976562 13.2483V39.7471L22.3063 52.6064L22.9904 53.0068L23.6745 52.6064L45.9824 39.7563V13.246L45.3074 12.8456ZM23.8295 2.07495L43.921 13.6464L34.3735 19.1478L33.6894 19.5459L23.8386 13.8717L23.8295 2.07495ZM22.1649 2.07495V13.874L12.321 19.5437L11.6369 19.1455L4.11198 14.8045L2.10078 13.6442L22.1649 2.07495ZM1.38705 14.8386L10.9346 20.3377L11.6186 20.7359V31.9501L1.38021 37.8474L1.38705 14.8386ZM22.3063 51.0001L2.10534 39.3604L12.3415 33.4631L22.3063 39.2034V51.0001ZM22.3063 37.6062L13.0119 32.2505V21.5572L19.9348 25.5319L22.3063 26.897V37.6062ZM22.9904 25.7003L13.6983 20.3468L22.9904 14.9911L32.2825 20.3468L22.9904 25.7003ZM32.9757 21.5458V32.2391L23.6836 37.5948V26.897L32.9757 21.5458ZM23.6836 51.0001V39.2034L33.5481 33.5155L43.7865 39.415L23.6836 51.0001ZM44.6051 37.9725L34.3644 32.073V20.7541L35.0485 20.3559L44.6142 14.8386L44.6051 37.9725Z" fill="#F7F7F7"/>
</g>
<defs>
<clipPath id="clip0_147_11432">
<rect width="46" height="53" fill="white"/>
</clipPath>
</defs>
</svg>
