<?xml version="1.0" encoding="UTF-8"?>
<svg id="b" data-name="Calque 2" xmlns="http://www.w3.org/2000/svg" viewBox="0 0 93.4 75.5">
  <g id="c" data-name="Calque 1">
    <g>
      <path d="M52.8,0c13.5,22.3,27.1,44.6,40.6,66.8-2.2,2.4-4.5,4.9-6.7,7.3-11.4-18.6-22.7-37.2-34.1-55.7-6.8,11.2-13.6,22.3-20.4,33.5h-11C31.7,34.6,42.3,17.3,52.8,0Z" style="fill: #eee;"/>
      <polygon points="50.1 0 39.1 0 0 63.9 64 63.9 58.4 54.4 17.1 54.4 50.1 0" style="fill: #eee;"/>
      <polygon points=".4 66.1 68.4 66.1 47.5 31.9 53.1 22.6 85.3 75.5 8.8 75.5 .4 66.1" style="fill: #eee;"/>
    </g>
  </g>
</svg>